<?xml version="1.0" encoding="utf-8"?>
<!-- Generator: Adobe Illustrator 22.1.0, SVG Export Plug-In . SVG Version: 6.00 Build 0)  -->
<svg version="1.1" id="illustration" xmlns="http://www.w3.org/2000/svg" xmlns:xlink="http://www.w3.org/1999/xlink" x="0px"
	 y="0px" viewBox="0 0 109.4 109.4" style="enable-background:new 0 0 109.4 109.4;" xml:space="preserve">
<style type="text/css">
	.st0{clip-path:url(#SVGID_2_);fill:#CBDDFD;}
	.st1{clip-path:url(#SVGID_2_);}
	.st2{fill:#202B43;}
	.st3{fill:#FBD874;}
	.st4{fill:#98B6F2;}
	.st5{fill:none;stroke:#1E2850;stroke-width:1.8606;stroke-linecap:round;stroke-linejoin:round;stroke-miterlimit:10;}
	.st6{fill:#202B43;stroke:#202B43;stroke-width:1.8606;stroke-linecap:round;stroke-linejoin:round;stroke-miterlimit:10;}
	.st7{fill:#F3C031;}
</style>
<title>profile</title>
<g>
	<g>
		<defs>
			<circle id="SVGID_1_" cx="54.7" cy="54.7" r="54.6"/>
		</defs>
		<clipPath id="SVGID_2_">
			<use xlink:href="#SVGID_1_"  style="overflow:visible;"/>
		</clipPath>
		<circle class="st0" cx="54.7" cy="54.7" r="54.6"/>
		<g class="st1">
			<path class="st2" d="M46.4,10.1c0,0,5.2-4,12.6-4s17.6,3.3,19.9,18.4c0,0,0.7,5,6.6,9.3c0,0,10.9,6.6,10.9,17.9
				s-0.2,17.9,10.1,23.5s16.2,6.5,18.2,20.2L82,89.7l-58.3,3.4c0,0-50,12.5-36.3,1.2s12.1-23.1,17.2-32c4.2-7.4,4-6,13.3-13.4
				c5.2-4.1,5.8-5.5,8.7-14.1C28.6,29.2,32.8,10.2,46.4,10.1z"/>
			<path class="st3" d="M68.2,73c10.6,13.8,25.9,9.1,45.9,15.8s21.7,30.4,21.7,30.4H56.2h-2.7h-79.6c0,0,1.7-23.8,21.7-30.4
				s35.4-2,45.9-15.8"/>
			<g>
				<g>
					<g>
						<path class="st4" d="M57.3,105h-4.9c-6.7,0-12.1-5.4-12.1-12.1V61.8h29.2v31.1C69.5,99.6,64,105,57.3,105z"/>
						<polygon class="st2" points="53.5,71.7 69.5,79.4 69.5,62.3 						"/>
						<path class="st4" d="M57.2,72.1h-4.5c-8.3,0-15-6.7-15-15v-27c0-9.5,7.7-17.2,17.2-17.2h0c9.5,0,17.2,7.7,17.2,17.2v27
							C72.2,65.4,65.5,72.1,57.2,72.1z"/>
					</g>
				</g>
				<path class="st4" d="M41.6,44.3c0,3.8-1.6,8.9-4,8.9s-5.5-5-5.5-8.9s3.1-5,5.5-5S41.6,40.5,41.6,44.3z"/>
				<path class="st4" d="M68.3,44.3c0,3.8,1.6,8.9,4,8.9s5.3-5,5.3-8.9s-2.9-5-5.3-5S68.3,40.5,68.3,44.3z"/>
			</g>
			<polyline class="st5" points="54.8,42.5 54.8,52.4 57.5,51.1 			"/>
			<path class="st5" d="M56.2,56.3c0,0,4.5,0.3,7-2.2"/>
			<path class="st5" d="M41.4,36.7c0,0,1.8-1.4,5.7-1.3"/>
			<path class="st5" d="M69.7,36.7c0,0-1.8-1.4-5.7-1.3"/>
			<circle class="st2" cx="45.4" cy="41.8" r="1.4"/>
			<circle class="st2" cx="66.1" cy="41.8" r="1.4"/>
			<path class="st2" d="M74.9,31c-19.8,1-30.9-15.8-30.9-15.8l6.8-3.6l10.7-0.8l6.9,3.5L74.9,31z"/>
			<path class="st6" d="M39.3,65.7c0,0,1.8,2.6,4.3,4.4"/>
		</g>
	</g>
	<polygon class="st3" points="49,89.4 55.1,105 60.7,89.4 67.8,79.6 69.5,74.6 72.6,82 72.6,96.6 67.8,104.9 56.6,107.7 43.5,105.6
		35.7,99.3 33.5,87.4 40.3,74.4 45.2,86.1 	"/>
	<polygon class="st7" points="40.3,74.4 49,89.4 40.3,97.8 	"/>
	<polygon class="st7" points="69.5,74.6 60.7,89.4 69.5,97.8 	"/>
</g>
</svg>
