<?xml version="1.0" encoding="utf-8"?>
<!-- Generator: Adobe Illustrator 22.1.0, SVG Export Plug-In . SVG Version: 6.00 Build 0)  -->
<svg version="1.1" id="Layer_1" xmlns="http://www.w3.org/2000/svg" xmlns:xlink="http://www.w3.org/1999/xlink" x="0px" y="0px"
	 viewBox="0 0 309 212" style="enable-background:new 0 0 309 212;" xml:space="preserve">
<style type="text/css">
	.st0{fill:#FFFFFF;}
	.st1{fill:#F6E0CB;}
	.st2{fill:#98B6F2;}
	.st3{fill:#F8EADD;}
	.st4{fill:#71CEBE;}
	.st5{fill:#FBD874;}
	.st6{fill:none;stroke:#FFFFFF;stroke-width:5.4034;stroke-miterlimit:10;}
	.st7{fill:none;stroke:#1C2546;stroke-width:4.0403;stroke-miterlimit:10;}
	.st8{fill:#1C2546;}
	.st9{fill:none;stroke:#F58790;stroke-width:4.1444;stroke-linecap:round;stroke-linejoin:round;stroke-miterlimit:10;}
	.st10{fill:none;stroke:#FFFFFF;stroke-width:3.3669;stroke-linecap:round;stroke-linejoin:round;stroke-miterlimit:10;}
	.st11{fill:none;stroke:#F58790;stroke-width:4.1444;stroke-linejoin:round;stroke-miterlimit:10;}
	.st12{fill:#1C2546;stroke:#1C2546;stroke-width:4.2936;stroke-linecap:round;stroke-linejoin:round;stroke-miterlimit:10;}
	.st13{fill:#1C2546;stroke:#1C2546;stroke-width:2.1468;stroke-linecap:round;stroke-linejoin:round;stroke-miterlimit:10;}
	.st14{fill:#F58790;}
	.st15{fill:none;stroke:#F58790;stroke-width:5.5259;stroke-miterlimit:10;}
	.st16{fill:#FFDA17;stroke:#1C2546;stroke-width:6.3297;stroke-miterlimit:10;}
	.st17{fill:#FFDA17;stroke:#1C2546;stroke-width:6.0604;stroke-miterlimit:10;}
	.st18{fill:#FEE9B0;}
	.st19{fill:none;stroke:#1C2546;stroke-width:2;stroke-linecap:round;stroke-linejoin:round;stroke-miterlimit:10;}
</style>
<title>6-1</title>
<rect class="st0" width="309" height="212"/>
<g>
	<g>
		<g>
			<rect x="61.5" class="st1" width="186.1" height="212"/>
			<g>
				<g>
					<path class="st0" d="M235.9,205.6H72.5c-2.6,0-4.7-2.1-4.7-4.7v-189c0-2.6,2.1-4.7,4.7-4.7h163.4c2.6,0,4.7,2.1,4.7,4.7v189
						C240.6,203.5,238.5,205.6,235.9,205.6z"/>
					<path class="st2" d="M230.3,24.6h-11c-0.9,0-1.7-0.8-1.7-1.7v-4c0-0.9,0.8-1.7,1.7-1.7h11c0.9,0,1.7,0.8,1.7,1.7v4
						C232,23.8,231.2,24.6,230.3,24.6z"/>
					<g>
						<g>
							<circle class="st3" cx="88.2" cy="27.2" r="13"/>
							<circle class="st0" cx="228.7" cy="20.9" r="1.4"/>
							<circle class="st0" cx="224.8" cy="20.9" r="1.4"/>
							<circle class="st0" cx="220.9" cy="20.9" r="1.4"/>
						</g>
						<path class="st4" d="M124.3,33.8"/>
					</g>
					<path class="st3" d="M109.8,37.2h58.1c0.9,0,1.7-0.8,1.7-1.7v-4c0-0.9-0.8-1.7-1.7-1.7h-58.1c-0.9,0-1.7,0.8-1.7,1.7v4
						C108.1,36.5,108.8,37.2,109.8,37.2z"/>
					<path class="st3" d="M76.9,170.5h66.9c0.9,0,1.7-0.8,1.7-1.7v-4c0-0.9-0.8-1.7-1.7-1.7H76.9c-0.9,0-1.7,0.8-1.7,1.7v4
						C75.2,169.7,75.9,170.5,76.9,170.5z"/>
					<path class="st3" d="M76.9,183h80.8c0.9,0,1.7-0.8,1.7-1.7v-4c0-0.9-0.8-1.7-1.7-1.7H76.9c-0.9,0-1.7,0.8-1.7,1.7v4
						C75.2,182.2,75.9,183,76.9,183z"/>
					<path class="st3" d="M76.9,195.8h108.7c0.9,0,1.7-0.8,1.7-1.7v-4c0-0.9-0.8-1.7-1.7-1.7H76.9c-0.9,0-1.7,0.8-1.7,1.7v4
						C75.2,195,75.9,195.8,76.9,195.8z"/>
					<path class="st3" d="M109.8,24.6h73.9c0.9,0,1.7-0.8,1.7-1.7v-4c0-0.9-0.8-1.7-1.7-1.7h-73.9c-0.9,0-1.7,0.8-1.7,1.7v4
						C108.1,23.8,108.8,24.6,109.8,24.6z"/>
					<path class="st3" d="M229.4,176.6h-28.4c-1.4,0-2.5-1.1-2.5-2.5v-7.5c0-1.4,1.1-2.5,2.5-2.5h28.4c1.4,0,2.5,1.1,2.5,2.5v7.5
						C231.9,175.5,230.8,176.6,229.4,176.6z"/>
					<g>
						<g>
							<path class="st5" d="M233.3,154H74.2c-1.6,0-2.9-1.3-2.9-2.9v-101c0-1.6,1.3-2.9,2.9-2.9h159.2c1.6,0,2.9,1.3,2.9,2.9v101
								C236.2,152.8,234.9,154,233.3,154z"/>
							<g>
								<g>
									<circle class="st6" cx="201" cy="116.7" r="28.8"/>
									<circle class="st7" cx="201" cy="116.7" r="29.8"/>
								</g>
								<g>
									<circle class="st8" cx="201" cy="116.7" r="4.1"/>
								</g>
								<g>
									<polyline class="st9" points="186.1,78.7 186.7,80.3 201,116.7 									"/>
									<path class="st10" d="M179.4,58.1h8.5c1.5,0,2.6,1.2,2.6,2.6V61c0,1.5-1.2,2.6-2.6,2.6h-4.6c-1.3,0-2.2,1.3-1.8,2.5
										l4.6,12.5"/>
									<g>
										<g>
											<circle class="st6" cx="107.6" cy="116.7" r="28.8"/>
											<circle class="st7" cx="107.6" cy="116.7" r="29.8"/>
										</g>
										<polyline class="st9" points="185.4,79.1 149.6,120.1 135.1,76.3 185,76.3 										"/>
										<circle class="st8" cx="107.6" cy="116.7" r="4.1"/>
										<polyline class="st9" points="135.1,76.3 107.6,116.7 149.6,120.1 										"/>
										<line class="st10" x1="133.9" y1="72.6" x2="131.7" y2="65.5"/>
										<line class="st11" x1="134.6" y1="74.8" x2="134.1" y2="73.1"/>
										<line class="st9" x1="149.6" y1="120.1" x2="134.6" y2="74.8"/>
										<line class="st10" x1="145.8" y1="136.1" x2="149.7" y2="120.2"/>
										<circle class="st8" cx="149.6" cy="120.1" r="7.9"/>
										<line class="st12" x1="179.4" y1="58.1" x2="170.6" y2="58.1"/>
										<path class="st13" d="M143.4,62.9h-21.3l4.4,2.3c1.4,0.7,3,0.9,4.5,0.6L143.4,62.9z"/>
										<circle class="st14" cx="149.6" cy="120.1" r="2.8"/>
										<line class="st10" x1="149.6" y1="120.1" x2="153.4" y2="104.3"/>
										<g>
											<path class="st8" d="M156.4,104.6h-6.2c-0.3,0-0.5-0.3-0.5-0.6l0.3-1.2c0.1-0.2,0.2-0.4,0.5-0.4h6.2
												c0.3,0,0.5,0.3,0.5,0.6l-0.3,1.2C156.8,104.4,156.6,104.6,156.4,104.6z"/>
										</g>
										<g>
											<path class="st8" d="M148.8,137.6h-6.2c-0.3,0-0.5-0.3-0.5-0.6l0.3-1.2c0.1-0.2,0.2-0.4,0.5-0.4h6.2
												c0.3,0,0.5,0.3,0.5,0.6l-0.3,1.2C149.2,137.5,149,137.6,148.8,137.6z"/>
										</g>
										<line class="st15" x1="183.5" y1="71.4" x2="188" y2="83.6"/>
										<line class="st16" x1="183.1" y1="70.3" x2="183.5" y2="71.6"/>
										<line class="st16" x1="187.8" y1="83.1" x2="188.4" y2="84.5"/>
										<line class="st17" x1="134.2" y1="73.3" x2="133.7" y2="71.7"/>
									</g>
								</g>
							</g>
						</g>
						<g>
							<path class="st8" d="M185.4,77l0.5,1.2c0.6,1.6,2.3,2.6,3.9,2.4l-3-8C185.4,73.5,184.8,75.3,185.4,77z"/>
						</g>
						<g>
							<path class="st18" d="M97.5,69.1H80.6c0,0,1.2-3.2,7.2-4c5.9-0.8,8.6-3.1,13.9-3.1s7,3.4,7,5.9v1.2H97.5z"/>
							<g>
								<defs>
									<path id="SVGID_1_" d="M97.5,69.1H80.6c0,0,1.2-3.2,7.2-4c5.9-0.8,8.6-3.1,13.9-3.1s7,3.4,7,5.9v1.2H97.5z"/>
								</defs>
								<clipPath id="SVGID_2_">
									<use xlink:href="#SVGID_1_"  style="overflow:visible;"/>
								</clipPath>
							</g>
							<path class="st0" d="M90.2,70.6h26c0,0-1.2-4.6-5.6-4.6c-4.4,0-4.2,1.1-9,1.1c-5.5,0-3,0-3,0S92.1,67,90.2,70.6z"/>
						</g>
						<g>
							<defs>
								<path id="SVGID_3_" d="M91.8,70h22.7c0,0-1.1-4-4.9-4s-3.6,1-7.9,1c-4.8,0-2.6,0-2.6,0S93.5,66.9,91.8,70z"/>
							</defs>
							<clipPath id="SVGID_4_">
								<use xlink:href="#SVGID_3_"  style="overflow:visible;"/>
							</clipPath>
						</g>
					</g>
				</g>
			</g>
			<path class="st2" d="M234.8,71.3h-65.6c-1.6,0-2.9-1.3-2.9-2.9V30.1c0-1.6,1.3-2.9,2.9-2.9h65.6c1.6,0,2.9,1.3,2.9,2.9v38.3
				C237.6,70,236.4,71.3,234.8,71.3z"/>
			<path class="st0" d="M173.9,40.3h41.2c0.9,0,1.7-0.8,1.7-1.7v-4c0-0.9-0.8-1.7-1.7-1.7h-41.2c-0.9,0-1.7,0.8-1.7,1.7v4
				C172.2,39.6,173,40.3,173.9,40.3z"/>
			<path class="st0" d="M173.9,65.6h27c0.9,0,1.7-0.8,1.7-1.7v-4c0-0.9-0.8-1.7-1.7-1.7h-27c-0.9,0-1.7,0.8-1.7,1.7v4
				C172.2,64.9,173,65.6,173.9,65.6z"/>
			<path class="st0" d="M173.9,52.8h49.9c0.9,0,1.7-0.8,1.7-1.7v-4c0-0.9-0.8-1.7-1.7-1.7h-49.9c-0.9,0-1.7,0.8-1.7,1.7v4
				C172.2,52.1,173,52.8,173.9,52.8z"/>
		</g>
	</g>
	<circle class="st19" cx="224.8" cy="20.9" r="10.5"/>
</g>
</svg>
