<?xml version="1.0" encoding="utf-8"?>
<!-- Generator: Adobe Illustrator 22.1.0, SVG Export Plug-In . SVG Version: 6.00 Build 0)  -->
<svg version="1.1" id="Layer_1" xmlns="http://www.w3.org/2000/svg" xmlns:xlink="http://www.w3.org/1999/xlink" x="0px" y="0px"
	 viewBox="0 0 309 212" style="enable-background:new 0 0 309 212;" xml:space="preserve">
<style type="text/css">
	.st0{fill:#FFFFFF;}
	.st1{fill:#F6E0CB;}
	.st2{fill:#71CEBE;}
	.st3{clip-path:url(#SVGID_2_);fill:#F6E0CB;}
	.st4{clip-path:url(#SVGID_2_);}
	.st5{fill:#1C2546;}
	.st6{fill:#FBD874;}
	.st7{fill:#1E2850;}
	.st8{fill:#98B6F2;}
	.st9{fill:#FCD872;}
	.st10{fill:#CADCFE;}
	.st11{fill:#F3C031;}
</style>
<title>6-1</title>
<g>
	<rect class="st0" width="309" height="212"/>
	<g>
		<g>
			<g>
				<g>
					<rect x="61.4" y="-0.1" class="st1" width="186.2" height="212.2"/>
					<g>
						<g>
							<path class="st0" d="M236,205.7H72.4c-2.6,0-4.7-2.1-4.7-4.7V11.8c0-2.6,2.1-4.7,4.7-4.7H236c2.6,0,4.7,2.1,4.7,4.7V201
								C240.7,203.6,238.6,205.7,236,205.7z"/>
							<g>
								<path class="st2" d="M124.3,33.8"/>
							</g>
						</g>
					</g>
				</g>
			</g>
			<g>
				<defs>
					<circle id="SVGID_1_" cx="105.3" cy="44.3" r="29"/>
				</defs>
				<clipPath id="SVGID_2_">
					<use xlink:href="#SVGID_1_"  style="overflow:visible;"/>
				</clipPath>
				<rect x="76.3" y="9.7" class="st3" width="67.8" height="67.8"/>
				<g class="st4">
					<g>
						<path class="st5" d="M135.5,85.2c-0.4-2.2-2.4-3.7-4.1-5.1c-1.7-1.5-4.1-3.7-3.2-5.8l-4.8-21.9l0,0c1-1.6,1-4,0.5-5.9
							c-0.5-2-1.4-3.9-1.5-5.9c-0.1-1.5,0.1-3-0.1-4.5c-0.4-3-2.5-5.7-4.8-7.6c-3-2.5-6.4-3.4-10.3-3.7s-8.3,2.3-10.6,5.5
							c-2.6,3.6-2.4,6.9-5.2,10.3c-1.2,1.5-2.7,2.5-4.1,3.8c-2.7,2.5-5.2,7.1-5.6,10.8l0.2,0L70.6,71.7c-2.8,2.8-6.1,5.3-8.2,8.6
							c-2.2,3.3-2.8,8-0.2,10.9c1.5,1.6,3.6,2.3,5.3,3.6c3.4,2.6,4.7,7.3,8.4,9.5c0.2,0.1,1.5,0.6,1.3,0.4l48.6-2.8
							c1.8-0.4,3.5-1.1,4.9-2.3c1.1-0.8,2-1.9,2.3-3.2c0.2-1,0.1-2,0.2-2.9C133.5,90.5,136,88,135.5,85.2z"/>
					</g>
					<g>
						<defs>
							<path id="SVGID_3_" d="M135.5,85.2c-0.4-2.2-2.4-3.7-4.1-5.1c-1.7-1.5-4.1-3.7-3.2-5.8l-4.8-21.9l0,0c1-1.6,1-4,0.5-5.9
								c-0.5-2-1.4-3.9-1.5-5.9c-0.1-1.5,0.1-3-0.1-4.5c-0.4-3-2.5-5.7-4.8-7.6c-3-2.5-6.4-3.4-10.3-3.7s-8.3,2.3-10.6,5.5
								c-2.6,3.6-2.4,6.9-5.2,10.3c-1.2,1.5-2.7,2.5-4.1,3.8c-2.7,2.5-5.2,7.1-5.6,10.8l0.2,0L70.6,71.7c-2.8,2.8-6.1,5.3-8.2,8.6
								c-2.2,3.3-2.8,8-0.2,10.9c1.5,1.6,3.6,2.3,5.3,3.6c3.4,2.6,4.7,7.3,8.4,9.5c0.2,0.1,1.5,0.6,1.3,0.4l48.6-2.8
								c1.8-0.4,3.5-1.1,4.9-2.3c1.1-0.8,2-1.9,2.3-3.2c0.2-1,0.1-2,0.2-2.9C133.5,90.5,136,88,135.5,85.2z"/>
						</defs>
						<clipPath id="SVGID_4_">
							<use xlink:href="#SVGID_3_"  style="overflow:visible;"/>
						</clipPath>
					</g>
					<g>
						<path class="st6" d="M36.4,107.9l16.3-2c0,0-2.4-15.5-2.1-22.1c0.2-4.4,6.7-12,15.8-11.8l6.1,0.5l4.8,37.5h52.8l-7.6-12
							l4.8-22.5l52.7,5.3l-7.3-15.2l-61.2-6.9l-9.2-1.2c0,0-25.1-3.2-33.6-3.4c-11.7-0.3-37,2.1-35.5,30.6"/>
					</g>
					<g>
						<g>
							<path class="st7" d="M128.6,69.6c-0.9,4.3-1.8,8.5-2.7,12.8c-0.2,0.9,1.2,1.3,1.4,0.4c0.9-4.3,1.9-8.5,2.7-12.8
								C130.1,69.1,128.7,68.8,128.6,69.6L128.6,69.6z"/>
						</g>
					</g>
					<g>
						<g>
							<path class="st7" d="M70.6,73.8c2.5,0.1,5,0.2,7.5,0.4c0.9,0.1,0.9-1.3,0-1.4c-2.5-0.2-5-0.3-7.5-0.4
								C69.7,72.4,69.7,73.8,70.6,73.8L70.6,73.8z"/>
						</g>
					</g>
					<polyline class="st8" points="104.8,66.5 106.2,68.7 107.8,65.8 					"/>
					<g>
						<path class="st8" d="M106.9,35.5c-1.4,1.2-2.2,2.7-2.9,4.4c-0.3,0-0.7-0.1-1,0c-2.2,0.2-3.8,2.2-3.6,4.4
							c0.2,1.6,1.2,2.8,2.6,3.3c-0.2,0.9-0.4,1.7-0.6,2.6c0,0-0.5,5.1-4.9,6.4l-0.2,1.8c-0.6,4.1,2.2,8,6.3,8.6
							c4.1,0.6,8-2.2,8.6-6.3l0.8-5c2.6-1.6,4.4-3.8,4.9-6.9l1.7-12.8C115.1,35.8,109.2,33.5,106.9,35.5z"/>
					</g>
					<polygon class="st6" points="109.5,62.4 106.1,67.8 102.1,62.7 96.5,56.6 91.8,56.1 91.1,62.5 95.4,67.7 105.3,70 113,69.4
						116,63.8 114.2,58.9 111.6,58.6 					"/>
					<g>
						<g>
							<path class="st7" d="M114.3,41.9c-0.1,1.2-0.3,2.5-0.4,3.7c-0.1,0.8,1.2,0.8,1.2,0c0.1-1.2,0.3-2.5,0.4-3.7
								C115.6,41.1,114.4,41.1,114.3,41.9L114.3,41.9z"/>
						</g>
					</g>
					<g>
						<g>
							<path class="st7" d="M111.2,47.1c0.3,0.8,0.9,1.5,1.7,1.9c0.7,0.4,1.3-0.7,0.6-1.1c-0.5-0.3-0.9-0.7-1.1-1.2
								C112.2,46,111,46.4,111.2,47.1L111.2,47.1z"/>
						</g>
					</g>
					<g>
						<g>
							<path class="st7" d="M110.5,41.9c1.1,0,1.1-1.7,0-1.7C109.4,40.2,109.4,41.9,110.5,41.9L110.5,41.9z"/>
						</g>
					</g>
					<g>
						<g>
							<path class="st7" d="M117.6,42.3c0.9,0,0.9-1.4,0-1.4C116.7,40.9,116.7,42.3,117.6,42.3L117.6,42.3z"/>
						</g>
					</g>
					<circle class="st5" cx="96.1" cy="27.3" r="6.3"/>
					<path class="st7" d="M112,55.8c0,0-2,1-5.2,0.9l4.4,3.8L112,55.8z"/>
					<polyline class="st9" points="36.4,107.9 52.8,105.9 54.6,109.9 36.4,109.9 					"/>
				</g>
				<use xlink:href="#SVGID_1_"  style="overflow:visible;fill:none;stroke:#FFFFFF;stroke-width:0.612;stroke-miterlimit:10;"/>
			</g>
			<path class="st1" d="M144.6,47.2h58.2c0.9,0,1.7-0.8,1.7-1.7v-4c0-0.9-0.8-1.7-1.7-1.7h-58.2c-0.9,0-1.7,0.8-1.7,1.7v4
				C142.9,46.4,143.7,47.2,144.6,47.2z"/>
			<path class="st1" d="M144.6,59.9h64.3c0.9,0,1.7-0.8,1.7-1.7v-4c0-0.9-0.8-1.7-1.7-1.7h-64.3c-0.9,0-1.7,0.8-1.7,1.7v4
				C142.9,59.1,143.7,59.9,144.6,59.9z"/>
			<path class="st1" d="M144.6,34.5h73.9c0.9,0,1.7-0.8,1.7-1.7v-4c0-0.9-0.8-1.7-1.7-1.7h-73.9c-0.9,0-1.7,0.8-1.7,1.7v4
				C142.9,33.7,143.7,34.5,144.6,34.5z"/>
			<g>
				<g>
					<path class="st8" d="M128.1,97.8H78.8c-1.4,0-2.5-1.1-2.5-2.5v-7.5c0-1.4,1.1-2.5,2.5-2.5h49.3c1.4,0,2.5,1.1,2.5,2.5v7.5
						C130.6,96.7,129.5,97.8,128.1,97.8z"/>
					<rect x="80.2" y="89.9" class="st10" width="36.5" height="3.3"/>
					<g>
						<g>
							<g>

									<rect x="120.1" y="90.8" transform="matrix(0.7071 0.7071 -0.7071 0.7071 100.9678 -60.6458)" class="st10" width="7.1" height="1.6"/>
							</g>
						</g>
						<g>
							<g>

									<rect x="120.1" y="90.8" transform="matrix(-0.7071 0.7071 -0.7071 -0.7071 275.8916 68.8339)" class="st10" width="7.1" height="1.6"/>
							</g>
						</g>
					</g>
				</g>
				<g>
					<path class="st10" d="M175.6,97.8h-37.1c-1.4,0-2.5-1.1-2.5-2.5v-7.5c0-1.4,1.1-2.5,2.5-2.5h37.1c1.4,0,2.5,1.1,2.5,2.5v7.5
						C178.1,96.7,177,97.8,175.6,97.8z"/>
					<rect x="140" y="89.9" class="st8" width="24.2" height="3.3"/>
					<g>
						<g>
							<g>

									<rect x="167.6" y="90.8" transform="matrix(0.7071 0.7071 -0.7071 0.7071 114.8753 -94.2215)" class="st8" width="7.1" height="1.6"/>
							</g>
						</g>
						<g>
							<g>

									<rect x="167.6" y="90.8" transform="matrix(-0.7071 0.7071 -0.7071 -0.7071 356.9506 35.2581)" class="st8" width="7.1" height="1.6"/>
							</g>
						</g>
					</g>
				</g>
				<g>
					<path class="st8" d="M229.1,97.8H186c-1.4,0-2.5-1.1-2.5-2.5v-7.5c0-1.4,1.1-2.5,2.5-2.5h43.2c1.4,0,2.5,1.1,2.5,2.5v7.5
						C231.7,96.7,230.5,97.8,229.1,97.8z"/>
					<rect x="187.4" y="89.9" class="st10" width="30.3" height="3.3"/>
					<g>
						<g>
							<g>

									<rect x="221.1" y="90.8" transform="matrix(0.7071 0.7071 -0.7071 0.7071 130.5531 -132.0712)" class="st10" width="7.1" height="1.6"/>
							</g>
						</g>
						<g>
							<g>

									<rect x="221.1" y="90.8" transform="matrix(-0.7071 0.7071 -0.7071 -0.7071 448.3278 -2.5916)" class="st10" width="7.1" height="1.6"/>
							</g>
						</g>
					</g>
				</g>
			</g>
			<g>
				<g>
					<path class="st8" d="M140.4,148.8H78.8c-1.4,0-2.5-1.1-2.5-2.5v-7.5c0-1.4,1.1-2.5,2.5-2.5h61.5c1.4,0,2.5,1.1,2.5,2.5v7.5
						C142.9,147.7,141.8,148.8,140.4,148.8z"/>
					<rect x="80.2" y="140.9" class="st10" width="48.7" height="3.3"/>
					<g>
						<g>
							<g>

									<rect x="132.4" y="141.8" transform="matrix(0.7071 0.7071 -0.7071 0.7071 140.6107 -54.3647)" class="st10" width="7.1" height="1.6"/>
							</g>
						</g>
						<g>
							<g>

									<rect x="132.4" y="141.8" transform="matrix(-0.7071 0.7071 -0.7071 -0.7071 332.8439 147.231)" class="st10" width="7.1" height="1.6"/>
							</g>
						</g>
					</g>
				</g>
				<g>
					<path class="st8" d="M181.7,148.8h-30.9c-1.4,0-2.5-1.1-2.5-2.5v-7.5c0-1.4,1.1-2.5,2.5-2.5h30.9c1.4,0,2.5,1.1,2.5,2.5v7.5
						C184.2,147.7,183.1,148.8,181.7,148.8z"/>
					<rect x="152.2" y="140.9" class="st10" width="18.1" height="3.3"/>
					<g>
						<g>
							<g>

									<rect x="173.7" y="141.8" transform="matrix(0.7071 0.7071 -0.7071 0.7071 152.7258 -83.6131)" class="st10" width="7.1" height="1.6"/>
							</g>
						</g>
						<g>
							<g>

									<rect x="173.7" y="141.8" transform="matrix(-0.7071 0.7071 -0.7071 -0.7071 403.4557 117.9826)" class="st10" width="7.1" height="1.6"/>
							</g>
						</g>
					</g>
				</g>
				<g>
					<path class="st10" d="M229.1,148.8h-37.1c-1.4,0-2.5-1.1-2.5-2.5v-7.5c0-1.4,1.1-2.5,2.5-2.5h37.1c1.4,0,2.5,1.1,2.5,2.5v7.5
						C231.7,147.7,230.5,148.8,229.1,148.8z"/>
					<rect x="193.5" y="140.9" class="st8" width="24.2" height="3.3"/>
					<g>
						<g>
							<g>

									<rect x="221.1" y="141.8" transform="matrix(0.7071 0.7071 -0.7071 0.7071 166.6112 -117.1355)" class="st8" width="7.1" height="1.6"/>
							</g>
						</g>
						<g>
							<g>

									<rect x="221.1" y="141.8" transform="matrix(-0.7071 0.7071 -0.7071 -0.7071 484.3859 84.4603)" class="st8" width="7.1" height="1.6"/>
							</g>
						</g>
					</g>
				</g>
			</g>
			<g>
				<g>
					<path class="st8" d="M128.1,166.3H78.8c-1.4,0-2.5-1.1-2.5-2.5v-7.5c0-1.4,1.1-2.5,2.5-2.5h49.3c1.4,0,2.5,1.1,2.5,2.5v7.5
						C130.6,165.2,129.5,166.3,128.1,166.3z"/>
					<rect x="80.2" y="158.4" class="st10" width="36.5" height="3.3"/>
					<g>
						<g>
							<g>

									<rect x="120.1" y="159.3" transform="matrix(0.7071 0.7071 -0.7071 0.7071 149.4157 -40.578)" class="st10" width="7.1" height="1.6"/>
							</g>
						</g>
						<g>
							<g>

									<rect x="120.1" y="159.3" transform="matrix(-0.7071 0.7071 -0.7071 -0.7071 324.3396 185.7976)" class="st10" width="7.1" height="1.6"/>
							</g>
						</g>
					</g>
				</g>
				<g>
					<path class="st10" d="M169.5,166.3h-30.9c-1.4,0-2.5-1.1-2.5-2.5v-7.5c0-1.4,1.1-2.5,2.5-2.5h30.9c1.4,0,2.5,1.1,2.5,2.5v7.5
						C172,165.2,170.9,166.3,169.5,166.3z"/>
					<rect x="140" y="158.4" class="st8" width="18.1" height="3.3"/>
					<g>
						<g>
							<g>

									<rect x="161.5" y="159.3" transform="matrix(0.7071 0.7071 -0.7071 0.7071 161.5308 -69.8264)" class="st8" width="7.1" height="1.6"/>
							</g>
						</g>
						<g>
							<g>

									<rect x="161.5" y="159.3" transform="matrix(-0.7071 0.7071 -0.7071 -0.7071 394.9515 156.5492)" class="st8" width="7.1" height="1.6"/>
							</g>
						</g>
					</g>
				</g>
				<g>
					<path class="st8" d="M229.1,166.3h-49.3c-1.4,0-2.5-1.1-2.5-2.5v-7.5c0-1.4,1.1-2.5,2.5-2.5h49.3c1.4,0,2.5,1.1,2.5,2.5v7.5
						C231.7,165.2,230.5,166.3,229.1,166.3z"/>
					<rect x="181.3" y="158.4" class="st10" width="36.5" height="3.3"/>
					<g>
						<g>
							<g>

									<rect x="221.1" y="159.3" transform="matrix(0.7071 0.7071 -0.7071 0.7071 179.0011 -112.0034)" class="st10" width="7.1" height="1.6"/>
							</g>
						</g>
						<g>
							<g>

									<rect x="221.1" y="159.3" transform="matrix(-0.7071 0.7071 -0.7071 -0.7071 496.7758 114.3722)" class="st10" width="7.1" height="1.6"/>
							</g>
						</g>
					</g>
				</g>
			</g>
			<g>
				<g>
					<path class="st8" d="M122,131.8H78.8c-1.4,0-2.5-1.1-2.5-2.5v-7.5c0-1.4,1.1-2.5,2.5-2.5H122c1.4,0,2.5,1.1,2.5,2.5v7.5
						C124.5,130.7,123.4,131.8,122,131.8z"/>
					<rect x="80.2" y="123.9" class="st10" width="30.3" height="3.3"/>
					<g>
						<g>
							<g>

									<rect x="114" y="124.8" transform="matrix(0.7071 0.7071 -0.7071 0.7071 123.214 -46.3613)" class="st10" width="7.1" height="1.6"/>
							</g>
						</g>
						<g>
							<g>

									<rect x="114" y="124.8" transform="matrix(-0.7071 0.7071 -0.7071 -0.7071 289.4832 131.1957)" class="st10" width="7.1" height="1.6"/>
							</g>
						</g>
					</g>
				</g>
				<g>
					<path class="st10" d="M169.5,131.8h-37.1c-1.4,0-2.5-1.1-2.5-2.5v-7.5c0-1.4,1.1-2.5,2.5-2.5h37.1c1.4,0,2.5,1.1,2.5,2.5v7.5
						C172,130.7,170.9,131.8,169.5,131.8z"/>
					<rect x="133.9" y="123.9" class="st8" width="24.2" height="3.3"/>
					<g>
						<g>
							<g>

									<rect x="161.5" y="124.8" transform="matrix(0.7071 0.7071 -0.7071 0.7071 137.1215 -79.9371)" class="st8" width="7.1" height="1.6"/>
							</g>
						</g>
						<g>
							<g>

									<rect x="161.5" y="124.8" transform="matrix(-0.7071 0.7071 -0.7071 -0.7071 370.5422 97.62)" class="st8" width="7.1" height="1.6"/>
							</g>
						</g>
					</g>
				</g>
				<g>
					<path class="st8" d="M229.1,131.8h-49.3c-1.4,0-2.5-1.1-2.5-2.5v-7.5c0-1.4,1.1-2.5,2.5-2.5h49.3c1.4,0,2.5,1.1,2.5,2.5v7.5
						C231.7,130.7,230.5,131.8,229.1,131.8z"/>
					<rect x="181.3" y="123.9" class="st10" width="36.5" height="3.3"/>
					<g>
						<g>
							<g>

									<rect x="221.1" y="124.8" transform="matrix(0.7071 0.7071 -0.7071 0.7071 154.5918 -122.1141)" class="st10" width="7.1" height="1.6"/>
							</g>
						</g>
						<g>
							<g>

									<rect x="221.1" y="124.8" transform="matrix(-0.7071 0.7071 -0.7071 -0.7071 472.3665 55.443)" class="st10" width="7.1" height="1.6"/>
							</g>
						</g>
					</g>
				</g>
			</g>
			<g>
				<g>
					<path class="st10" d="M109.8,114.8H78.8c-1.4,0-2.5-1.1-2.5-2.5v-7.5c0-1.4,1.1-2.5,2.5-2.5h30.9c1.4,0,2.5,1.1,2.5,2.5v7.5
						C112.3,113.7,111.2,114.8,109.8,114.8z"/>
					<rect x="80.2" y="106.9" class="st8" width="18.1" height="3.3"/>
					<g>
						<g>
							<g>

									<rect x="101.8" y="107.8" transform="matrix(0.7071 0.7071 -0.7071 0.7071 107.6098 -42.6853)" class="st8" width="7.1" height="1.6"/>
							</g>
						</g>
						<g>
							<g>

									<rect x="101.8" y="107.8" transform="matrix(-0.7071 0.7071 -0.7071 -0.7071 256.5697 110.8331)" class="st8" width="7.1" height="1.6"/>
							</g>
						</g>
					</g>
				</g>
				<g>
					<path class="st8" d="M151.1,114.8h-30.9c-1.4,0-2.5-1.1-2.5-2.5v-7.5c0-1.4,1.1-2.5,2.5-2.5h30.9c1.4,0,2.5,1.1,2.5,2.5v7.5
						C153.7,113.7,152.5,114.8,151.1,114.8z"/>
					<rect x="121.6" y="106.9" class="st10" width="18.1" height="3.3"/>
					<g>
						<g>
							<g>

									<rect x="143.1" y="107.8" transform="matrix(0.7071 0.7071 -0.7071 0.7071 119.7249 -71.9337)" class="st10" width="7.1" height="1.6"/>
							</g>
						</g>
						<g>
							<g>

									<rect x="143.1" y="107.8" transform="matrix(-0.7071 0.7071 -0.7071 -0.7071 327.1816 81.5847)" class="st10" width="7.1" height="1.6"/>
							</g>
						</g>
					</g>
				</g>
				<g>
					<path class="st8" d="M229.1,114.8h-30.9c-1.4,0-2.5-1.1-2.5-2.5v-7.5c0-1.4,1.1-2.5,2.5-2.5h30.9c1.4,0,2.5,1.1,2.5,2.5v7.5
						C231.7,113.7,230.5,114.8,229.1,114.8z"/>
					<rect x="199.6" y="106.9" class="st10" width="18.1" height="3.3"/>
					<g>
						<g>
							<g>

									<rect x="221.1" y="107.8" transform="matrix(0.7071 0.7071 -0.7071 0.7071 142.5725 -127.0927)" class="st10" width="7.1" height="1.6"/>
							</g>
						</g>
						<g>
							<g>

									<rect x="221.1" y="107.8" transform="matrix(-0.7071 0.7071 -0.7071 -0.7071 460.3472 26.4257)" class="st10" width="7.1" height="1.6"/>
							</g>
						</g>
					</g>
				</g>
				<g>
					<path class="st10" d="M188.1,114.8h-26.7c-1.4,0-2.5-1.1-2.5-2.5v-7.5c0-1.4,1.1-2.5,2.5-2.5h26.7c1.4,0,2.5,1.1,2.5,2.5v7.5
						C190.7,113.7,189.5,114.8,188.1,114.8z"/>
					<rect x="162.9" y="106.9" class="st8" width="13.8" height="3.3"/>
					<g>
						<g>
							<g>

									<rect x="180.1" y="107.8" transform="matrix(0.7071 0.7071 -0.7071 0.7071 130.5631 -98.0996)" class="st8" width="7.1" height="1.6"/>
							</g>
						</g>
						<g>
							<g>

									<rect x="180.1" y="107.8" transform="matrix(-0.7071 0.7071 -0.7071 -0.7071 390.3517 55.4188)" class="st8" width="7.1" height="1.6"/>
							</g>
						</g>
					</g>
				</g>
			</g>
			<g>
				<g>
					<path class="st10" d="M115.9,183.9H78.8c-1.4,0-2.5-1.1-2.5-2.5v-7.5c0-1.4,1.1-2.5,2.5-2.5h37.1c1.4,0,2.5,1.1,2.5,2.5v7.5
						C118.4,182.7,117.3,183.9,115.9,183.9z"/>
					<rect x="80.2" y="176" class="st8" width="24.2" height="3.3"/>
					<g>
						<g>
							<g>

									<rect x="107.9" y="176.8" transform="matrix(0.7071 0.7071 -0.7071 0.7071 158.2208 -26.7913)" class="st8" width="7.1" height="1.6"/>
							</g>
						</g>
						<g>
							<g>

									<rect x="107.9" y="176.8" transform="matrix(-0.7071 0.7071 -0.7071 -0.7071 315.8353 224.3642)" class="st8" width="7.1" height="1.6"/>
							</g>
						</g>
					</g>
				</g>
				<g>
					<path class="st8" d="M163.4,183.9h-37.1c-1.4,0-2.5-1.1-2.5-2.5v-7.5c0-1.4,1.1-2.5,2.5-2.5h37.1c1.4,0,2.5,1.1,2.5,2.5v7.5
						C165.9,182.7,164.8,183.9,163.4,183.9z"/>
					<rect x="127.7" y="176" class="st10" width="24.2" height="3.3"/>
					<g>
						<g>
							<g>

									<rect x="155.4" y="176.8" transform="matrix(0.7071 0.7071 -0.7071 0.7071 172.1283 -60.367)" class="st10" width="7.1" height="1.6"/>
							</g>
						</g>
						<g>
							<g>

									<rect x="155.4" y="176.8" transform="matrix(-0.7071 0.7071 -0.7071 -0.7071 396.8943 190.7884)" class="st10" width="7.1" height="1.6"/>
							</g>
						</g>
					</g>
				</g>
			</g>
		</g>
		<polygon class="st11" points="96.5,56.6 102.1,62.7 98.2,66.4 		"/>
		<polygon class="st11" points="111.6,58.6 109.5,62.4 111.9,66.4 		"/>
	</g>
</g>
</svg>
