<?xml version="1.0" encoding="utf-8"?>
<!-- Generator: Adobe Illustrator 22.1.0, SVG Export Plug-In . SVG Version: 6.00 Build 0)  -->
<svg version="1.1" id="illustration" xmlns="http://www.w3.org/2000/svg" xmlns:xlink="http://www.w3.org/1999/xlink" x="0px"
	 y="0px" viewBox="0 0 142.7 64.7" style="enable-background:new 0 0 142.7 64.7;" xml:space="preserve">
<style type="text/css">
	.st0{fill:#5D93FF;}
	.st1{fill:#98B6F2;}
</style>
<title>3-1</title>
<g>
	<g>
		<path class="st0" d="M104.1,47.5c-2-0.4-3.7-0.7-5.3-1.1c-2.5-0.6-2.8-1.1-2-3.5c1.9-5.8,3.8-11.5,6-17.2c1.3-3.4,4.3-4.5,7.8-4.5
			c3.4,0,6.3,1.2,7.6,4.5c2,5.1,3.7,10.4,5.5,15.5c0.1,0.3,0.2,0.7,0.3,1.1c1,3.2,0.9,3.4-2.3,4.2c-1.5,0.4-3,0.6-4.8,1
			c0.2,0.8,1.1,1.1,1.6,1.2c2.7,0.8,5.4,1.6,8.1,2.4c3.1,0.9,6.5,1.5,9.4,2.9c3.7,1.8,5.5,5.3,6.1,9.4c0.1,0.4,0.2,1.3,0.2,1.3
			c0,0-61.6,0-61.6-0.1c0-1.7-1.9-0.3-1.6-2c1.4-5.8,5-9.4,10.9-10.6c2.7-0.6,5.5-1,8.2-1.6C100.2,50,102.3,49.5,104.1,47.5z"/>
		<path class="st0" d="M31.3,64.7c-9.6,0-19.3,0-28.9,0c-1,0-2.4,0-2.4,0s0.2-1.5,0.4-2.6c0.9-3.7,2.8-6.5,6.5-7.9
			c4.9-1.8,9.8-3.6,14.7-5.2c3.3-1.1,3.3-1,3.4-4.5c0-2.4-0.3-4.7-1.9-6.7c-0.8-0.9-0.7-2-0.6-3.3c0.2-1.7-0.1-3.5-0.5-5.1
			c-0.7-2.9-0.2-5.4,1.8-6.9c1.6-1.2,3.3-1.3,5.3-0.8c1.3,0.3,2.6,0.6,3.9,0.4c4.4-0.5,10.2,3.7,7.8,9.3c-0.5,1.3-1.2,2.5-0.2,3.9
			c0.3,0.4-0.1,1.6-0.5,2.1c-1.7,1.9-1.8,4.2-1.8,6.5c0,4.2,0,4.1,4,5.4c4.9,1.7,9.7,3.5,14.5,5.3c2.8,1.1,5.7,5.8,5.6,8.7
			c0,1-0.5,1.2-1.4,1.2c-1.4,0-2.8,0-4.2,0C48.3,64.7,39.8,64.7,31.3,64.7z"/>
		<path class="st1" d="M68.1,64.7c-9.6,0-19.3,0-28.9,0c-0.8,0-2.4,0-2.4,0s0.4-1.8,0.6-2.5c1.5-5.2,4.7-8.6,10.1-9.8
			c2.7-0.6,5.5-0.9,8.2-1.7c2-0.6,3.8-1.3,5.6-2.3c0.8-0.5,1.1-1.2,1.2-2c0-0.1,0-0.3-0.2-0.3c-0.5,0-1,0-1.5,0c-4.3,0-8.6,0-12.8,0
			c-1.9,0-2.4-0.4-2.1-2.3c0.3-2,0.6-4.1,1.2-6.1c0.7-2.5,2.3-4.5,4.5-5.9c1.5-1,2.6-2.3,3.2-4c0.5-1.4,1.1-2.9,1.7-4.3
			c1.4-3.3,4-4.9,7.4-5.6c0.9-0.2,1.8-0.5,2.5-1c3.8-2.4,8.8-1.3,10.9,2.7c1,1.9,2.3,3.4,4,4.6c1.9,1.3,3,3.1,3.3,5.3
			c0.3,2.1,1,3.9,2.6,5.4c1.7,1.6,2,4,2,6.2c0.1,5.8,0.7,4.9-4.7,5c-2.9,0-7.5,0-10.5,0c-0.1,0-0.2,1.2,0.9,2.2
			c2.5,2.2,5.6,2.4,8.6,3c2.6,0.6,5.2,1,7.6,1.9c4.5,1.5,6.8,5.1,7.8,9.6c0.1,0.6,0.3,1.8,0.3,1.8s-1.1,0-2.1,0
			c-9.4,0-18.8,0-28.2,0C68.9,64.7,68.5,64.7,68.1,64.7z"/>
		<circle class="st0" cx="37.9" cy="35.9" r="3.1"/>
		<circle class="st0" cx="24.9" cy="35.9" r="3.1"/>
		<polygon class="st1" points="65.1,55.7 44.3,55.7 45.8,44.1 65.1,44.7 		"/>
	</g>
	<path class="st1" d="M89.4,44.2c0,1.8-0.1,2.2,0.8,3.2c0.9,1,2.1,1.8,2.8,2.9c0.7,1.1,0.6,2.6,0.5,3.9c0,0.6-0.1,1.1-0.3,1.6
		c-0.6,1-1.9,1.3-3.1,1.4c-4,0.5-8.3,0.9-11.8-1.1c-1.3-0.7-2.4-1.7-3.5-2.7c-1.4-1.3-2.7-2.6-3.6-4.3c-0.8-1.7-1-3.8,0-5.4
		c0.8-1.2,2.1-2,3.5-2.3s2.9-0.3,4.3-0.3"/>
</g>
</svg>
