<?xml version="1.0" encoding="utf-8"?>
<!-- Generator: Adobe Illustrator 22.1.0, SVG Export Plug-In . SVG Version: 6.00 Build 0)  -->
<svg version="1.1" id="illustration" xmlns="http://www.w3.org/2000/svg" xmlns:xlink="http://www.w3.org/1999/xlink" x="0px"
	 y="0px" viewBox="0 0 67.2 63.4" style="enable-background:new 0 0 67.2 63.4;" xml:space="preserve">
<style type="text/css">
	.st0{fill:#202B43;}
	.st1{fill:#FBD874;}
	.st2{fill:#98B6F2;}
	.st3{fill:#1E2850;}
	.st4{fill:#F3C031;}
</style>
<title>3-2</title>
<g>
	<path class="st0" d="M27.6,44.8v-2.5c0.3,0.3,0.7,0.7,1.1,1c0.1,0,0.1,0.1,0.2,0.1c0.1,0,0.2-0.1,0.3-0.2c0.1-0.2,0.1-0.4-0.1-0.5
		c-0.9-0.7-1.6-1.7-1.7-1.7c-0.6-1-1-2.1-1-3.4V36c0,0,0,0,0,0c-1,0-2.3-2.1-2.3-3.7c0-1.6,1.3-2.1,2.3-2.1c0,0,0,0,0,0v-3.8
		c0-2.4,1.2-4.5,2.9-5.8c1.1,1.5,5.1,5.9,11.4,6.1v3.5c0,0,0,0,0,0c1,0,2.2,0.5,2.2,2.1c0,1.6-1.2,3.7-2.2,3.7c0,0,0,0,0,0v1.6
		c0,3.4-2.8,6.2-6.2,6.2h-1.2l5.4,2.6l0.9-1.6v0c4.4,4.9,10.6,3.3,18.5,5.9c1.8,0.6,3.2,1.5,4.3,2.6c-0.9-5.5-3.3-5.9-7.5-8.2
		c-4.3-2.3-4.2-5-4.2-9.7c0-4.7-4.5-7.4-4.5-7.4c-2.5-1.8-2.7-3.9-2.7-3.9c-0.9-6.3-5.2-7.7-8.2-7.7c-3.1,0-5.2,1.6-5.2,1.6
		c-5.6,0.1-7.4,7.9-8.2,10.3c-1.2,3.6-1.5,4.2-3.6,5.8c-3.9,3-3.8,2.5-5.5,5.6c-1.9,3.3-1.6,7.5-5.4,11.7C7.8,51.2,8.4,51,9,50.8
		C17,48.1,23.2,49.8,27.6,44.8z"/>
	<path class="st1" d="M62.5,53.4c-1.1-1.1-2.6-2-4.3-2.6c-8-2.7-14.2-1-18.5-5.9v0v2v5.6v2.1l-3.6-3.5l-2.3,6.5l-2.5-6.5l-3.6,3.5
		v-2.1v-7.7v0c-4.4,5-10.6,3.3-18.6,6c-0.6,0.2-1.1,0.4-1.7,0.7C0.6,54.9,0,63.4,0,63.4h33h1.1h33.1C67.2,63.4,66.8,57.3,62.5,53.4z
		"/>
	<path class="st2" d="M33.4,43.9h1.2c3.4,0,6.2-2.8,6.2-6.2V36c0,0,0,0,0,0c1,0,2.2-2.1,2.2-3.7c0-1.6-1.2-2.1-2.2-2.1c0,0,0,0,0,0
		v-3.5c-6.3-0.2-10.3-4.6-11.4-6.1c-1.8,1.3-2.9,3.4-2.9,5.8v3.8c0,0,0,0,0,0c-1,0-2.3,0.5-2.3,2.1c0,1.6,1.3,3.7,2.3,3.7
		c0,0,0,0,0,0v1.6c0,1.2,0.4,2.4,1,3.4c0,0.1,0.7,1,1.7,1.7c0.2,0.1,0.2,0.4,0.1,0.5c-0.1,0.1-0.2,0.2-0.3,0.2c-0.1,0-0.2,0-0.2-0.1
		c-0.4-0.3-0.8-0.7-1.1-1v2.5v0l3.6,6.2l2.5,6.5l2.3-6.5l2.7-4.6L33.4,43.9z M29.1,31.3c0-0.3,0.3-0.6,0.6-0.6s0.6,0.3,0.6,0.6
		c0,0.3-0.3,0.6-0.6,0.6S29.1,31.6,29.1,31.3z M37.7,31.3c0-0.3,0.3-0.6,0.6-0.6s0.6,0.3,0.6,0.6c0,0.3-0.3,0.6-0.6,0.6
		S37.7,31.6,37.7,31.3z M37.4,28.3c1.7,0,2.6,0.6,2.6,0.6c0.2,0.1,0.2,0.4,0.1,0.5c-0.1,0.1-0.2,0.2-0.3,0.2c-0.1,0-0.2,0-0.2-0.1
		c0,0-0.7-0.5-2.1-0.5c0,0,0,0,0,0c-0.2,0-0.4-0.2-0.4-0.4C37,28.4,37.2,28.3,37.4,28.3z M37.3,36.2c0.2,0.2,0.2,0.4,0,0.5
		c-0.9,0.9-2.4,1-3,1c-0.1,0-0.2,0-0.2,0c-0.2,0-0.4-0.2-0.4-0.4c0-0.2,0.2-0.4,0.4-0.4c0,0,1.7,0.1,2.6-0.8
		C36.9,36,37.2,36,37.3,36.2z M33.2,31.6c0-0.2,0.2-0.4,0.4-0.4s0.4,0.2,0.4,0.4v3.5l0.6-0.3c0.2-0.1,0.4,0,0.5,0.2
		c0.1,0.2,0,0.4-0.2,0.5L33.8,36c-0.1,0-0.1,0-0.2,0c-0.1,0-0.1,0-0.2-0.1c-0.1-0.1-0.2-0.2-0.2-0.3V31.6z M27.8,28.9
		c0,0,0.9-0.7,2.6-0.6c0.2,0,0.4,0.2,0.4,0.4c0,0.2-0.2,0.4-0.4,0.4c-1.4,0-2.1,0.5-2.1,0.5c-0.1,0.1-0.1,0.1-0.2,0.1
		c-0.1,0-0.2-0.1-0.3-0.2C27.6,29.3,27.6,29,27.8,28.9z"/>
	<path class="st3" d="M33.6,36.1c0.1,0,0.1,0,0.2,0l1.1-0.5c0.2-0.1,0.3-0.3,0.2-0.5c-0.1-0.2-0.3-0.3-0.5-0.2L34,35.1v-3.5
		c0-0.2-0.2-0.4-0.4-0.4s-0.4,0.2-0.4,0.4v4.1c0,0.1,0.1,0.3,0.2,0.3C33.5,36.1,33.5,36.1,33.6,36.1z"/>
	<path class="st3" d="M34.2,36.9c-0.2,0-0.4,0.1-0.4,0.4c0,0.2,0.1,0.4,0.4,0.4c0,0,0.1,0,0.2,0c0.6,0,2.1-0.1,3-1
		c0.2-0.2,0.2-0.4,0-0.5c-0.2-0.2-0.4-0.2-0.5,0C35.9,37,34.2,36.9,34.2,36.9z"/>
	<path class="st3" d="M28,29.6c0.1,0,0.2,0,0.2-0.1c0,0,0.7-0.5,2.1-0.5c0.2,0,0.4-0.2,0.4-0.4c0-0.2-0.2-0.4-0.4-0.4
		c-1.7,0-2.6,0.6-2.6,0.6c-0.2,0.1-0.2,0.4-0.1,0.5C27.8,29.5,27.9,29.6,28,29.6z"/>
	<path class="st3" d="M37.4,29C37.4,29,37.4,29,37.4,29c1.4,0,2.1,0.5,2.1,0.5c0.1,0.1,0.2,0.1,0.2,0.1c0.1,0,0.2-0.1,0.3-0.2
		c0.1-0.2,0.1-0.4-0.1-0.5c0,0-0.9-0.7-2.6-0.6c-0.2,0-0.4,0.2-0.4,0.4C37,28.9,37.2,29,37.4,29z"/>
	<path class="st0" d="M30.3,31.3c0-0.3-0.3-0.6-0.6-0.6s-0.6,0.3-0.6,0.6c0,0.3,0.3,0.6,0.6,0.6S30.3,31.6,30.3,31.3z"/>
	<path class="st0" d="M38.9,31.3c0-0.3-0.3-0.6-0.6-0.6s-0.6,0.3-0.6,0.6c0,0.3,0.3,0.6,0.6,0.6S38.9,31.6,38.9,31.3z"/>
	<polygon class="st4" points="27.6,52.5 27.6,54.6 31.2,51.1 27.6,44.8 	"/>
	<polygon class="st4" points="36.1,51.1 39.7,54.6 39.7,52.5 39.7,46.9 39.7,44.9 38.8,46.5 	"/>
</g>
</svg>
