<svg id="illustration" xmlns="http://www.w3.org/2000/svg" xmlns:xlink="http://www.w3.org/1999/xlink" viewBox="0 0 58 58"><defs><style>.cls-1,.cls-2{fill:none;}.cls-2{clip-rule:evenodd;}.cls-3{fill:#303846;}.cls-4{clip-path:url(#clip-path);}.cls-5{fill:#fff;}.cls-6{clip-path:url(#clip-path-2);}.cls-7{clip-path:url(#clip-path-3);}</style><clipPath id="clip-path" transform="translate(-1080.5 -1055.2)"><circle class="cls-1" cx="1109.5" cy="1084.2" r="3"/></clipPath><clipPath id="clip-path-2" transform="translate(-1080.5 -1055.2)"><path class="cls-2" d="M1118.69,1075.15a1,1,0,0,1,1.41,0l8.35,8.35a1,1,0,0,1,0,1.4l-8.35,8.35a1,1,0,0,1-1.41,0l-0.21-.21a1,1,0,0,1,0-1.42l7.07-7.07a0.49,0.49,0,0,0,0-.7l-7.07-7.07a1,1,0,0,1,0-1.42Z"/></clipPath><clipPath id="clip-path-3" transform="translate(-1080.5 -1055.2)"><path class="cls-2" d="M1100.11,1093.25a1,1,0,0,1-1.41,0l-8.35-8.35a1,1,0,0,1,0-1.4l8.35-8.35a1,1,0,0,1,1.41,0l0.21,0.21a1,1,0,0,1,0,1.42l-7.07,7.07a0.49,0.49,0,0,0,0,.7l7.07,7.07a1,1,0,0,1,0,1.42Z"/></clipPath></defs><title>vs</title><circle class="cls-3" cx="29" cy="29" r="29"/><g class="cls-4"><rect class="cls-5" x="21" y="21" width="16" height="16"/></g><g class="cls-6"><rect class="cls-5" x="1107.5" y="1072.3" width="23.8" height="23.8" transform="translate(-1519.28 53.89) rotate(-45)"/></g><g class="cls-7"><rect class="cls-5" x="1087.5" y="1072.3" width="23.8" height="23.8" transform="translate(-1525.14 39.75) rotate(-45)"/></g></svg>