<svg id="Layer_1" data-name="Layer 1" xmlns="http://www.w3.org/2000/svg" viewBox="0 0 197 197"><defs><style>.cls-1{fill:#fff;}.cls-2{fill:#d3e2ff;}.cls-3{fill:#98b6f2;}.cls-4{fill:#ebf1ff;}.cls-5{fill:#1e2850;}.cls-6{fill:#1c294a;}.cls-10,.cls-11,.cls-7,.cls-9{fill:none;stroke-linecap:round;stroke-linejoin:round;stroke-width:0;}.cls-7{stroke:#243762;}.cls-8{fill:#243762;}.cls-9{stroke:#98b6f2;}.cls-10{stroke:#1c294a;}.cls-11{stroke:#606060;}</style></defs><title>about_ads_circular_1</title><rect class="cls-1" width="197" height="197"/><path class="cls-2" d="M34,73.42h0l-.09,0Z"/><path class="cls-2" d="M98.5,0A98.5,98.5,0,0,0,0,98.5q0,3.59.26,7.1l10,2.66h.07v0h0l3.91,15,1.16,4.45,1.77,6.77,8.14-6.79L15,114.26l-4.61-6h0l0-9.3a.53.53,0,0,1,.12,0l-.15,0V75a17.15,17.15,0,0,1,3.28-10.11,19,19,0,0,1,2-2.46A17.42,17.42,0,0,1,28.4,56.52c8.9,0,16.26,7.71,17.57,15.73h0a15.29,15.29,0,0,1,.2,2.52L46,96.27a15.24,15.24,0,0,1-5.6,11.62l.06,5.57c0,1.67,0,2.86,0,2.92l20,5.43a17.66,17.66,0,0,1,10,14.17l1.42,14,4.54,44.55,1.07.23q1,.23,2,.42L73.9,140l3.73-18.58h-.07c.69-9.34-5.87-19.09-8.39-24.32-2.12-4.38.07-3.68.07-3.68.46-.29,1.06,0,1.5.34a38.38,38.38,0,0,1,7,6.93,11.36,11.36,0,0,0,2.28,2,1.61,1.61,0,0,0,2.39-.68c2.9-6.79,3.32-14.15,4.81-21.41h-30a2.65,2.65,0,0,1-2.65-2.65V27.6A2.65,2.65,0,0,1,57.2,25h79.86a2.65,2.65,0,0,1,2.65,2.64V77.91a2.65,2.65,0,0,1-2.65,2.65H91a65.11,65.11,0,0,0-.76,10A9.08,9.08,0,0,0,91,93.87a1,1,0,0,1,1-.44,1.05,1.05,0,0,1,.58.35A4.76,4.76,0,0,1,96.24,93a5.09,5.09,0,0,1,3,2s.11,0,.16,0a1,1,0,0,1,.4.34,4.94,4.94,0,0,1,4.4-.53,4.56,4.56,0,0,1,2.35,1.92l.17,0a1.18,1.18,0,0,1,.37.26,4.58,4.58,0,0,1,4.56.2,6.08,6.08,0,0,1,1.15,1.48,1,1,0,0,1,.66,1.27l-1.1,3.57-5.1,24.27-13.84,69c1.67.09,3.36.13,5,.13a98.5,98.5,0,0,0,0-197Zm84.62,87.8v34.31a2.65,2.65,0,0,1-2.65,2.64h-55a2.64,2.64,0,0,1-2.64-2.64V87.8a2.65,2.65,0,0,1,2.64-2.65h55A2.65,2.65,0,0,1,183.12,87.8Z"/><path class="cls-1" d="M88.26,76.32H62.46v-1H88.62c.88-1.92,2.12-2,2.4-1.46a4.78,4.78,0,0,1,.28,1.46h41.91v1H91.34c0,.86,0,1.58,0,1.58-.08.77-.19,1.68-.3,2.66h46.06a2.65,2.65,0,0,0,2.65-2.65V27.6A2.65,2.65,0,0,0,137.06,25H57.2a2.65,2.65,0,0,0-2.65,2.64V77.91a2.65,2.65,0,0,0,2.65,2.65h30c.28-1.38.59-2.75,1-4.11A.5.5,0,0,1,88.26,76.32ZM62.46,32.45h70.75v1H62.46Zm0,28.58H75l10.55-8.48a3.38,3.38,0,0,1,1.06-4.81H62.46v-1h54.86l8.1-5.91a3.5,3.5,0,0,1-.19-1.08,3.44,3.44,0,1,1,1.4,2.74l-5.82,4.25h12.4v1H119.44L101.24,61h32v1H100.52s0,.1,0,.16a3.4,3.4,0,0,1-6.8,0,.78.78,0,0,1,0-.16H77.06l-5.89,4.74A3.39,3.39,0,1,1,68,64.43a3.33,3.33,0,0,1,2,.67L73.78,62H62.46Z"/><path class="cls-1" d="M97.13,58.78a3.42,3.42,0,0,1,2.37,1l16.45-12H90.14a3.4,3.4,0,0,1,1.64,2.9,3.35,3.35,0,0,1-1,2.39l4.78,6.14A3.39,3.39,0,0,1,97.13,58.78Z"/><path class="cls-1" d="M94.12,60.64,88.93,54a3.31,3.31,0,0,1-.55,0,3.53,3.53,0,0,1-1.13-.2L78.31,61H93.94A3.39,3.39,0,0,1,94.12,60.64Z"/><path class="cls-2" d="M62.46,76.32h25.8a7.62,7.62,0,0,1,.36-1H62.46Z"/><path class="cls-2" d="M133.21,75.32H91.3c0,.33,0,.68,0,1h41.87Z"/><path class="cls-1" d="M150.65,108.68h.07l.64-2.66h-.55a.16.16,0,0,1-.16-.21l.1-.41a.18.18,0,0,1,.16-.13h2.47a.17.17,0,0,1,.16.21l-.1.41a.17.17,0,0,1-.17.13h-.7s0,0,0,0l-.71,2.9,10.49-12,0,0h-15.7l3.88,11.79Z"/><path class="cls-1" d="M122.83,87.8v34.31a2.64,2.64,0,0,0,2.64,2.64h55a2.65,2.65,0,0,0,2.65-2.64V87.8a2.65,2.65,0,0,0-2.65-2.65h-55A2.65,2.65,0,0,0,122.83,87.8Zm13.22,11.36a11,11,0,0,1,5.61,1.54L144.82,96l0-.17-.18-.52-.31.1-.18-.56.45-.14L144,92.89l-.25,0a2.83,2.83,0,0,1-1.24-.3l-1.53-.79a.38.38,0,0,1,.18-.71h7.4a.38.38,0,0,1,.37.34.36.36,0,0,1-.29.4l-3.48.8.55,1.74.45-.14.17.55-.32.1.17.51v0h15.64l-.21-.59-.13,0-.17-.45.48-.18-.53-1.45a1.24,1.24,0,0,1,1.17-1.67H164a.33.33,0,0,0,.33-.33v-.07a.34.34,0,0,0-.33-.34h-2.51a.74.74,0,0,1-.45.17h-3a.75.75,0,0,1,0-1.5h3a.79.79,0,0,1,.45.16H164a1.51,1.51,0,0,1,1.5,1.51v.07a1.51,1.51,0,0,1-1.5,1.51h-1.6a.07.07,0,0,0-.06,0,.07.07,0,0,0,0,.06l.53,1.45.49-.18.16.45-.13,0,1.49,4,.13-.05.2.5-.36.14.36.91a11.25,11.25,0,1,1-1.34.54l-.36-.92-.35.14-.2-.51.13-.05-.15-.39-10,11.42a2.69,2.69,0,0,1,.46,1.51,2.75,2.75,0,0,1-2.75,2.75h0l-.64,2.61h.8a.18.18,0,0,1,.17.21l-.11.41a.15.15,0,0,1-.16.13h-1.15a.64.64,0,0,1-.2,0h-.14l0,0h-1.32a.17.17,0,0,1-.17-.21l.11-.41a.15.15,0,0,1,.16-.13h.84l.7-2.88a2.71,2.71,0,0,1-1.53-2l-1-.08a11.07,11.07,0,1,1-10.94-12.69Z"/><path class="cls-1" d="M147.12,110.23v.18l1,.08a2.72,2.72,0,0,1,1-1.35l-3.75-11.35-2.53,3.72A11,11,0,0,1,147.12,110.23Z"/><path class="cls-1" d="M137.34,109.62l7.78.63v0a9,9,0,0,0-3.4-7.06Z"/><path class="cls-1" d="M136.05,119.31a9.08,9.08,0,0,0,8.94-7.62l-7.77-.64a1.41,1.41,0,0,1-1.17.62,1.44,1.44,0,1,1,0-2.87h.09l4.39-6.45a9,9,0,0,0-4.48-1.2,9.08,9.08,0,1,0,0,18.15Z"/><path class="cls-1" d="M164.59,102.09a8.72,8.72,0,1,0,1.34-.54l2.85,7.27a1.44,1.44,0,1,1-1.34.53Z"/><path class="cls-3" d="M136.05,121.31A11.08,11.08,0,0,0,147,111.85l1,.08a2.71,2.71,0,0,0,1.53,2l-.7,2.88H148a.15.15,0,0,0-.16.13l-.11.41a.17.17,0,0,0,.17.21h1.32l0,0h.14a.64.64,0,0,0,.2,0h1.15a.15.15,0,0,0,.16-.13L151,117a.18.18,0,0,0-.17-.21H150l.64-2.61h0a2.75,2.75,0,0,0,2.75-2.75,2.69,2.69,0,0,0-.46-1.51l10-11.42.15.39-.13.05.2.51.35-.14.36.92a10.59,10.59,0,1,0,1.34-.54l-.36-.91.36-.14-.2-.5-.13.05-1.49-4,.13,0-.16-.45-.49.18-.53-1.45a.07.07,0,0,1,0-.06.07.07,0,0,1,.06,0H164a1.51,1.51,0,0,0,1.5-1.51v-.07a1.51,1.51,0,0,0-1.5-1.51h-2.51a.79.79,0,0,0-.45-.16h-3a.75.75,0,0,0,0,1.5h3a.74.74,0,0,0,.45-.17H164a.34.34,0,0,1,.33.34v.07a.33.33,0,0,1-.33.33h-1.6a1.24,1.24,0,0,0-1.17,1.67l.53,1.45-.48.18.17.45.13,0,.21.59H146.15v0l-.17-.51.32-.1-.17-.55-.45.14-.55-1.74,3.48-.8a.36.36,0,0,0,.29-.4.38.38,0,0,0-.37-.34h-7.4a.38.38,0,0,0-.18.71l1.53.79a2.83,2.83,0,0,0,1.24.3l.25,0,.59,1.86-.45.14.18.56.31-.1.18.52,0,.17-3.16,4.66a11,11,0,0,0-5.61-1.54,11.08,11.08,0,1,0,0,22.15Zm32.51-9.64a1.43,1.43,0,0,0,.22-2.85l-2.85-7.27a9.2,9.2,0,1,1-1.34.54l2.85,7.26a1.43,1.43,0,0,0,1.12,2.32Zm-32.51-10.51a9,9,0,0,1,4.48,1.2l-4.39,6.45h-.09a1.44,1.44,0,1,0,0,2.87,1.41,1.41,0,0,0,1.17-.62l7.77.64a9.07,9.07,0,1,1-8.94-10.53Zm9.07,9.07v0l-7.78-.63,4.38-6.45A9,9,0,0,1,145.12,110.23ZM162.33,96.9l0,0-10.49,12,.71-2.9s0,0,0,0h.7a.17.17,0,0,0,.17-.13l.1-.41a.17.17,0,0,0-.16-.21h-2.47a.18.18,0,0,0-.16.13l-.1.41a.16.16,0,0,0,.16.21h.55l-.64,2.66h-.21L146.63,96.9Zm-17,.89,3.75,11.35a2.72,2.72,0,0,0-1,1.35l-1-.08v-.18a11,11,0,0,0-4.27-8.72Z"/><path class="cls-4" d="M107.26,128l-29.63-6.59L73.9,140l5.62,55.17a101.65,101.65,0,0,0,10.4,1.46c1.17.1,2.35.18,3.53.24l13.84-69Z"/><path class="cls-3" d="M107.55,98.14l-.25,1.52-.51,3.13-.83,5.14c-.31,1.82-.18,2,.53,2.28.36.12,1.2.38,2.16-1.48l.52-1.69,2.2-7.14.15-.49a1,1,0,0,1,1.29-.68h0a6.08,6.08,0,0,0-1.15-1.48,4.58,4.58,0,0,0-4.56-.2.85.85,0,0,1,.17.25A1,1,0,0,1,107.55,98.14Z"/><path class="cls-3" d="M100.08,95.74a1,1,0,0,1,.11.66l-.28,1.54-2.12,11.29c-.31,1.81-.17,2,.54,2.27.36.12,1.22.39,2.2-1.55l3.74-9.63.74-1.89.4-1a1,1,0,0,1,1.17-.62,4.56,4.56,0,0,0-2.35-1.92,4.94,4.94,0,0,0-4.4.53.91.91,0,0,1,.11.16A1,1,0,0,1,100.08,95.74Z"/><path class="cls-3" d="M107.29,127.85l5.1-24.27-.51,1.65-1.28,4.19a1.11,1.11,0,0,1-.07.16,8.05,8.05,0,0,1-.52.89,3.68,3.68,0,0,1-3.07,1.87,3.45,3.45,0,0,1-1.08-.17c-2.58-.82-2.17-3.18-1.93-4.59l0-.22.16-1-1.72,4.42c-1.15,2.3-2.55,2.86-3.64,2.86a3.32,3.32,0,0,1-1.07-.18c-2.58-.82-2.18-3.17-1.93-4.58l0-.23.8-4.25-1.16,2.75c-1.14,2.27-2.53,2.83-3.62,2.83a3.63,3.63,0,0,1-1.07-.17c-2.58-.83-2.18-3.18-1.94-4.59l0-.22,1.31-7.12.45-2.45.21-1.17a1,1,0,0,1,.17-.39,9.08,9.08,0,0,1-.75-3.29,65.11,65.11,0,0,1,.76-10c.11-1,.22-1.89.3-2.66,0,0,0-.72,0-1.58,0-.32,0-.67,0-1A4.78,4.78,0,0,0,91,73.86c-.28-.59-1.52-.46-2.4,1.46a7.62,7.62,0,0,0-.36,1,.5.5,0,0,0,0,.13c-.39,1.36-.7,2.73-1,4.11-1.49,7.26-1.91,14.62-4.81,21.41a1.61,1.61,0,0,1-2.39.68,11.36,11.36,0,0,1-2.28-2,38.38,38.38,0,0,0-7-6.93c-.44-.33-1-.63-1.5-.34,0,0-2.19-.7-.07,3.68,2.52,5.23,9.08,15,8.39,24.32h.07L107.26,128Z"/><path class="cls-3" d="M92.85,94.63l-.5,2.7-1.51,8.24c-.31,1.81-.18,2.05.53,2.27.37.12,1.23.4,2.2-1.55l3.79-9,.72-1.71a1,1,0,0,1,.66-.57,1.06,1.06,0,0,1,.53,0,5.09,5.09,0,0,0-3-2,4.76,4.76,0,0,0-3.64.75h0A1,1,0,0,1,92.85,94.63Z"/><path class="cls-5" d="M90.61,95.43l-.45,2.45L88.85,105l0,.22c-.24,1.41-.64,3.76,1.94,4.59a3.63,3.63,0,0,0,1.07.17c1.09,0,2.48-.56,3.62-2.83l1.16-2.75-.8,4.25,0,.23c-.25,1.41-.65,3.76,1.93,4.58a3.32,3.32,0,0,0,1.07.18c1.09,0,2.49-.56,3.64-2.86l1.72-4.42-.16,1,0,.22c-.24,1.41-.65,3.77,1.93,4.59a3.45,3.45,0,0,0,1.08.17,3.68,3.68,0,0,0,3.07-1.87,8.05,8.05,0,0,0,.52-.89,1.11,1.11,0,0,0,.07-.16l1.28-4.19.51-1.65,1.1-3.57a1,1,0,0,0-.66-1.27h0a1,1,0,0,0-1.29.68l-.15.49-2.2,7.14-.52,1.69c-1,1.86-1.8,1.6-2.16,1.48-.71-.23-.84-.46-.53-2.28l.83-5.14.51-3.13.25-1.52a1,1,0,0,0-.26-.83.85.85,0,0,0-.17-.25,1.18,1.18,0,0,0-.37-.26l-.17,0a1,1,0,0,0-1.17.62l-.4,1-.74,1.89L100.53,110c-1,1.94-1.84,1.67-2.2,1.55-.71-.22-.85-.46-.54-2.27l2.12-11.29.28-1.54a1,1,0,0,0-.11-.66,1,1,0,0,0-.14-.2.91.91,0,0,0-.11-.16,1,1,0,0,0-.4-.34c-.05,0-.11,0-.16,0a1.06,1.06,0,0,0-.53,0,1,1,0,0,0-.66.57l-.72,1.71-3.79,9c-1,1.95-1.83,1.67-2.2,1.55-.71-.22-.84-.46-.53-2.27l1.51-8.24.5-2.7a1,1,0,0,0-.24-.84h0a1.05,1.05,0,0,0-.58-.35,1,1,0,0,0-1,.44,1,1,0,0,0-.17.39Z"/><path class="cls-4" d="M22.08,135.53,20.18,132l5.15-4.29-8.14,6.79-1.77-6.77-1.16-4.45-3.91-15h0v0h-.07l-10-2.66a98,98,0,0,0,19.07,51.51l3.18-19A4.1,4.1,0,0,0,22.08,135.53Z"/><path class="cls-4" d="M70.48,136a17.66,17.66,0,0,0-10-14.17l-20-5.43h0l-7.31,18.38-2.57-2.34-1.75,3.08a4.07,4.07,0,0,0-.51,2.44l3.36,32.89a98.6,98.6,0,0,0,32.09,19.84q3.08,1.17,6.26,2.13t6.44,1.71L71.9,150Z"/><path class="cls-3" d="M40.32,116.35c-1.25-.48-14.31-5.56-17.53-8.35l-.05-.06a16.09,16.09,0,0,0,17.63,0A15.24,15.24,0,0,0,46,96.27l.2-21.5a15.29,15.29,0,0,0-.2-2.52l-1.31.32-.18.05c-.43.09-.88.19-1.33.27l-.25,0-1.37.23-.23,0c-.47.07-1,.14-1.43.19h-.1l-1.4.12h-.16c-.45,0-.9,0-1.34,0h-.23c-.43,0-.84,0-1.24,0h-.2c-.41,0-.79-.07-1.15-.12h0l0,0a8.46,8.46,0,0,1-1.12-.24,6.46,6.46,0,0,0-2.58-.32,5.43,5.43,0,0,0-3,1.09l-.09.07a2.09,2.09,0,0,0-.2.22,3,3,0,0,0-.42.52l-.09.13a4.26,4.26,0,0,0-.35.71l-.06.18c-.08.21-.14.43-.2.65a1.21,1.21,0,0,1-.05.18c-.06.27-.12.54-.17.82s-.07.38-.1.57l-.09.45c-.05.28-.11.57-.18.85a.3.3,0,0,1,0,.1c-.06.24-.13.48-.21.71L25,80.3a5.23,5.23,0,0,1-.35.76h0a7.13,7.13,0,1,0-7.09,12.37h0a7.56,7.56,0,0,1-.34.7c-.07.13-.15.24-.23.36s-.27.43-.42.64-.22.26-.33.39-.29.35-.44.51-.28.26-.42.39-.3.28-.46.41-.32.24-.48.36-.31.23-.48.34-.36.21-.54.31-.33.19-.49.27l-.59.26-.51.2-.62.19-.31.1-.36.08a.53.53,0,0,0-.12,0l0,9.3h0l4.61,6h0l10.36,13.43,15.1-11.3Zm4.39-31.54a1.39,1.39,0,0,1,0,2.78A1.39,1.39,0,0,1,44.71,84.81ZM37.36,92.2l1.62.09c0-2.41,0-4.83,0-7.24a1.39,1.39,0,0,1,2.78,0l0,8.71a1.42,1.42,0,0,1-1.39,1.39l-3-.18C35.59,94.87,35.58,92.09,37.36,92.2Zm-3.63,3.18a3,3,0,0,0,1.71,1.85,1.42,1.42,0,0,1,1,1.7,1.41,1.41,0,0,1-1.71,1,5.84,5.84,0,0,1-3.65-3.79C30.51,94.4,33.2,93.68,33.73,95.38Zm-4.17-10a1.4,1.4,0,0,1,1.71-1l.23.07a1.39,1.39,0,0,1-.74,2.67l-.23-.07A1.41,1.41,0,0,1,29.56,85.38Z"/><polygon class="cls-4" points="10.36 108.28 14.97 114.26 14.97 114.26 10.36 108.28"/><path class="cls-6" d="M22.74,107.94l.05.06c3.22,2.79,16.28,7.87,17.53,8.35l.11,0h0c0-.06,0-1.25,0-2.92l-.06-5.57A16.09,16.09,0,0,1,22.74,107.94Z"/><path class="cls-5" d="M30.53,87.08l.23.07a1.39,1.39,0,0,0,.74-2.67l-.23-.07a1.39,1.39,0,1,0-.74,2.67Z"/><path class="cls-5" d="M37.36,95l3,.18a1.42,1.42,0,0,0,1.39-1.39l0-8.71a1.39,1.39,0,0,0-2.78,0c0,2.41,0,4.83,0,7.24l-1.62-.09C35.58,92.09,35.59,94.87,37.36,95Z"/><path class="cls-5" d="M44.71,87.59a1.39,1.39,0,0,0,0-2.78A1.39,1.39,0,0,0,44.71,87.59Z"/><path class="cls-5" d="M31.05,96.11A5.84,5.84,0,0,0,34.7,99.9a1.41,1.41,0,0,0,1.71-1,1.42,1.42,0,0,0-1-1.7,3,3,0,0,1-1.71-1.85C33.2,93.68,30.51,94.4,31.05,96.11Z"/><path class="cls-7" d="M24.6,81.06A5.23,5.23,0,0,0,25,80.3"/><path class="cls-7" d="M26.05,75.76l.06-.18"/><path class="cls-7" d="M44.66,72.57,46,72.25"/><path class="cls-7" d="M26.46,74.87l.09-.13"/><path class="cls-7" d="M25.85,76.41a1.21,1.21,0,0,1-.05.18"/><path class="cls-7" d="M12.88,98.11c.16-.08.33-.17.49-.27"/><path class="cls-7" d="M11.78,98.57l.51-.2"/><path class="cls-7" d="M25.53,78c0-.19.06-.38.1-.57"/><path class="cls-7" d="M15.33,96.42c-.15.14-.3.28-.46.41"/><path class="cls-7" d="M15.75,96c.15-.16.29-.34.44-.51"/><path class="cls-7" d="M25,80.09c.08-.23.15-.47.21-.71"/><path class="cls-7" d="M16.52,95.13c.15-.21.29-.43.42-.64"/><path class="cls-7" d="M25.26,79.28c.07-.28.13-.57.18-.85"/><path class="cls-7" d="M34.05,73.42c.36,0,.74.09,1.15.12"/><path class="cls-7" d="M39.87,73.39c.47,0,1-.12,1.43-.19"/><path class="cls-7" d="M41.53,73.17l1.37-.23"/><path class="cls-7" d="M38.37,73.52l1.4-.12"/><path class="cls-7" d="M43.15,72.89c.45-.08.9-.18,1.33-.27"/><path class="cls-7" d="M14.39,97.19c-.16.12-.31.23-.48.34"/><path class="cls-7" d="M36.87,73.58c.44,0,.89,0,1.34,0"/><path class="cls-8" d="M11.16,98.76l.62-.19.51-.2.59-.26c.16-.08.33-.17.49-.27s.37-.2.54-.31.32-.22.48-.34.33-.23.48-.36.31-.27.46-.41.29-.25.42-.39.29-.34.44-.51.23-.26.33-.39.29-.43.42-.64.16-.23.23-.36a7.56,7.56,0,0,0,.34-.7h0A7.13,7.13,0,1,1,24.6,81.06,5.23,5.23,0,0,0,25,80.3l.08-.21c.08-.23.15-.47.21-.71a.3.3,0,0,0,0-.1c.07-.28.13-.57.18-.85l.09-.45c0-.19.06-.38.1-.57s.11-.55.17-.82a1.21,1.21,0,0,0,.05-.18c.06-.22.12-.44.2-.65l.06-.18a4.26,4.26,0,0,1,.35-.71l.09-.13a3,3,0,0,1,.42-.52,2.09,2.09,0,0,1,.2-.22l.09-.07a5.43,5.43,0,0,1,3-1.09,6.46,6.46,0,0,1,2.58.32A8.46,8.46,0,0,0,34,73.4l.09,0c.36,0,.74.09,1.15.12h.2c.4,0,.81,0,1.24,0h.23c.44,0,.89,0,1.34,0h.16l1.4-.12h.1c.47,0,1-.12,1.43-.19l.23,0,1.37-.23.25,0c.45-.08.9-.18,1.33-.27l.18-.05L46,72.25h0c-1.31-8-8.67-15.72-17.57-15.73a17.42,17.42,0,0,0-12.75,5.95,19,19,0,0,0-2,2.46A17.15,17.15,0,0,0,10.34,75V99l.15,0,.36-.08Z"/><path class="cls-7" d="M35.4,73.55c.4,0,.81,0,1.24,0"/><line class="cls-9" x1="24.6" y1="81.06" x2="24.6" y2="81.06"/><polygon class="cls-2" points="33.12 134.77 40.43 116.39 25.33 127.69 30.55 132.43 33.12 134.77"/><path class="cls-6" d="M28.8,135.51l1.75-3.08-5.22-4.74L20.18,132l1.9,3.55a4.1,4.1,0,0,1,.43,2.62l-3.18,19a99.12,99.12,0,0,0,12.32,13.73L28.29,138A4.07,4.07,0,0,1,28.8,135.51Z"/><line class="cls-10" x1="25.33" y1="127.69" x2="30.55" y2="132.43"/><path class="cls-11" d="M93.45,196.87c1.67.09,3.36.13,5,.13"/><path class="cls-11" d="M93.45,196.87c-1.18-.06-2.36-.14-3.53-.24"/><path class="cls-2" d="M78.31,61l-1.25,1H93.75a3.35,3.35,0,0,1,.19-1Z"/><path class="cls-2" d="M100.52,62h32.69V61h-32l-.77.56A3.29,3.29,0,0,1,100.52,62Z"/><polygon class="cls-2" points="75.02 61.03 62.46 61.03 62.46 62.03 73.78 62.03 75.02 61.03"/><polygon class="cls-2" points="133.21 47.74 133.21 46.74 120.81 46.74 119.44 47.74 133.21 47.74"/><path class="cls-2" d="M90.14,47.74H116l1.37-1H62.46v1H86.63a3.37,3.37,0,0,1,1.75-.5A3.41,3.41,0,0,1,90.14,47.74Z"/><rect class="cls-2" x="62.46" y="32.45" width="70.75" height="1"/><path class="cls-5" d="M70,65.1a3.35,3.35,0,0,1,1.21,1.67L77.06,62l1.25-1,8.94-7.19a3.43,3.43,0,0,1-1.68-1.29L75,61l-1.24,1Z"/><path class="cls-5" d="M95.58,59.17,90.8,53a3.37,3.37,0,0,1-1.87,1l5.19,6.65A3.4,3.4,0,0,1,95.58,59.17Z"/><path class="cls-5" d="M99.5,59.75a3.52,3.52,0,0,1,.82,1.28,3.56,3.56,0,0,1,.15.56l.77-.56,18.2-13.29,1.37-1,5.82-4.25a3.37,3.37,0,0,1-1.21-1.66l-8.1,5.91-1.37,1Z"/><path class="cls-8" d="M70,65.1a3.33,3.33,0,0,0-2-.67,3.44,3.44,0,1,0,3.22,2.34A3.35,3.35,0,0,0,70,65.1Z"/><path class="cls-8" d="M87.25,53.84a3.53,3.53,0,0,0,1.13.2,3.31,3.31,0,0,0,.55,0,3.4,3.4,0,1,0-2.3-6.25,3.39,3.39,0,0,0,.62,6.1Z"/><path class="cls-8" d="M100.32,61a3.52,3.52,0,0,0-.82-1.28A3.45,3.45,0,0,0,93.94,61a3.35,3.35,0,0,0-.19,1,.78.78,0,0,0,0,.16,3.4,3.4,0,0,0,6.8,0c0-.06,0-.11,0-.16a3.29,3.29,0,0,0,0-.44A3.56,3.56,0,0,0,100.32,61Z"/><path class="cls-8" d="M126.63,42.49a3.39,3.39,0,1,0-1.4-2.74,3.5,3.5,0,0,0,.19,1.08A3.37,3.37,0,0,0,126.63,42.49Z"/></svg>
