<?xml version="1.0" encoding="utf-8"?>
<!-- Generator: Adobe Illustrator 22.1.0, SVG Export Plug-In . SVG Version: 6.00 Build 0)  -->
<svg version="1.1" id="Layer_1" xmlns="http://www.w3.org/2000/svg" xmlns:xlink="http://www.w3.org/1999/xlink" x="0px" y="0px"
	 viewBox="0 0 197 197" style="enable-background:new 0 0 197 197;" xml:space="preserve">
<style type="text/css">
	.st0{fill:#FFFFFF;}
	.st1{fill:#D3E2FF;}
	.st2{fill:none;stroke:#FFFFFF;stroke-width:4.2547;stroke-miterlimit:10;}
	.st3{fill:none;stroke:#1C2546;stroke-width:3.1814;stroke-miterlimit:10;}
	.st4{fill:#1C2546;}
	.st5{fill:none;stroke:#5D93FF;stroke-width:3.2634;stroke-linecap:round;stroke-linejoin:round;stroke-miterlimit:10;}
	.st6{fill:none;stroke:#FFFFFF;stroke-width:2.6511;stroke-linecap:round;stroke-linejoin:round;stroke-miterlimit:10;}
	.st7{fill:none;stroke:#5D93FF;stroke-width:3.2634;stroke-linejoin:round;stroke-miterlimit:10;}
	.st8{fill:#1C2546;stroke:#1C2546;stroke-width:3.3808;stroke-linecap:round;stroke-linejoin:round;stroke-miterlimit:10;}
	.st9{fill:#1C2546;stroke:#1C2546;stroke-width:1.6904;stroke-linecap:round;stroke-linejoin:round;stroke-miterlimit:10;}
	.st10{fill:#5D93FF;}
	.st11{fill:none;stroke:#5D93FF;stroke-width:4.3512;stroke-miterlimit:10;}
	.st12{fill:#FFDA17;stroke:#1C2546;stroke-width:4.9842;stroke-miterlimit:10;}
	.st13{fill:#FFDA17;stroke:#1C2546;stroke-width:4.7721;stroke-miterlimit:10;}
	.st14{fill:#71CEBE;}
	.st15{fill:#98B6F2;}
	.st16{fill:#1E2850;}
	.st17{fill:#FEFFF8;}
</style>
<rect class="st0" width="197" height="197"/>
<g>
	<circle class="st1" cx="98.5" cy="98.5" r="98.5"/>
	<g>
		<g>
			<g>
				<g>
					<g>
						<g>
							<g>
								<g>
									<circle class="st2" cx="135.4" cy="144.6" r="22.6"/>
									<circle class="st3" cx="135.4" cy="144.6" r="23.5"/>
								</g>
								<g>
									<circle class="st4" cx="135.4" cy="144.6" r="3.2"/>
								</g>
								<g>
									<polyline class="st5" points="123.7,114.7 124.2,116 135.4,144.6 									"/>
									<path class="st6" d="M118.4,98.5h6.7c1.2,0,2.1,0.9,2.1,2.1v0.2c0,1.2-0.9,2.1-2.1,2.1h-3.6c-1,0-1.7,1-1.4,2l3.6,9.8"/>
									<g>
										<g>
											<circle class="st2" cx="61.9" cy="144.6" r="22.6"/>
											<circle class="st3" cx="61.9" cy="144.6" r="23.5"/>
										</g>
										<polyline class="st5" points="123.1,115 94.9,147.3 83.5,112.8 122.8,112.8 										"/>
										<circle class="st4" cx="61.9" cy="144.6" r="3.2"/>
										<polyline class="st5" points="83.5,112.8 61.9,144.6 94.9,147.3 										"/>
										<line class="st6" x1="82.6" y1="109.9" x2="80.8" y2="104.3"/>
										<line class="st7" x1="83.1" y1="111.6" x2="82.7" y2="110.2"/>
										<line class="st5" x1="94.9" y1="147.3" x2="83.1" y2="111.6"/>
										<line class="st6" x1="91.9" y1="159.9" x2="95" y2="147.4"/>
										<circle class="st4" cx="94.9" cy="147.3" r="6.2"/>
										<line class="st8" x1="118.4" y1="98.5" x2="111.5" y2="98.5"/>
										<path class="st9" d="M90.1,102.2H73.3l3.5,1.8c1.1,0.6,2.4,0.7,3.6,0.4L90.1,102.2z"/>
										<circle class="st10" cx="94.9" cy="147.3" r="2.2"/>
										<line class="st6" x1="94.9" y1="147.3" x2="97.9" y2="134.8"/>
										<g>
											<path class="st4" d="M100.8,135.1h-4.9c-0.2,0-0.4-0.2-0.4-0.5l0.2-0.9c0-0.2,0.2-0.3,0.4-0.3h4.9c0.2,0,0.4,0.2,0.4,0.5
												l-0.2,0.9C101.1,135,101,135.1,100.8,135.1z"/>
										</g>
										<g>
											<path class="st4" d="M100.1,135.1h-4.9c-0.2,0-0.4-0.2-0.4-0.5l0.2-0.9c0-0.2,0.2-0.3,0.4-0.3h4.9c0.2,0,0.4,0.2,0.4,0.5
												l-0.2,0.9C100.4,135,100.3,135.1,100.1,135.1z"/>
										</g>
										<g>
											<path class="st4" d="M94.2,161.1h-4.9c-0.2,0-0.4-0.2-0.4-0.5l0.2-0.9c0-0.2,0.2-0.3,0.4-0.3h4.9c0.2,0,0.4,0.2,0.4,0.5
												l-0.2,0.9C94.6,161,94.4,161.1,94.2,161.1z"/>
										</g>
										<g>
											<path class="st4" d="M95,161.1h-4.9c-0.2,0-0.4-0.2-0.4-0.5l0.2-0.9c0-0.2,0.2-0.3,0.4-0.3h4.9c0.2,0,0.4,0.2,0.4,0.5
												l-0.2,0.9C95.3,161,95.2,161.1,95,161.1z"/>
										</g>
										<g>
											<path class="st4" d="M93.4,161.1h-4.9c-0.2,0-0.4-0.2-0.4-0.5l0.2-0.9c0-0.2,0.2-0.3,0.4-0.3h4.9c0.2,0,0.4,0.2,0.4,0.5
												l-0.2,0.9C93.7,161,93.6,161.1,93.4,161.1z"/>
										</g>
										<line class="st11" x1="121.6" y1="109" x2="125.2" y2="118.6"/>
										<line class="st12" x1="121.3" y1="108.1" x2="121.6" y2="109.1"/>
										<line class="st12" x1="125" y1="118.1" x2="125.5" y2="119.3"/>
										<line class="st13" x1="82.8" y1="110.4" x2="82.4" y2="109.2"/>
									</g>
								</g>
							</g>
						</g>
						<g>
							<path class="st4" d="M123.1,113.3l0.4,1c0.5,1.3,1.8,2,3.1,1.9l-2.4-6.3C123.1,110.6,122.6,112,123.1,113.3z"/>
						</g>
					</g>
				</g>
			</g>
		</g>
	</g>
	<g>
		<g>
			<g>
				<g>
					<g>
						<path class="st0" d="M158.9,83.4h-68c-1.5,0-2.6-1.2-2.6-2.6V44.4c0-1.5,1.2-2.6,2.6-2.6h68c1.5,0,2.6,1.2,2.6,2.6v36.3
							C161.5,82.2,160.3,83.4,158.9,83.4z"/>
						<g>
							<path class="st14" d="M119.8,56.7"/>
						</g>
					</g>
				</g>
			</g>
		</g>
		<g>
			<path class="st10" d="M96.1,68.5c0.2-2,1.7-4.5,3.1-5.9c0.8-0.7,1.6-1.3,2.3-2.1c1.1-1.4,1.4-2.6,1.9-4c-1.6-0.3-2.8-1.7-2.8-3.4
				c0-1.9,1.6-3.5,3.5-3.5c1.6,0,3,1.1,3.4,2.6c0.9-0.4,1.9-0.6,2.8-0.6c2.2,0.2,4,0.7,5.7,2.1c1.3,1.1,2.5,2.6,2.7,4.3
				c0.1,0.8,0,1.7,0,2.5c0.1,1.1,0.6,2.2,0.9,3.3c0.3,1,0.3,2.4-0.3,3.3l0,0l0.9,4.3l2.3,0.3c1.8-2.6,2.8-5.7,2.8-9.1
				c0-8.9-7.2-16.1-16.1-16.1c-8.9,0-16.1,7.2-16.1,16.1c0,2,0.4,4,1.1,5.8C94.8,68.4,95.5,68.4,96.1,68.5z"/>
			<path class="st4" d="M104.3,69.4c2.5-0.7,2.7-3.6,2.7-3.6c0.1-0.5,0.2-1,0.3-1.5c-0.8-0.3-1.4-1-1.5-1.9c-0.1-1.2,0.8-2.3,2-2.5
				c0.2,0,0.4,0,0.6,0c0.4-0.9,0.8-1.8,1.6-2.4c1.3-1.1,4.6,0.1,6.6,0.3l-0.4,2.8c0.2,0.2,0.2,0.5-0.1,0.6l-0.5,3.7
				c-0.3,1.7-1.3,2.9-2.7,3.8l-0.3,1.6l7.6,0.9l-0.9-4.3l0,0c0.6-0.9,0.5-2.2,0.3-3.3c-0.3-1.1-0.8-2.2-0.9-3.3
				c-0.1-0.8,0.1-1.7,0-2.5c-0.2-1.7-1.4-3.2-2.7-4.3c-1.7-1.4-3.5-1.9-5.7-2.1c-0.9-0.1-1.9,0.2-2.8,0.6c-0.4-1.5-1.7-2.6-3.4-2.6
				c-1.9,0-3.5,1.6-3.5,3.5c0,1.7,1.2,3.1,2.8,3.4c-0.6,1.3-0.8,2.6-1.9,4c-0.6,0.8-1.5,1.4-2.3,2.1c-1.5,1.4-2.9,3.9-3.1,5.9
				C99,68.8,102.1,69.2,104.3,69.4L104.3,69.4z"/>
			<path class="st1" d="M112.7,70.5l-0.2,1.1l0,0l0,0.1c-0.4,2.3-2.5,3.9-4.8,3.5c-2.3-0.4-3.9-2.5-3.5-4.8l0.1-1
				c-2.2-0.3-5.3-0.6-8.2-0.9c-0.7-0.1-1.3-0.1-2-0.2c2.3,6,8.2,10.3,15.1,10.3c5.5,0,10.4-2.8,13.3-7l-2.3-0.3L112.7,70.5z"/>
			<path class="st15" d="M110.1,69.5c1.8,0.1,2.9-0.5,2.9-0.5c1.4-0.9,2.5-2.1,2.7-3.8l0.5-3.7c0,0-0.1,0-0.2,0
				c-0.5,0-0.5-0.8,0-0.8c0.1,0,0.2,0,0.3,0.1l0.4-2.8c-2-0.2-5.3-1.5-6.6-0.3c-0.8,0.6-1.2,1.5-1.6,2.4c-0.2,0-0.4,0-0.6,0
				c-1.2,0.1-2.1,1.2-2,2.5c0.1,0.9,0.7,1.6,1.5,1.9c-0.1,0.5-0.2,1-0.3,1.5c0,0-0.3,2.8-2.7,3.6l0,0.1l-0.1,1
				c-0.4,2.3,1.2,4.4,3.5,4.8c2.3,0.4,4.4-1.2,4.8-3.5l0-0.1L110.1,69.5z M114.2,61.2c0.1-0.5,0.8-0.5,0.8,0
				c-0.1,0.7-0.1,1.4-0.2,2.1c-0.1,0.5-0.8,0.5-0.8,0C114.1,62.5,114.1,61.8,114.2,61.2z M113.3,63.9c0.1,0.3,0.3,0.5,0.6,0.6
				c0.4,0.2,0,0.9-0.4,0.7c-0.4-0.2-0.8-0.6-0.9-1.1C112.3,63.6,113.1,63.4,113.3,63.9z M112.1,60.2c0.6,0,0.6,0.9,0,0.9
				C111.5,61.2,111.5,60.2,112.1,60.2z"/>
			<path class="st16" d="M114.8,63.2c0.1-0.7,0.1-1.4,0.2-2.1c0.1-0.5-0.7-0.5-0.8,0c-0.1,0.7-0.1,1.4-0.2,2.1
				C113.9,63.7,114.7,63.7,114.8,63.2z"/>
			<path class="st16" d="M112.5,64.1c0.2,0.5,0.5,0.9,0.9,1.1c0.4,0.2,0.8-0.4,0.4-0.7c-0.3-0.1-0.5-0.4-0.6-0.6
				C113.1,63.4,112.3,63.6,112.5,64.1z"/>
			<path class="st16" d="M112.1,61.2c0.6,0,0.6-0.9,0-0.9C111.5,60.2,111.5,61.2,112.1,61.2z"/>
			<path class="st16" d="M116.1,61.4c0.1,0,0.1,0,0.2,0c0.2-0.1,0.3-0.5,0.1-0.6c-0.1-0.1-0.1-0.1-0.3-0.1
				C115.6,60.6,115.6,61.4,116.1,61.4z"/>
			<path class="st16" d="M110.1,69.5l2.4,2.1l0,0l0.2-1.1l0.3-1.6C113,68.9,111.9,69.5,110.1,69.5z"/>
		</g>
		<path class="st1" d="M151.8,60.5h-7.1h-6.6h-7.1c-0.5,0-1,0.4-1,1v2.3c0,0.5,0.4,1,1,1h7.1h6.6h7.1c0.5,0,1-0.4,1-1v-2.3
			C152.8,60.9,152.4,60.5,151.8,60.5z"/>
		<path class="st1" d="M131.1,71.7h17.1c0.5,0,1-0.4,1-1v-2.3c0-0.5-0.4-1-1-1h-17.1c-0.5,0-1,0.4-1,1v2.3
			C130.2,71.3,130.6,71.7,131.1,71.7z"/>
		<path class="st1" d="M156.2,53.4h-2.7h-19.7h-2.7c-0.5,0-1,0.4-1,1v2.3c0,0.5,0.4,1,1,1h2.7h19.7h2.7c0.5,0,1-0.4,1-1v-2.3
			C157.2,53.9,156.8,53.4,156.2,53.4z"/>
	</g>
	<g>
		<path class="st10" d="M75.6,56.9C74.5,72,62.7,87.2,58,92.6c-1,1.1-2.7,1.1-3.6-0.1c-4.8-6-17.8-23.4-17.8-37.8
			c0-11.2,9.5-20.3,20.9-19.5C68.5,35.9,76.4,45.9,75.6,56.9z"/>
		<circle class="st17" cx="55.9" cy="54.4" r="8"/>
	</g>
</g>
</svg>
