<?xml version="1.0" encoding="utf-8"?>
<!-- Generator: Adobe Illustrator 22.1.0, SVG Export Plug-In . SVG Version: 6.00 Build 0)  -->
<svg version="1.1" id="Layer_1" xmlns="http://www.w3.org/2000/svg" xmlns:xlink="http://www.w3.org/1999/xlink" x="0px" y="0px"
	 viewBox="0 0 197 197" style="enable-background:new 0 0 197 197;" xml:space="preserve">
<style type="text/css">
	.st0{fill:#FFFFFF;}
	.st1{fill:#D3E2FF;}
	.st2{fill:#71CEBE;}
	.st3{fill:#5D93FF;}
	.st4{fill:none;stroke:#FFFFFF;stroke-width:2.771;stroke-miterlimit:10;}
	.st5{fill:none;stroke:#1C2546;stroke-width:2.0719;stroke-miterlimit:10;}
	.st6{fill:#1C2546;}
	.st7{fill:none;stroke:#D3E2FF;stroke-width:2.1254;stroke-linecap:round;stroke-linejoin:round;stroke-miterlimit:10;}
	.st8{fill:none;stroke:#FFFFFF;stroke-width:1.7266;stroke-linecap:round;stroke-linejoin:round;stroke-miterlimit:10;}
	.st9{fill:#D3E2FF;stroke:#D3E2FF;stroke-width:2.1254;stroke-linejoin:round;stroke-miterlimit:10;}
	.st10{fill:#1C2546;stroke:#1C2546;stroke-width:2.2018;stroke-linecap:round;stroke-linejoin:round;stroke-miterlimit:10;}
	.st11{fill:#1C2546;stroke:#1C2546;stroke-width:1.1009;stroke-linecap:round;stroke-linejoin:round;stroke-miterlimit:10;}
	.st12{fill:#5D93FF;stroke:#D3E2FF;stroke-width:2.8338;stroke-miterlimit:10;}
	.st13{fill:#FFDA17;stroke:#1C2546;stroke-width:3.246;stroke-miterlimit:10;}
	.st14{fill:#FFDA17;stroke:#1C2546;stroke-width:3.1079;stroke-miterlimit:10;}
	.st15{fill:#3A5A92;}
</style>
<rect class="st0" width="197" height="197"/>
<g>
	<circle class="st1" cx="98.5" cy="98.5" r="98.5"/>
	<g>
		<g>
			<g>
				<g>
					<path class="st0" d="M140.2,149.6H56.4c-1.3,0-2.4-1.1-2.4-2.4V50.2c0-1.3,1.1-2.4,2.4-2.4h83.8c1.3,0,2.4,1.1,2.4,2.4v96.9
						C142.7,148.5,141.6,149.6,140.2,149.6z"/>
					<path class="st1" d="M137.4,56.8h-5.6c-0.5,0-0.9-0.4-0.9-0.9v-2.1c0-0.5,0.4-0.9,0.9-0.9h5.6c0.5,0,0.9,0.4,0.9,0.9v2.1
						C138.2,56.4,137.8,56.8,137.4,56.8z"/>
					<g>
						<g>
							<circle class="st1" cx="64.5" cy="58.1" r="6.7"/>
							<circle class="st0" cx="136.5" cy="54.9" r="0.7"/>
							<circle class="st0" cx="134.5" cy="54.9" r="0.7"/>
							<circle class="st0" cx="132.5" cy="54.8" r="0.7"/>
						</g>
						<path class="st2" d="M83,61.5"/>
					</g>
					<path class="st1" d="M75.6,63.2h29.8c0.5,0,0.9-0.4,0.9-0.9v-2.1c0-0.5-0.4-0.9-0.9-0.9H75.6c-0.5,0-0.9,0.4-0.9,0.9v2.1
						C74.7,62.9,75.1,63.2,75.6,63.2z"/>
					<path class="st1" d="M58.7,131.6H93c0.5,0,0.9-0.4,0.9-0.9v-2.1c0-0.5-0.4-0.9-0.9-0.9H58.7c-0.5,0-0.9,0.4-0.9,0.9v2.1
						C57.8,131.2,58.2,131.6,58.7,131.6z"/>
					<path class="st1" d="M58.7,138h41.4c0.5,0,0.9-0.4,0.9-0.9V135c0-0.5-0.4-0.9-0.9-0.9H58.7c-0.5,0-0.9,0.4-0.9,0.9v2.1
						C57.8,137.6,58.2,138,58.7,138z"/>
					<path class="st1" d="M58.7,144.5h55.7c0.5,0,0.9-0.4,0.9-0.9v-2.1c0-0.5-0.4-0.9-0.9-0.9H58.7c-0.5,0-0.9,0.4-0.9,0.9v2.1
						C57.8,144.1,58.2,144.5,58.7,144.5z"/>
					<path class="st1" d="M75.6,56.7h37.9c0.5,0,0.9-0.4,0.9-0.9v-2.1c0-0.5-0.4-0.9-0.9-0.9H75.6c-0.5,0-0.9,0.4-0.9,0.9v2.1
						C74.7,56.4,75.1,56.7,75.6,56.7z"/>
					<path class="st1" d="M136.9,134.7h-14.6c-0.7,0-1.3-0.6-1.3-1.3v-3.8c0-0.7,0.6-1.3,1.3-1.3h14.6c0.7,0,1.3,0.6,1.3,1.3v3.8
						C138.2,134.1,137.6,134.7,136.9,134.7z"/>
					<g>
						<g>
							<path class="st3" d="M138.9,123.1H57.3c-0.8,0-1.5-0.7-1.5-1.5V69.9c0-0.8,0.7-1.5,1.5-1.5h81.6c0.8,0,1.5,0.7,1.5,1.5v51.8
								C140.4,122.5,139.7,123.1,138.9,123.1z"/>
							<g>
								<g>
									<circle class="st4" cx="122.3" cy="104" r="14.8"/>
									<circle class="st5" cx="122.3" cy="104" r="15.3"/>
								</g>
								<g>
									<circle class="st6" cx="122.3" cy="104" r="2.1"/>
								</g>
								<g>
									<polyline class="st7" points="114.7,84.5 115,85.3 122.3,104 									"/>
									<path class="st8" d="M111.3,74h4.3c0.7,0,1.4,0.6,1.4,1.4v0.1c0,0.7-0.6,1.4-1.4,1.4h-2.4c-0.7,0-1.1,0.7-0.9,1.3l2.4,6.4"
										/>
									<g>
										<g>
											<circle class="st4" cx="74.5" cy="104" r="14.8"/>
											<circle class="st5" cx="74.5" cy="104" r="15.3"/>
										</g>
										<polyline class="st7" points="114.4,84.7 96,105.7 88.5,83.3 114.1,83.3 										"/>
										<circle class="st6" cx="74.5" cy="104" r="2.1"/>
										<polyline class="st7" points="88.5,83.3 74.5,104 96,105.7 										"/>
										<line class="st8" x1="88" y1="81.4" x2="86.8" y2="77.7"/>
										<line class="st9" x1="88.3" y1="82.5" x2="88" y2="81.6"/>
										<line class="st7" x1="96" y1="105.7" x2="88.3" y2="82.5"/>
										<line class="st8" x1="94" y1="113.9" x2="96" y2="105.8"/>
										<circle class="st6" cx="96" cy="105.7" r="4"/>
										<line class="st10" x1="111.3" y1="74" x2="106.8" y2="74"/>
										<path class="st11" d="M92.8,76.4H81.9l2.3,1.2c0.7,0.4,1.5,0.5,2.3,0.3L92.8,76.4z"/>
										<circle class="st1" cx="96" cy="105.7" r="1.5"/>
										<line class="st8" x1="96" y1="105.7" x2="97.9" y2="97.6"/>
										<g>
											<path class="st6" d="M99.5,97.8h-3.2c-0.2,0-0.3-0.2-0.2-0.3l0.2-0.6c0-0.1,0.1-0.2,0.2-0.2h3.2c0.2,0,0.3,0.2,0.2,0.3
												l-0.2,0.6C99.7,97.7,99.6,97.8,99.5,97.8z"/>
										</g>
										<g>
											<path class="st6" d="M95.5,114.7h-3.2c-0.2,0-0.3-0.2-0.2-0.3l0.2-0.6c0-0.1,0.1-0.2,0.2-0.2h3.2c0.2,0,0.3,0.2,0.2,0.3
												l-0.2,0.6C95.8,114.7,95.7,114.7,95.5,114.7z"/>
										</g>
										<line class="st12" x1="113.4" y1="80.8" x2="115.7" y2="87"/>
										<line class="st13" x1="113.1" y1="80.2" x2="113.4" y2="80.9"/>
										<line class="st13" x1="115.6" y1="86.8" x2="115.9" y2="87.5"/>
										<line class="st14" x1="88.1" y1="81.7" x2="87.8" y2="80.9"/>
									</g>
								</g>
							</g>
						</g>
						<g>
							<path class="st6" d="M114.3,83.6l0.2,0.6c0.3,0.8,1.2,1.3,2,1.2l-1.5-4.1C114.3,81.8,114,82.8,114.3,83.6z"/>
						</g>
						<g>
							<path class="st1" d="M69.2,79.6h-8.6c0,0,0.6-1.6,3.7-2.1c3-0.4,4.4-1.6,7.1-1.6s3.6,1.7,3.6,3v0.6H69.2z"/>
							<g>
								<defs>
									<path id="SVGID_1_" d="M69.2,79.6h-8.6c0,0,0.6-1.6,3.7-2.1c3-0.4,4.4-1.6,7.1-1.6s3.6,1.7,3.6,3v0.6H69.2z"/>
								</defs>
								<clipPath id="SVGID_2_">
									<use xlink:href="#SVGID_1_"  style="overflow:visible;"/>
								</clipPath>
							</g>
							<path class="st0" d="M65.5,80.4h13.3c0,0-0.6-2.3-2.9-2.3c-2.2,0-2.1,0.6-4.6,0.6c-2.8,0-1.5,0-1.5,0S66.5,78.5,65.5,80.4z"
								/>
						</g>
						<g>
							<defs>
								<path id="SVGID_3_" d="M66.3,80.1H78c0,0-0.5-2-2.5-2s-1.9,0.5-4,0.5c-2.5,0-1.3,0-1.3,0S67.2,78.4,66.3,80.1z"/>
							</defs>
							<clipPath id="SVGID_4_">
								<use xlink:href="#SVGID_3_"  style="overflow:visible;"/>
							</clipPath>
						</g>
					</g>
				</g>
			</g>
		</g>
	</g>
	<g>
		<path class="st15" d="M108.9,12.8H87.3c-0.7,0-1.3,0.6-1.3,1.3v21.7c0,0.7,0.6,1.3,1.3,1.3h21.7c0.7,0,1.3-0.6,1.3-1.3V14.2
			C110.3,13.4,109.7,12.8,108.9,12.8z"/>
		<path class="st0" d="M105.9,27.8l0.5-3.7h-3.6v-2.3c0-1.1,0.3-1.8,1.8-1.8l1.9,0v-3.3c-0.3,0-1.5-0.1-2.8-0.1
			c-2.8,0-4.7,1.7-4.7,4.9v2.7h-3.2v3.7h3.2v9.4h3.8v-9.4H105.9z"/>
	</g>
	<g>
		<path class="st15" d="M98,161.2c3.3,0,3.7,0,5,0.1c1.2,0.1,1.9,0.3,2.3,0.4c0.6,0.2,1,0.5,1.4,0.9c0.4,0.4,0.7,0.8,0.9,1.4
			c0.2,0.4,0.4,1.1,0.4,2.3c0.1,1.3,0.1,1.7,0.1,5s0,3.7-0.1,5c-0.1,1.2-0.3,1.9-0.4,2.3c-0.2,0.6-0.5,1-0.9,1.4
			c-0.4,0.4-0.8,0.7-1.4,0.9c-0.4,0.2-1.1,0.4-2.3,0.4c-1.3,0.1-1.7,0.1-5,0.1c-3.3,0-3.7,0-5-0.1c-1.2-0.1-1.9-0.3-2.3-0.4
			c-0.6-0.2-1-0.5-1.4-0.9s-0.7-0.8-0.9-1.4c-0.2-0.4-0.4-1.1-0.4-2.3c-0.1-1.3-0.1-1.7-0.1-5s0-3.7,0.1-5c0.1-1.2,0.3-1.9,0.4-2.3
			c0.2-0.6,0.5-1,0.9-1.4c0.4-0.4,0.8-0.7,1.4-0.9c0.4-0.2,1.1-0.4,2.3-0.4C94.4,161.2,94.8,161.2,98,161.2 M98,159
			c-3.3,0-3.8,0-5.1,0.1c-1.3,0.1-2.2,0.3-3,0.6c-0.8,0.3-1.5,0.7-2.2,1.4c-0.7,0.7-1.1,1.4-1.4,2.2c-0.3,0.8-0.5,1.7-0.6,3
			c-0.1,1.3-0.1,1.7-0.1,5.1s0,3.8,0.1,5.1c0.1,1.3,0.3,2.2,0.6,3c0.3,0.8,0.7,1.5,1.4,2.2c0.7,0.7,1.4,1.1,2.2,1.4
			c0.8,0.3,1.7,0.5,3,0.6c1.3,0.1,1.7,0.1,5.1,0.1s3.8,0,5.1-0.1c1.3-0.1,2.2-0.3,3-0.6c0.8-0.3,1.5-0.7,2.2-1.4s1.1-1.4,1.4-2.2
			c0.3-0.8,0.5-1.7,0.6-3c0.1-1.3,0.1-1.7,0.1-5.1s0-3.8-0.1-5.1c-0.1-1.3-0.3-2.2-0.6-3c-0.3-0.8-0.7-1.5-1.4-2.2s-1.4-1.1-2.2-1.4
			c-0.8-0.3-1.7-0.5-3-0.6C101.8,159,101.4,159,98,159L98,159z"/>
		<path class="st15" d="M98,165c-3.5,0-6.3,2.8-6.3,6.3c0,3.5,2.8,6.3,6.3,6.3c3.5,0,6.3-2.8,6.3-6.3C104.4,167.8,101.5,165,98,165z
			 M98,175.4c-2.3,0-4.1-1.8-4.1-4.1s1.8-4.1,4.1-4.1s4.1,1.8,4.1,4.1S100.3,175.4,98,175.4z"/>
		<circle class="st15" cx="104.6" cy="164.8" r="1.5"/>
	</g>
</g>
</svg>
