<?xml version="1.0" encoding="utf-8"?>
<!-- Generator: Adobe Illustrator 22.1.0, SVG Export Plug-In . SVG Version: 6.00 Build 0)  -->
<svg version="1.1" id="Layer_1" xmlns="http://www.w3.org/2000/svg" xmlns:xlink="http://www.w3.org/1999/xlink" x="0px" y="0px"
	 viewBox="0 0 197 197" style="enable-background:new 0 0 197 197;" xml:space="preserve">
<style type="text/css">
	.st0{fill:#D3E2FF;}
	.st1{fill:none;}
	.st2{fill:#98B6F2;}
	.st3{fill:#5D93FF;}
	.st4{fill:none;stroke:#98B6F2;stroke-width:0;stroke-linecap:round;stroke-linejoin:round;}
</style>
<g>
	<circle class="st0" cx="98.5" cy="98.5" r="98.4"/>
	<g>
		<path class="st1" d="M132.4,6c-1-0.4-2.1-0.7-3.1-1.1v0C130.3,5.2,131.3,5.6,132.4,6z"/>
		<path class="st1" d="M155.7,18.3c-1.4-1-2.7-1.9-4.2-2.8C153,16.4,154.4,17.4,155.7,18.3L155.7,18.3z"/>
		<path class="st1" d="M187.6,56.5L187.6,56.5c-0.2-0.5-0.5-1-0.7-1.5v0C187.2,55.5,187.4,56,187.6,56.5z"/>
		<path class="st1" d="M15.5,45.4c-0.5,0.7-0.9,1.5-1.4,2.2v0C14.6,46.9,15.1,46.1,15.5,45.4z"/>
		<path class="st1" d="M192.6,69.2c-0.2-0.6-0.4-1.3-0.6-1.9v0C192.2,67.9,192.4,68.6,192.6,69.2z"/>
		<path class="st1" d="M132.4,191c0.2-0.1,0.4-0.1,0.6-0.2v0C132.7,190.9,132.6,191,132.4,191z"/>
		<path class="st1" d="M169.7,166.6c0.6-0.6,1.2-1.2,1.8-1.9C170.8,165.4,170.3,166,169.7,166.6L169.7,166.6z"/>
		<path class="st1" d="M147.5,183.9c0.9-0.5,1.7-1,2.6-1.5v0C149.3,182.9,148.4,183.5,147.5,183.9z"/>
		<path class="st1" d="M6.8,62.5c-0.3,0.7-0.5,1.4-0.8,2.1C6.2,63.9,6.5,63.2,6.8,62.5L6.8,62.5z"/>
		<path class="st1" d="M154.4,179.6L154.4,179.6c0.6-0.4,1.1-0.8,1.7-1.2v0C155.5,178.8,154.9,179.2,154.4,179.6z"/>
		<path class="st0" d="M131.2,173.9h-0.5l-1.8,18.3c1.2-0.4,2.3-0.8,3.5-1.2c0.2-0.1,0.4-0.1,0.6-0.2L131.2,173.9z"/>
		<path class="st0" d="M68,173.9l-1.8,17.7c1.4,0.5,2.8,0.9,4.2,1.3l-1.9-19H68z"/>
		<path class="st0" d="M41.6,170.9l0.6,8.4c0.5,0.3,1,0.7,1.4,1l-1.3-6.5L41.6,170.9z"/>
		<path class="st0" d="M100.2,187.6h-2l-0.1,1.1l0.2,8.3c0,0,0.1,0,0.1,0c0.5,0,1.1,0,1.6,0l0.2-7.9L100.2,187.6z"/>
		<path class="st0" d="M5.2,114L4,126.4c1.1,3.9,2.5,7.7,4.1,11.3L5.7,114H5.2z"/>
		<polygon class="st0" points="166.9,47.3 167.5,53.9 170.4,49.7 166.9,44.4 166.9,47.3 		"/>
		<path class="st0" d="M156.5,170.2l-1,3.6l-1.2,5.8c0.6-0.4,1.1-0.8,1.7-1.2L156.5,170.2z"/>
		<path class="st0" d="M161.7,174c0.1-0.1,0.1-0.1,0.2-0.2h-0.2L161.7,174z"/>
		<polygon class="st0" points="31,48.5 30.2,51.6 30.7,53.6 		"/>
		<polygon class="st0" points="42.3,51.7 41.6,49.2 41.9,53.4 		"/>
		<polygon class="st0" points="156.6,47.5 156.6,44.8 153.9,49.6 156.4,53.3 156.6,47.5 		"/>
		<polygon class="st0" points="31,170.2 31,170.2 31,170.2 		"/>
		<path class="st0" d="M35.3,109c-0.1-0.3-0.2-0.6-0.4-0.9c0,0,0,0,0,0v4.5c0,0,0,0,0,0l0.8-1.9c0.1-0.2,0.1-0.5,0-0.8L35.3,109z"/>
		<path class="st0" d="M40.9,109l-0.3,0.8c0,0.1,0,0.1-0.1,0.2c0,0,0,0.1,0,0.1l0,0.1c-0.1,0.2-0.1,0.4,0,0.6l0.4,1
			c0.1,0.2,0.2,0.4,0.3,0.7c0,0,0,0,0,0v-4.1c0,0,0,0,0,0C41.1,108.4,41,108.7,40.9,109z"/>
		<path class="st2" d="M44.4,122.4L44.4,122.4l-0.2-1c-0.1-0.2-0.1-0.5-0.1-0.8v-1.3c0-4.2,0-8.3,0-12.5c0-0.8-0.1-1.6-0.3-2.3
			c-0.2-0.8-0.7-1.4-1.5-1.5c-0.9-0.1-1.7-0.1-2.6-0.2c0,0,0,0,0,0l0,0l-0.2,0c0-0.1,0-0.2,0-0.3c0-0.4,0.2-0.4,0.3-0.4
			c0.5,0,0.6-0.3,0.6-0.7c-0.1-0.8,0-1.5,0.1-2.3c0.2-1-0.1-2-0.7-2.9c-0.8-1-1.9-1.1-2.8-0.2c-0.1,0.1-0.2,0.3-0.4,0.4
			c-0.5,0.5-0.9,1-1.4,1.5c-0.5,0.5-0.8,1-1.1,1.7c-0.2,0.6-0.5,1.2-0.7,1.8c-0.2,0.4-0.1,0.6,0.4,0.6c0.5,0,0.9,0,1.4,0
			c0,0,0,0,0,0c0.4,0,0.8,0,1.2,0c0.5,0,0.6,0.1,0.6,0.6c0,0,0,0.1,0,0.1l-1.3,0c-0.3,0-0.6,0-0.9,0l0,0v0c-0.1,0-0.1,0-0.2,0
			c-1.3,0.1-2,0.8-2.2,2.1c-0.1,0.6-0.2,1.3-0.2,1.9c0,4.2,0,8.4,0,12.7c0,1.6-0.2,3.1-0.7,4.7c-0.2,0.7-0.1,1.5-0.1,2.3
			c0,0.1,0,0.1,0.1,0.2c0,0.1,0.2,0.1,0.2,0c0-0.1,0.1-0.2,0.1-0.3c0,0,0,0,0,0c0.1,0.1,0.2,0.2,0.3,0.3c0,0,0.1,0,0.1-0.1
			c0-0.2-0.1-0.4-0.1-0.6c0,0,0,0,0,0c0.4,0,0.3-0.3,0.2-0.5c0-0.2-0.1-0.4-0.1-0.6c0-0.1,0-0.1,0.1-0.1c0.1,0,0.1,0.1,0.1,0.1
			c0.1,0.6,0.2,1.2,0.2,1.8c-0.2,1.8-0.6,3.6-0.8,5.5c-0.6,3.7-1.2,7.4-1.8,11.1c-0.2,1.1-0.7,2-1.8,2.3c-0.2,0.1-0.3,0.2-0.5,0.3
			c-0.1,0.1-0.3,0.3-0.3,0.5h5.4c0.2-1.1,0.5-2.6,0.6-3.5c0.5-2.6,1-5.1,1.5-7.7c1-5.1,2-10.2,2.9-15.3c0.1-0.3,0.1-0.6,0.2-1
			c0,0,0,0,0,0c0,1.2,0,2.3,0,3.4c0,1.4-0.1,2.8-0.1,4.2c-0.1,3-0.1,6-0.2,9c0,2.1-0.1,4.2-0.1,6.3c0,0.1,0,0.2,0,0.3
			c0,1.2-0.1,3-0.1,4.3h5.6c-0.1-0.2-0.2-0.5-0.3-0.6c-0.2-0.2-0.5-0.4-0.8-0.5c-0.4-0.2-0.6-0.5-0.6-0.9c0-0.5,0-1,0-1.6
			c0.1-2.2,0.3-4.3,0.3-6.5c0.1-2.2,0.1-4.4,0.2-6.6c0-1.9,0.1-3.9,0.1-5.8c0-0.7,0.1-1.3,0.1-2c0,0,0,0,0,0
			c0.2,0.7,0.4,1.4,0.6,2.1c0.2,0.6,0.3,1.3,0.6,1.9c0.1,0.1,0.2,0.1,0.3,0c0-0.1,0-0.1,0-0.2c0-0.3,0-0.6,0-0.9c0,0,0-0.1,0.1-0.1
			c0.1-0.1,0.3-0.1,0.3,0.1c0,0,0,0.1,0,0.1c0,0.3-0.1,0.7-0.1,1c0,0.1,0,0.3-0.1,0.4c0,0.1,0.1,0.1,0.1,0.1
			c0.1-0.1,0.2-0.2,0.3-0.3c0,0,0,0,0,0c-0.1,0.2-0.1,0.4-0.2,0.6c0,0.1,0.1,0.1,0.1,0.1c0.1-0.1,0.2-0.2,0.3-0.2c0,0,0.1,0,0.1,0
			c0.1,0.1,0.1,0.2,0.2,0.3c0,0.1,0.1,0.1,0.1,0c0.1-0.2,0.1-0.3,0.1-0.5c0-0.7-0.1-1.4-0.2-2C44.7,123.5,44.6,123,44.4,122.4z
			 M35.7,110.8l-0.8,1.9c0,0,0,0,0,0v-4.5c0,0,0,0,0,0c0.1,0.3,0.3,0.6,0.4,0.9l0.4,1C35.8,110.3,35.8,110.5,35.7,110.8z
			 M41.3,112.4C41.3,112.4,41.2,112.4,41.3,112.4c-0.2-0.2-0.3-0.4-0.4-0.7l-0.4-1c-0.1-0.2-0.1-0.4,0-0.6l0-0.1c0,0,0-0.1,0-0.1
			c0-0.1,0-0.1,0.1-0.2l0.3-0.8c0.1-0.3,0.2-0.5,0.3-0.8c0,0,0,0,0,0V112.4z"/>
		<path class="st2" d="M45.9,173c0,0,0-0.1,0-0.1L43,162.2c-0.1-0.4-0.3-0.7-0.6-0.9c-0.2-0.2-0.4-0.4-0.8-0.5
			c-1.1-0.4-2.2-0.8-3.3-1.2c-0.2-0.1-0.5-0.3-0.5-0.5c0-0.7-0.2-1.4,0.3-2c0.1-0.1,0.1-0.4,0.1-0.6c-0.1-0.8-0.2-1.7-0.3-2.5
			c0-0.2-0.3-0.4-0.4-0.4c-0.6,0-1-0.4-1.5-0.7c-0.6-0.5-1.2-0.2-1.4,0.5c-0.1,0.2-0.1,0.4-0.1,0.6c-0.1,0.9-0.2,1.8-0.3,2.8
			c0,0.1,0.1,0.3,0.1,0.4c0.2,0.5,0.3,1,0.5,1.5c0.1,0.6-0.2,0.8-0.7,1c-1.1,0.4-2.2,0.8-3.3,1.2c-0.4,0.2-0.7,0.4-1,0.7
			c-0.1,0.1-0.1,0.1-0.1,0.2c0,0-0.1,0.1-0.1,0.1c-0.1,0.1-0.1,0.2-0.1,0.4l0,0c0,0,0,0.1,0,0.1c0,0.1,0,0.2-0.1,0.2l-1.3,4.7
			c1,1,2,2,3,2.9l0,0l0,0c0,0,0.1,0.1,0.1,0.1c1.6,1.5,3.3,3,5,4.4c0.1,0.1,0.2,0.2,0.3,0.3c1.2,1,2.5,2,3.7,2.9
			c0.7,0.5,1.3,1,2,1.4l-0.6-8.4l0.8,2.9l1.3,6.5c1.4,0.9,2.8,1.8,4.2,2.7c0,0,0-0.1,0-0.1L45.9,173z"/>
		<path class="st2" d="M17.2,144.5c-1.1-0.6-2.9-1.3-3.2-3l-3-30.2l0.7,2.6l1.5,7.5c0,0,0,0,0,0c0.1,0.5,0.2,0.9,0.3,1.4
			c0.2,0.9,1.1,3,1.4,2.7c0.2-0.1,0,0,0,0c0.1-0.1,0.2-0.3,0.2-0.4c0-0.2,0-0.3,0.1-0.5c0-0.1,0.2-0.2,0.3-0.3
			c0.1-0.1,0.2,0,0.3,0.1c0.1,0.1,0.2,0.3,0.1,0.4c-0.1,0.2-0.6,0.8-0.8,1.1c-0.1,0.1,0,0.3,0.1,0.3c0.1,0,0.1,0,0.2,0
			c0,0.1,0,0.2-0.1,0.3c0,0.1,0.1,0.2,0.2,0.1c0.2-0.1,0.3-0.2,0.5-0.3c0,0.2-0.1,0.4-0.1,0.6c0,0,0,0.1,0.1,0.1c0.1,0,0.1,0,0.2,0
			c0.2-0.2,0.3-0.4,0.4-0.6c0.6-1.2,0.8-2.6,0.6-3.9c-0.1-0.5-0.2-1.1-0.3-1.6c0,0,0,0,0,0c0-0.1,0-0.1,0-0.2l-1.5-7.6
			c0,0,0-0.1,0-0.1l-2.9-10.7c0-0.1-0.1-0.3-0.2-0.4c-0.2-0.6-0.6-1.2-1.2-1.4c-1.1-0.4-2.2-0.8-3.3-1.2c-0.5-0.2-0.8-1.3-0.4-1.7
			c0.8-0.7,1.1-1.6,1.2-2.7c0.1-1.4-0.7-3-1.8-3.7c-1.4-0.8-3.2-0.3-3.4,1.6c0,0.1,0,0.2-0.1,0.3c-0.8,1.7-0.5,3.2,0.8,4.5
			c0.5,0.5,0.3,1.3-0.3,1.6c-1.1,0.4-2.3,0.8-3.4,1.2c0,0,0,0-0.1,0c0,0.2,0,0.3,0,0.5c0,0.6,0,1.2,0.1,1.8c0.1,1.4,0.2,2.9,0.3,4.3
			c0.1,0.7,0.1,1.3,0.2,2c0,0,0,0,0,0c0.2,1.6,0.4,3.3,0.6,4.9c0.7,4.2,1.6,8.3,2.8,12.3L5.2,114h0.5l2.4,23.6
			c0.7,1.6,1.4,3.2,2.2,4.7c0.2,0.4,0.4,0.7,0.5,1.1c0.5,0.9,1,1.8,1.5,2.7h5.9C18.2,146.2,18.2,145.1,17.2,144.5z"/>
		<path class="st2" d="M8.7,81.8l0.1,1.5v1h9.4c0,0,0-1.1-1.1-1.7c-1.1-0.6-2.9-1.3-3.2-3l-2.7-26.8c-0.1,0.3-0.3,0.6-0.4,0.8
			c-1.1,2.1-2.1,4.3-3,6.5c-0.3,0.8-0.7,1.6-1,2.4v0L8.7,81.8z"/>
		<path class="st2" d="M13.3,60.7c0.1,0.3,0.1,0.7,0.2,1c0.2,0.9,1.1,3,1.4,2.7c0,0,0,0,0,0c0,0,0,0,0,0c0.1-0.1,0.2-0.3,0.2-0.4
			c0-0.2,0-0.3,0.1-0.5c0-0.1,0.2-0.2,0.3-0.3c0.1-0.1,0.2,0,0.3,0.1c0.1,0.1,0.2,0.3,0.1,0.4c-0.1,0.2-0.6,0.8-0.8,1.1
			c-0.1,0.1,0,0.3,0.1,0.3c0.1,0,0.1,0,0.2,0c0,0.1,0,0.2-0.1,0.3c0,0.1,0.1,0.2,0.2,0.1c0.2-0.1,0.3-0.2,0.5-0.3
			c0,0.2-0.1,0.4-0.1,0.6c0,0,0,0.1,0.1,0.1c0.1,0,0.1,0,0.2,0c0.2-0.2,0.3-0.4,0.4-0.6c0.6-1.2,0.8-2.6,0.6-3.9
			C17,61,17,60.6,16.9,60.1c0-0.1,0-0.1,0-0.2l-1.7-8.6c0,0,0-0.1,0-0.1l-1-3.6v0c-0.4,0.6-0.7,1.2-1.1,1.8c-0.5,0.9-1,1.7-1.5,2.6
			L13.3,60.7C13.3,60.7,13.3,60.7,13.3,60.7z"/>
		<path class="st2" d="M2.1,83.3l0.1-1.5l0,0L3,74.2c-0.4,1.5-0.7,3-1,4.5c-0.1,0.7-0.3,1.4-0.4,2.1c0,0.1,0,0.2-0.1,0.3
			c0,0.2-0.1,0.4-0.1,0.7c-0.1,0.9-0.3,1.7-0.4,2.6h1.1V83.3z"/>
		<path class="st2" d="M45.7,82.6c-1.1-0.6-3-1.1-3-3l0,0L43,67.2l-0.4-4.6c0.8-0.8,1.3-1.8,1.6-2.9c0.1-0.3,0.2-0.7,0.2-1
			c0,0,0,0,0,0l0-0.1c0-0.1,0.1-0.3,0.1-0.4c0,0,0,0,0,0l1.3-6.1c0.1-0.3,0.1-0.6,0-0.9L43,40.5c-0.2-0.8-1-1.3-1.8-1.3v0h-3.9
			l-0.5-2.5c0,0,0.3-0.4,0.3-0.7c0-0.4-0.3-0.5-0.3-0.5c0.2-0.3,0.2-1.5-0.6-1.9c-0.8-0.4-1.7,0.1-1.7,0.1c-0.5-0.2-1,0.1-1.3,0.7
			c-0.2,0.7,0.4,1,0.4,1l0.1,0.6c0,0-0.2,0-0.1,0.4s0.6,0.7,0.6,0.7l0.4,1.9h-3.5v0c-0.8,0-1.5,0.5-1.7,1.3l-2.9,10.7
			c-0.1,0.3-0.1,0.7,0,1l1.9,6.4c0,0.1,0.1,0.1,0.1,0.2c0.1,0.4,0.3,0.8,0.4,1.1c0.3,0.8,0.8,1.6,1.3,2.2L30,66.8l0,0.1l0.3,12.7
			l0,0c0.1,2-2,2.4-3,3s-1.1,1.7-1.1,1.7h9.7l-0.2-4.5l0,0L35.4,67l0.7-13h0.4l1,13.3l-0.3,13.9l-0.1,3h9.7
			C46.8,84.3,46.8,83.2,45.7,82.6z M42.3,51.7l-0.4,1.7l-0.3-4.2L42.3,51.7z M31,48.5l-0.3,5.1l-0.6-1.9L31,48.5z"/>
		<path class="st2" d="M35.9,22.4C35.9,22.4,35.9,22.5,35.9,22.4L35.9,22.4L35.9,22.4z"/>
		<path class="st2" d="M46.8,22.5c0,0,0-1.1-1.1-1.7c-1.1-0.6-3-1.1-3-3l0,0l0-0.4c-0.3,0.2-0.7,0.4-1,0.7c-0.1,0.1-0.2,0.1-0.2,0.2
			c-0.7,0.5-1.4,1-2.1,1.5c-0.6,0.4-1.2,0.9-1.7,1.3c-0.2,0.1-0.4,0.3-0.5,0.4l0,1H46.8z"/>
		<path class="st2" d="M74.8,179.8c0.1,0.2,0.2,0.3,0.3,0.5c0,0.1,0.1,0.1,0.1,0.2c0.4,0.9,1.7,2.6,2,2.3c0,0,0,0,0,0
			c0.1-0.1,0.1-0.3,0.1-0.4c0-0.2-0.1-0.3-0.1-0.5c0-0.1,0.1-0.2,0.3-0.3c0.1-0.1,0.2-0.1,0.3,0c0.1,0.1,0.2,0.2,0.2,0.4
			c0,0.2-0.4,0.9-0.6,1.3c-0.1,0.1,0,0.3,0.2,0.2c0.1,0,0.1,0,0.2,0c0,0.1,0,0.2,0,0.3c0,0.1,0.2,0.2,0.2,0.1
			c0.1-0.2,0.2-0.3,0.4-0.4c0,0.2,0,0.4,0,0.6c0,0,0,0.1,0.1,0.1c0.1,0,0.1,0,0.2-0.1c0.1-0.2,0.2-0.4,0.3-0.7
			c0.3-1.3,0.2-2.7-0.3-3.9c-0.1-0.3-0.2-0.6-0.4-0.9c0,0,0,0,0,0l-2.2-5.5L75,162.6c0,0,0-0.1,0-0.1c0-0.1,0-0.2-0.1-0.3
			c-0.2-0.9-0.8-1.4-1.6-1.7c-1-0.3-1.9-0.7-2.9-1c-0.7-0.2-0.8-0.8-0.3-1.3c0.1-0.1,0.2-0.2,0.2-0.3c0-1.1,0-2.2-0.1-3.2
			c-0.1-0.8-0.8-1.2-1.6-1.2c-0.9,0-1.8,1-1.9,2c0,0.3-0.2,0.5-0.3,0.8c-0.1,0.2-0.1,0.5,0,0.7c0.3,0.5,0.4,1,0.4,1.6
			c0,0.6-0.2,0.8-0.7,1c-1.1,0.4-2.2,0.8-3.4,1.2c-0.6,0.2-1,0.8-1.2,1.4c0,0,0,0.1,0,0.1c-0.1,0.2-0.1,0.3-0.1,0.5L60.5,173
			l-2.6,6.5c0,0,0,0,0,0c0,0.1,0,0.1-0.1,0.2l-0.2,0.4c-0.1,0.1-0.1,0.3-0.1,0.4c-0.1,0.2-0.1,0.4-0.2,0.6c-0.4,1.3-0.4,2.6,0,4
			c0.1,0.2,0.2,0.4,0.3,0.6c0,0.1,0.1,0.1,0.2,0.1c0,0,0.1-0.1,0.1-0.1c0-0.2,0-0.4,0-0.6c0.1,0.1,0.3,0.3,0.4,0.4
			c0.1,0.1,0.2,0,0.2-0.1c0-0.1,0-0.2,0-0.3c0,0,0.1,0,0.2,0c0.1,0,0.2-0.1,0.2-0.3c-0.2-0.4-0.6-1-0.7-1.2c0-0.1,0.1-0.2,0.2-0.4
			c0.1-0.1,0.2-0.1,0.3,0c0.1,0.1,0.3,0.2,0.3,0.3c0,0.2,0,0.3,0,0.5c0,0.2,0,0.3,0.1,0.4c0,0-0.1-0.2,0,0c0.2,0.3,1.4-1.6,1.8-2.4
			c0-0.1,0.1-0.2,0.1-0.3c0-0.1,0.1-0.1,0.1-0.2l1.1-2.7L61,189.6c1.7,0.7,3.5,1.4,5.2,2l1.8-17.7h0.5l1.9,19c1.8,0.5,3.7,1,5.6,1.5
			L74.4,179L74.8,179.8z"/>
		<path class="st2" d="M105.2,182.8c0.3,0.6,0.6,1.1,0.8,1c0.2-0.1,0,0,0,0c0.1-0.1,0.2-0.3,0.2-0.4c0-0.2,0-0.3,0.1-0.5
			c0-0.1,0.2-0.2,0.3-0.3c0.1-0.1,0.2,0,0.3,0.1c0.1,0.1,0.2,0.3,0.1,0.4c-0.1,0.2-0.5,0.8-0.8,1.1c-0.1,0.1,0,0.3,0.1,0.3
			c0.1,0,0.1,0,0.2,0c0,0.1,0,0.2-0.1,0.3c0,0.1,0.1,0.2,0.2,0.1c0.2-0.1,0.3-0.2,0.5-0.3c0,0.2-0.1,0.4-0.1,0.6c0,0,0,0.1,0.1,0.1
			c0.1,0,0.1,0,0.2,0c0.2-0.2,0.3-0.4,0.4-0.6c0.6-1.2,0.8-2.6,0.6-3.9c-0.1-0.5-0.2-1.1-0.3-1.6c0,0,0,0,0,0c0,0,0-0.1,0-0.1
			l-1.2-6l-0.9-10.6c0,0,0,0,0-0.1c0-0.1,0.1-0.2,0-0.4c-0.3-1-0.9-1.8-1.9-2c-0.6-0.2-1.2-0.2-1.8-0.4c-0.5-0.1-1-0.3-1.5-0.5
			c-0.1,0-0.2-0.3-0.2-0.4c0-0.1,0.2-0.2,0.4-0.2c0.4,0,0.8,0,1.3,0c0.3,0,0.6-0.2,0.5-0.5c0-0.4-0.1-0.8-0.2-1.2
			c-0.2-0.6-0.4-1.2-0.5-1.8c-0.1-0.2-0.1-0.4-0.2-0.5c-0.3-0.9-1-1.3-1.9-1.7c0-0.1,0.1-0.2,0.1-0.3c0.2-0.4,0.1-0.9-0.3-1.1
			c-0.3-0.2-0.7-0.2-1-0.1c-0.4,0.2-0.6,0.6-0.5,1.1c0.1,0.3-0.1,0.4-0.3,0.5c-0.6,0.2-1.1,0.6-1.3,1.3c-0.4,1-0.7,2-1.1,3
			c0,0.1,0,0.2-0.1,0.4c-0.1,1,0,1.1,1,1.1c0.1,0,0.3,0,0.4,0c0.3,0.1,0.6,0.1,0.9,0.2c-0.3,0.2-0.5,0.5-0.8,0.7
			c-0.1,0.1-0.2,0.1-0.4,0.1c-0.7,0.2-1.4,0.3-2.2,0.5c-1.1,0.3-1.8,1-2.2,2.1c-0.1,0.3-0.1,0.4,0,0.5l-0.9,10.6l-1.5,7.3
			c0,0.1,0,0.1,0,0.2c-0.1,0.5-0.2,0.9-0.2,1.4c-0.2,1.4,0,2.7,0.6,3.9c0.1,0.2,0.3,0.4,0.4,0.6c0,0,0.1,0.1,0.2,0
			c0,0,0.1-0.1,0.1-0.1c0-0.2-0.1-0.4-0.1-0.6c0.2,0.1,0.3,0.2,0.5,0.3c0.1,0.1,0.2,0,0.2-0.1c0-0.1-0.1-0.2-0.1-0.3
			c0,0,0.1,0,0.2,0c0.1,0,0.2-0.2,0.1-0.3c-0.3-0.3-0.8-0.9-0.8-1.1c0-0.1,0.1-0.3,0.1-0.4c0.1-0.1,0.2-0.1,0.3-0.1
			c0.1,0.1,0.3,0.2,0.3,0.3c0,0.2,0.1,0.3,0.1,0.5c0,0.2,0.1,0.3,0.2,0.4c0,0-0.2-0.1,0,0c0.3,0.3,1.2-1.8,1.4-2.7
			c0-0.2,0.1-0.3,0.1-0.5l-0.4,6.8l0,0.1l0.2,8.2c1.8,0.1,3.6,0.2,5.4,0.2l-0.2-8.3l0.1-1.1h2l0.1,1.4l-0.2,7.9
			c1.8,0,3.6-0.1,5.4-0.2l0.2-7.8L105.2,182.8z"/>
		<path class="st3" d="M79.9,144.5c-1.1-0.6-2.9-1.3-3.2-3l-3.2-32.4l0,0l0-0.9l1.7,4.2l0.6,9c0,0.1,0,0.1,0,0.2
			c0,0.3,0,0.6,0.1,0.8c0.1,0.9,0.7,3.1,1,2.9c0,0,0,0,0,0c0.1-0.1,0.2-0.2,0.2-0.4c0-0.2,0.1-0.3,0.1-0.5c0.1-0.1,0.2-0.2,0.4-0.2
			c0.1,0,0.2,0,0.3,0.1c0.1,0.2,0.1,0.3,0.1,0.4c-0.1,0.2-0.6,0.7-1,1c-0.1,0.1-0.1,0.3,0.1,0.3c0.1,0,0.1,0,0.2,0
			c0,0.1-0.1,0.2-0.1,0.3c0,0.1,0.1,0.2,0.2,0.2c0.2-0.1,0.3-0.2,0.5-0.3c-0.1,0.2-0.1,0.4-0.2,0.6c0,0,0,0.1,0,0.1c0,0,0.1,0,0.2,0
			c0.2-0.2,0.4-0.3,0.5-0.5c0.8-1.1,1.1-2.4,1.1-3.8c0-0.4,0-0.7,0-1.1c0-0.1,0-0.2,0-0.3l-0.6-9.3c0-0.2-0.1-0.4-0.1-0.6l-3.7-9.1
			c-0.1-0.2-0.2-0.3-0.3-0.4c-0.3-0.4-0.6-0.8-1.2-1c-0.8-0.3-1.6-0.6-2.4-0.9c-0.4-0.1-0.6-0.3-0.5-0.8c0-1.2,0.1-2.3,0-3.5
			c0-0.5-0.2-1.1-0.5-1.5c-0.5-0.8-1.4-1-2.2-0.8c-1.1,0.4-1.8,1.1-1.8,2.2c-0.1,1.2-0.1,2.4-0.1,3.5c0,0.4-0.1,0.7-0.5,0.8
			c-0.8,0.3-1.6,0.6-2.4,0.8c-0.5,0.2-0.9,0.5-1.2,0.8c-0.2,0.2-0.3,0.4-0.4,0.7l-3,9.2c0,0.1-0.1,0.2-0.1,0.3l-1.5,10.3
			c0,0.1,0,0.3,0,0.4c0,0.1,0,0.2,0,0.3c-0.2,1.4,0.1,2.7,0.8,3.9c0.1,0.2,0.3,0.4,0.5,0.6c0,0,0.1,0.1,0.2,0c0,0,0.1-0.1,0-0.1
			c0-0.2-0.1-0.4-0.1-0.6c0.2,0.1,0.3,0.2,0.5,0.3c0.1,0.1,0.2,0,0.2-0.2c0-0.1-0.1-0.2-0.1-0.3c0,0,0.1,0,0.2,0
			c0.1,0,0.2-0.2,0.1-0.3c-0.3-0.3-0.8-0.9-0.9-1.1c0-0.1,0-0.3,0.1-0.4c0-0.1,0.2-0.1,0.3-0.1c0.1,0.1,0.3,0.1,0.3,0.3
			c0.1,0.2,0.1,0.3,0.1,0.5c0,0.2,0.1,0.3,0.2,0.4c0,0,0,0-0.1,0c0,0,0,0,0.1,0c0.3,0.2,1-1.7,1.2-2.7c0-0.1,0.1-0.2,0.1-0.4
			l1.5-10.2l1.1-3.4l0,0.1l-3.2,32.2c-0.4,1.7-2.2,2.4-3.3,3c-1.1,0.6-1.1,1.7-1.1,1.7h9.4v-1l0.1-1.5l0,0l3-29.6h0.5l3,29.5
			l0.2,1.6v1H81C81,146.2,81,145.1,79.9,144.5z"/>
		<path class="st2" d="M79.9,82.6c-1.1-0.6-2.9-1.3-3.2-3l-3-30.2l0.7,2.6l1.5,7.6c0,0,0,0.1,0,0.1c0.1,0.3,0.1,0.6,0.2,1
			c0.2,0.9,1,3,1.3,2.7c0,0,0,0,0,0c0.1-0.1,0.2-0.2,0.2-0.4c0-0.2,0-0.3,0.1-0.5c0-0.1,0.2-0.2,0.3-0.3c0.1,0,0.2,0,0.3,0.1
			c0.1,0.1,0.1,0.3,0.1,0.4c-0.1,0.2-0.6,0.8-0.9,1.1c-0.1,0.1,0,0.3,0.1,0.3c0.1,0,0.1,0,0.2,0c0,0.1-0.1,0.2-0.1,0.3
			c0,0.1,0.1,0.2,0.2,0.2c0.2-0.1,0.3-0.2,0.5-0.3c0,0.2-0.1,0.4-0.1,0.6c0,0,0,0.1,0.1,0.1c0.1,0,0.1,0,0.2,0
			c0.2-0.2,0.3-0.4,0.5-0.6c0.7-1.2,0.9-2.5,0.8-3.9c-0.1-0.5-0.1-1-0.2-1.6c0,0,0-0.1,0-0.1l-1.5-7.7c0,0,0-0.1,0-0.1L75,40.5
			c-0.1-0.2-0.1-0.4-0.3-0.6c-0.2-0.4-0.5-0.7-1-0.9c-1.1-0.4-2.2-0.8-3.3-1.2c-0.5-0.2-0.8-1.3-0.4-1.7c0.8-0.7,1.1-1.7,1.2-2.7
			c0.1-1.4-0.7-3.1-1.9-3.7c-1.4-0.8-3.3-0.3-3.4,1.6c0,0.1,0,0.2-0.1,0.4c-0.8,1.7-0.5,3.2,0.8,4.6c0.5,0.5,0.3,1.3-0.3,1.6
			c-1.1,0.4-2.3,0.8-3.4,1.3c-0.6,0.2-1,0.6-1.2,1.1c-0.1,0.1-0.1,0.3-0.2,0.4l-2.9,10.7c0,0,0,0.1,0,0.1l-1.7,8.3
			c0,0.2,0,0.3,0,0.5c0,0.2,0,0.4-0.1,0.5c-0.2,1.4,0.1,2.7,0.8,3.9c0.1,0.2,0.3,0.4,0.4,0.6c0,0,0.1,0.1,0.2,0c0,0,0.1-0.1,0.1-0.1
			c0-0.2-0.1-0.4-0.1-0.6c0.2,0.1,0.3,0.2,0.5,0.3c0.1,0.1,0.2,0,0.2-0.2c0-0.1-0.1-0.2-0.1-0.3c0,0,0.1,0,0.2,0
			c0.1,0,0.2-0.2,0.1-0.3c-0.3-0.3-0.8-0.9-0.9-1.1c0-0.1,0-0.3,0.1-0.4c0-0.1,0.2-0.1,0.3-0.1c0.1,0.1,0.3,0.1,0.3,0.3
			c0.1,0.2,0.1,0.3,0.1,0.5c0,0.2,0.1,0.3,0.2,0.4c0,0-0.2-0.1,0,0c0.3,0.2,1.1-1.8,1.3-2.7c0-0.1,0.1-0.3,0.1-0.4c0,0,0,0,0-0.1
			l1.6-8.2l0.9-3.3l-3.1,30.8c-0.4,1.7-2.2,2.4-3.3,3c-1.1,0.6-1.1,1.7-1.1,1.7h9.4v-1l0.1-1.5l0,0l0.8-7.9h4.9l0.8,7.7l0.2,1.6v1
			H81C81,84.3,81,83.2,79.9,82.6z"/>
		<path class="st3" d="M94,42.9l0.2,6.6l-0.6,16.4l-0.6,13.8c-0.1,2.1-2,2.4-3.1,3c-1.1,0.6-1.1,1.7-1.1,1.7h9.6L98.5,80L99,66.1
			l0.1-3.9l0.1,3.2l0.6,16.1l-0.1,2.8h9.7c0,0,0-1.1-1.1-1.7c-1.1-0.6-2.9-1.1-2.9-3l-0.3,0.1l-0.6-14.5L104,49.1v-1.2l1.1,4.2
			l1.2,6.1c0,0,0,0.1,0,0.2c0,0.1,0.1,0.3,0.1,0.4l0.1,0.3c0,0,0,0.1,0,0.1c0.1,0.4,0.2,0.8,0.1,1.3c-0.1,0.5-0.2,1-0.4,1.5
			c0,0.1-0.1,0.3-0.1,0.4c0,0.1,0,0.2,0.1,0.2c0,0,0.2,0,0.2-0.1c0.2-0.2,0.3-0.5,0.5-0.8c0.1-0.1,0.2-0.3,0.3-0.4c0,0,0.1,0,0.1,0
			c0,0.2,0.1,0.3,0.1,0.5c0,0.7,0,1.3,0,2c0,0.1,0,0.2,0,0.3c0,0.1,0.1,0.1,0.1,0.2c0.1-0.1,0.1-0.1,0.2-0.2
			c0.1-0.5,0.1-0.9,0.2-1.4c0-0.2,0.1-0.4,0.1-0.5c0,0,0,0,0.1,0c0,0.1,0,0.2,0,0.2c0,0.6,0,1.3,0,1.9c0,0,0,0.1,0,0.1
			c0.1,0.1,0.1,0.2,0.2,0.3c0.1-0.1,0.2-0.2,0.2-0.2c0.1-0.6,0.2-1.1,0.2-1.7c0-0.2,0.1-0.3,0.1-0.5c0,0,0,0,0.1,0
			c0,0.1,0,0.3,0,0.4c0,0.5,0.1,1.1,0.1,1.6c0,0.1,0,0.2,0,0.2c0,0,0.1,0.1,0.1,0.1c0,0,0.1,0,0.1-0.1c0-0.1,0.1-0.2,0.1-0.3
			c0.1-0.6,0.2-1.1,0.2-1.7c0-0.1,0-0.2,0-0.2c0,0,0,0,0.1,0c0,0.2,0,0.4,0,0.7c0,0.4,0,0.7,0.1,1.1c0,0.1,0.1,0.1,0.2,0.2
			c0-0.1,0.1-0.1,0.1-0.2c0.2-2.2,0.2-4.3-0.3-6.4c0-0.1,0-0.2-0.1-0.2l-1.3-6.3c0,0,0-0.1,0-0.1l-2.9-10.7c-0.2-0.8-1-1.3-1.8-1.3
			v0h-3.8c0,0,0-0.1,0-0.1l-0.2-1.2c0-0.3,0-0.6,0-0.7c0.2-0.2,0.4-0.4,0.5-0.7c0.1-0.2,0.2-0.4,0.2-0.6c0-0.7,0.1-1.5-0.7-1.9
			c-0.1,0-0.1-0.1-0.1-0.2c-0.3-0.7-1-1-1.7-0.7c-0.2,0.1-0.4,0.1-0.6,0.1c-1-0.1-1.7,0.5-1.6,1.5c0,0.1,0,0.3,0,0.4
			c-0.2,0.5-0.2,0.9,0.1,1.4c0.3,0.4,0.5,0.8,0.8,1.2c0,0,0.1,0.1,0.1,0.1c0.1,0.1,0.3,0.3,0.4,0.4c0.1,0.2,0.1,0.4,0.2,0.6l0.1,0.6
			h-3.6l0,0c-0.2,0-0.4,0-0.5,0.1l-4.8,1.6c0-0.1,0-0.2-0.1-0.4L87.2,35c-0.4-1.8-0.7-3.4-0.7-3.7c0-0.5,0-1.1,0-1.6
			c0-0.1,0-0.3,0-0.4c0-0.1-0.1-0.2-0.1-0.2c-0.1,0-0.2,0-0.2,0.1c-0.1,0.3-0.2,0.6-0.3,0.8c-0.1,0.1-0.1,0.3-0.2,0.4
			c0,0-0.1,0-0.1,0c-0.1-0.1-0.1-0.3-0.2-0.4c-0.2-0.6-0.3-1.3-0.5-1.9c0-0.1,0-0.2-0.1-0.3c0-0.1-0.1-0.1-0.2-0.2
			c0,0.1-0.1,0.1-0.1,0.2c0,0.5,0.1,0.9,0.1,1.4c0,0.2,0,0.4,0,0.6c0,0,0,0-0.1,0c0-0.1,0-0.1-0.1-0.2c-0.1-0.6-0.3-1.2-0.4-1.8
			c0,0,0-0.1,0-0.1c-0.1-0.1-0.1-0.2-0.2-0.2c0,0.1-0.1,0.2-0.1,0.3c0,0.6,0.1,1.1,0.1,1.7c0,0.2,0,0.3,0,0.5c0,0,0,0-0.1,0
			c0-0.1-0.1-0.3-0.1-0.4c-0.1-0.5-0.3-1-0.4-1.5c0-0.1,0-0.1-0.1-0.2c0,0-0.1-0.1-0.1-0.1S83,27.7,83,27.8c0,0.1,0,0.2,0,0.3
			c0,0.6,0.1,1.1,0.1,1.7c0,0.1,0,0.2,0,0.2c0,0,0,0-0.1,0c-0.1-0.2-0.1-0.4-0.2-0.6c-0.1-0.4-0.2-0.7-0.3-1.1
			c0-0.1-0.1-0.1-0.2-0.2c0,0.1-0.1,0.2-0.1,0.2c0.1,1.4,1.1,6,1.8,9.1l1.3,6.2c0.1,0.5,0.4,0.9,0.9,1.2c0.3,0.2,0.6,0.2,0.9,0.2
			c0.2,0,0.4,0,0.6-0.1L94,42.9z"/>
		<path class="st2" d="M56.6,20.8c-1.1,0.6-1.1,1.7-1.1,1.7h9.4v-1L65,20l0,0l0.9-9.4h4.5l0.9,9.3l0.2,1.6v1H81c0,0,0-1.1-1.1-1.7
			c-1.1-0.6-2.9-1.3-3.2-3l-1.5-15c-1.1,0.3-2.3,0.6-3.4,0.9c-0.6,0.2-1.3,0.4-1.9,0.6c-0.2,0.1-0.4,0.1-0.7,0.2
			c-0.9,0.3-1.8,0.6-2.7,0.9c-0.5,0.2-0.9,0.3-1.4,0.5c-0.2,0.1-0.3,0.1-0.5,0.2c-1.3,0.5-2.5,1-3.8,1.5l-1,10.3
			C59.5,19.5,57.6,20.2,56.6,20.8z"/>
		<path class="st2" d="M92.8,5.1l0.3,12.7l0,0c0.1,2-2,2.4-3,3c-1.1,0.6-1.1,1.7-1.1,1.7h9.7L98.5,18l0,0L98.2,5.2L98.5,0
			c-1.8,0-3.6,0.1-5.4,0.2L92.8,5.1L92.8,5.1z"/>
		<path class="st2" d="M100,19.5l-0.1,3h9.7c0,0,0-1.1-1.1-1.7c-1.1-0.6-3-1.1-3-3l0,0l0.3-12.4l-0.4-5.1c-1.8-0.1-3.6-0.2-5.4-0.2
			l0.4,5.5L100,19.5z"/>
		<path class="st2" d="M137.1,173.8l1.4,7.1c0,0,0,0,0,0c0,0,0,0.1,0,0.1l0.1,0.3c0,0,0,0,0,0c0.1,0.4,0.2,0.7,0.2,1.1
			c0.2,0.9,1.1,3,1.4,2.7c0,0,0,0,0,0c0,0,0,0,0,0c0.1-0.1,0.2-0.3,0.2-0.4c0-0.2,0-0.3,0.1-0.5c0-0.1,0.2-0.2,0.3-0.3
			c0.1-0.1,0.2,0,0.3,0.1c0.1,0.1,0.2,0.3,0.1,0.4c-0.1,0.2-0.5,0.8-0.8,1.1c-0.1,0.1,0,0.3,0.1,0.3c0.1,0,0.1,0,0.2,0
			c0,0.1,0,0.2-0.1,0.3c0,0.1,0.1,0.2,0.2,0.1c0.2-0.1,0.3-0.2,0.5-0.3c0,0.2-0.1,0.4-0.1,0.6c0,0,0,0.1,0.1,0.1c0.1,0,0.1,0,0.2,0
			c0.2-0.2,0.3-0.4,0.4-0.6c0.6-1.2,0.8-2.6,0.6-3.9c-0.1-0.4-0.1-0.8-0.2-1.1c0-0.1,0-0.2,0-0.4l-1.5-7.5c0,0,0-0.1,0-0.1
			l-2.9-10.7c-0.1-0.2-0.2-0.4-0.3-0.6c-0.2-0.6-0.6-1-1.3-1.2c-1-0.4-2-0.7-3-1.1c-0.2-0.1-0.5-0.2-0.6-0.4
			c-0.1-0.7-0.3-1.4,0.2-2.1c0.1-0.2,0.1-0.5,0-0.7c0-0.3-0.2-0.5-0.3-0.8c-0.1-1-0.7-1.5-1.6-1.5c-0.9,0-1.4,0.5-1.4,1.5
			c0,0.2-0.1,0.5-0.2,0.6c-0.4,0.3-0.3,0.6-0.1,1c0.2,0.5,0.3,1,0.4,1.4c0.1,0.5-0.2,0.8-0.6,0.9c-1,0.3-2,0.7-3,1
			c-0.7,0.2-1.2,0.7-1.5,1.3c-0.2,0.3-0.3,0.6-0.4,0.9l-0.9,10.6l-1.5,7.3c0,0,0,0,0,0c0,0.1,0,0.1,0,0.2l0,0c0,0,0,0,0,0
			c-0.1,0.5-0.2,0.9-0.2,1.4c-0.2,1.4,0,2.7,0.6,3.9c0.1,0.2,0.3,0.4,0.4,0.6c0,0,0.1,0.1,0.2,0c0,0,0.1-0.1,0.1-0.1
			c0-0.2-0.1-0.4-0.1-0.6c0.2,0.1,0.3,0.2,0.5,0.3c0.1,0.1,0.2,0,0.2-0.1c0-0.1-0.1-0.2-0.1-0.3c0,0,0.1,0,0.2,0
			c0.1,0,0.2-0.2,0.1-0.3c-0.3-0.3-0.8-0.9-0.8-1.1c0-0.1,0.1-0.3,0.1-0.4c0.1-0.1,0.2-0.1,0.3-0.1c0.1,0.1,0.3,0.2,0.3,0.3
			c0.1,0.2,0.1,0.3,0.1,0.5c0,0.2,0.1,0.3,0.2,0.4c0,0,0,0,0,0c0,0,0,0,0,0c0.1,0.1,0.4-0.3,0.7-0.8l-1,9.6c1.5-0.4,3-0.8,4.5-1.3
			c0.4-0.1,0.7-0.2,1.1-0.4l1.8-18.3h0.5l1.7,16.9v0c1.3-0.5,2.6-1,3.9-1.6c0.4-0.2,0.9-0.4,1.3-0.6l-1.8-17.5L137.1,173.8z"/>
		<path class="st2" d="M168.5,162.2c0-0.1-0.1-0.3-0.1-0.4c-0.2-0.6-0.6-1.2-1.2-1.4c-1.1-0.4-2.2-0.8-3.3-1.2
			c-0.5-0.2-0.8-1.3-0.4-1.7c0.8-0.7,1.1-1.6,1.2-2.7c0.1-1.4-0.7-3-1.8-3.7c-1.4-0.8-3.2-0.3-3.4,1.6c0,0.1,0,0.2-0.1,0.3
			c-0.8,1.7-0.5,3.2,0.8,4.5c0.5,0.5,0.3,1.3-0.3,1.6c-1.1,0.4-2.3,0.8-3.4,1.2c-0.7,0.3-1.2,0.8-1.4,1.6c0,0,0,0,0,0
			c0,0.1-0.1,0.1-0.1,0.2l-2.9,10.7c0,0,0,0.1,0,0.1l-1.9,9.4v0c0.5-0.3,1-0.6,1.5-0.9c0.9-0.6,1.9-1.2,2.8-1.8v0l1.2-5.8l1-3.6
			l-0.4,8.2v0c1.1-0.8,2.2-1.6,3.2-2.4c0.8-0.6,1.6-1.3,2.4-1.9l0-0.2h0.2c0,0,0,0,0,0c1-0.8,1.9-1.6,2.8-2.5c0.7-0.6,1.3-1.2,2-1.8
			c0,0,0,0,0,0c0.1-0.1,0.2-0.2,0.2-0.2c0.4-0.4,0.8-0.8,1.2-1.2c0.5-0.5,1-1,1.5-1.5v0L168.5,162.2z"/>
		<path class="st3" d="M170.8,144.5c-0.9-0.5-2.6-0.9-3-2.3v-13.4l-0.1-2.5c0.3,0.6,0.6,1,0.7,0.8c0.2-0.1,0,0,0,0
			c0.1-0.1,0.2-0.3,0.2-0.4c0-0.2,0-0.3,0.1-0.5c0-0.1,0.2-0.2,0.3-0.3c0.1-0.1,0.2,0,0.3,0.1c0.1,0.1,0.2,0.3,0.1,0.4
			c-0.1,0.2-0.5,0.8-0.8,1.1c-0.1,0.1,0,0.3,0.1,0.3c0.1,0,0.1,0,0.2,0c0,0.1,0,0.2-0.1,0.3c0,0.1,0.1,0.2,0.2,0.1
			c0.2-0.1,0.3-0.2,0.5-0.3c0,0.2-0.1,0.4-0.1,0.6c0,0,0,0.1,0.1,0.1c0.1,0,0.1,0,0.2,0c0.2-0.2,0.3-0.4,0.4-0.6
			c0.6-1.2,0.8-2.6,0.6-3.9c-0.1-0.4-0.1-0.7-0.2-1.1l-1-9.8l-0.9-10.7c-0.1-0.9-0.8-1.7-1.8-1.7v0h-4.1l-0.2-1.4
			c0,0,1.1-0.1,1.4-0.1c0.3,0,0.5-0.2,0.4-0.5c-0.1-0.4-0.2-0.7-0.3-1.1c-0.2-0.5-0.4-1-0.6-1.5c-0.1-0.2-0.1-0.3-0.2-0.5
			c-0.4-0.7-1-1.1-1.8-1.3c0-0.1,0-0.2,0.1-0.2c0.1-0.4,0-0.8-0.3-1c-0.2-0.1-0.6-0.1-0.9,0c-0.4,0.2-0.5,0.6-0.3,1
			c0.1,0.3-0.1,0.4-0.2,0.4c-0.6,0.2-0.9,0.6-1.1,1.2c-0.3,0.9-0.5,1.8-0.8,2.7c0,0.1,0,0.2,0,0.3c0,0.9,0.1,1,0.9,0.9
			c0.1,0,1.1-0.1,1.1-0.1l0.1,1.3h-3.4v0c-0.9,0-1.7,0.7-1.8,1.7l-0.9,10.6l-0.9,9.3c-0.1,0.5-0.2,1-0.3,1.6c-0.2,1.4,0,2.7,0.6,3.9
			c0.1,0.2,0.3,0.4,0.4,0.6c0,0,0.1,0.1,0.2,0c0,0,0.1-0.1,0.1-0.1c0-0.2-0.1-0.4-0.1-0.6c0.2,0.1,0.3,0.2,0.5,0.3
			c0.1,0.1,0.2,0,0.2-0.1c0-0.1-0.1-0.2-0.1-0.3c0,0,0.1,0,0.2,0c0.1,0,0.2-0.2,0.1-0.3c-0.3-0.3-0.8-0.9-0.8-1.1
			c0-0.1,0.1-0.3,0.1-0.4c0.1-0.1,0.2-0.1,0.3-0.1c0.1,0.1,0.3,0.2,0.3,0.3c0,0.2,0.1,0.3,0.1,0.5c0,0.2,0.1,0.3,0.2,0.4
			c0,0-0.2-0.1,0,0c0.2,0.2,0.6-0.6,1-1.4l-0.2,3l0,13.5c-0.4,1.4-2,1.8-3,2.3c-1.1,0.6-1.1,1.7-1.1,1.7h8.2l-0.2-3.7v-12.9h4.2
			v12.9l-0.2,3.8h8.2C171.9,146.2,171.9,145.1,170.8,144.5z"/>
		<path class="st2" d="M141.8,82.6c-0.9-0.5-2.5-1-3-2.3l-2-19.7c0,0,0,0.1,0,0.1c0.2,0.9,1,3,1.3,2.8c0,0,0,0,0,0c0,0,0,0,0,0
			c0.1-0.1,0.2-0.2,0.2-0.4c0-0.2,0-0.3,0.1-0.5c0-0.1,0.2-0.2,0.3-0.3c0.1,0,0.2,0,0.3,0.1c0.1,0.1,0.1,0.3,0.1,0.4
			c-0.1,0.2-0.6,0.7-0.9,1.1c-0.1,0.1,0,0.3,0.1,0.3c0.1,0,0.1,0,0.2,0c0,0.1-0.1,0.2-0.1,0.3c0,0.1,0.1,0.2,0.2,0.2
			c0.2-0.1,0.3-0.2,0.5-0.3c0,0.2-0.1,0.4-0.1,0.6c0,0,0,0.1,0,0.1c0.1,0,0.1,0,0.2,0c0.2-0.2,0.3-0.3,0.5-0.6
			c0.7-1.2,0.9-2.5,0.8-3.9c-0.1-0.5-0.1-1.1-0.2-1.6c0,0,0,0,0,0c0,0,0,0,0-0.1l-1.5-7.6l-0.9-10.6c0-0.4-0.2-0.8-0.5-1.1
			c-0.5-0.7-1.2-1-2.1-1.2c-0.7-0.1-1.4-0.3-2.1-0.5c-0.7-0.2-0.8-0.6-0.4-1.2c0.3-0.5,0.5-1,0.7-1.6c0.1-0.1,0.1-0.3,0.2-0.4
			c0.1,0,0.1,0,0.2,0c0.5,0,0.9-0.4,0.9-0.9c0-0.5-0.4-0.9-0.9-0.9c-0.1,0-0.1,0-0.2,0c-0.1-0.1-0.2-0.3-0.2-0.4
			c-0.2-0.3-0.4-0.7-0.7-0.9c-1-0.8-2.7-0.5-3.5,0.6c-0.5,0.7-0.7,1.4-1.1,2.2c-0.3,0.6-0.6,1.2-1,1.7c-0.5,0.7-1.1,1.4-1.3,2.3
			c0,0.1-0.2,0.3-0.4,0.4c-0.3,0.2-0.6,0.4-0.8,0.7c-0.3,0.3-0.4,0.6-0.5,1.1l-0.9,10.6l-0.8,8.3c0,0.3-0.1,0.6-0.1,0.9
			c-0.2,1.4,0.1,2.7,0.8,3.9c0.1,0.2,0.3,0.4,0.5,0.6c0,0,0.1,0.1,0.2,0c0,0,0.1-0.1,0-0.1c0-0.2-0.1-0.4-0.1-0.6
			c0.2,0.1,0.3,0.2,0.5,0.3c0.1,0.1,0.2,0,0.2-0.2c0-0.1-0.1-0.2-0.1-0.3c0,0,0.1,0,0.2,0c0.1,0,0.2-0.2,0.1-0.3
			c-0.3-0.3-0.8-0.9-0.9-1.1c0-0.1,0-0.3,0.1-0.4c0-0.1,0.2-0.1,0.3-0.1c0.1,0.1,0.3,0.1,0.3,0.3c0.1,0.2,0.1,0.3,0.1,0.5
			c0,0.2,0.1,0.3,0.2,0.4c0,0,0,0,0,0c0,0,0,0,0,0c0.3,0.2,1.1-1.8,1.3-2.8c0,0,0,0,0-0.1c0.1-0.2,0.1-0.4,0.2-0.6l0.1-0.9
			c0,0,0,0,0,0v0l0.3-3.3l-0.3,23.6l0,0c-0.4,1.7-2,2.4-3.1,3c-1.1,0.6-1.1,1.7-1.1,1.7h8.2v-1v-1.7l0,0l0.2-13.9h3.2l1.3,13.2
			l0.3,3.4h7.8C142.9,84.3,142.8,83.2,141.8,82.6z"/>
		<path class="st3" d="M173.4,82.6c-1.1-0.6-3-1.1-3-3l-0.4,0.1l-1.9-20.1c0,0,0,0,0,0l6-8.9c0.4-0.6,0.4-1.4,0-2l-5.9-8.7
			c-0.3-0.5-0.9-0.8-1.5-0.8l0,0h-3.4c-0.1-0.6-0.6-3.1-0.6-3.2c0-0.6-0.1-1.1,0-1.7c0-0.6-0.1-0.9-0.7-1.2c-1-0.4-2-0.3-2.9,0.1
			c-1,0.5-1.2,1.1-0.7,2.1c0.2,0.4,0.3,0.7,0.4,1.1c0.1,0.2,0.6,1.9,0.8,2.8h-2.9l0,0c-0.6,0-1.2,0.3-1.6,0.9l-4.9,8.7
			c-0.3,0.6-0.3,1.3,0.1,1.9l6,8.8l-0.4,20.1l-0.1,0c0.1,2-2,2.4-3,3s-1.1,1.7-1.1,1.7h9.7l-0.2-3.4l0.6-28.7h0.1l2.8,29.6l0.1,0
			l-0.1,2.5h9.7C174.5,84.3,174.4,83.2,173.4,82.6z M170.4,49.7l-2.9,4.3l-0.6-6.6l0,0l-0.1-2.9L170.4,49.7z M153.9,49.6l2.7-4.8
			l0,2.7h0l-0.1,5.8L153.9,49.6z"/>
		<path class="st2" d="M134.2,20l0.1,1.5v1h9.4c0,0,0-1.1-1.1-1.7c-1.1-0.6-2.9-1.3-3.3-3l-0.9-9.4c-0.5-0.2-1.1-0.5-1.6-0.7
			c-1.3-0.6-2.7-1.1-4-1.6L134.2,20L134.2,20z"/>
		<path class="st2" d="M119.3,20.8c-1.1,0.6-1.1,1.7-1.1,1.7h9.4v-1l0.1-1.5l0,0l1.5-15.1v0c-0.5-0.2-1-0.3-1.5-0.5
			c-1.3-0.4-2.5-0.7-3.8-1.1l-1.4,14.4C122.2,19.5,120.4,20.2,119.3,20.8z"/>
		<path class="st2" d="M152.8,20.8c-1.1,0.6-1.1,1.7-1.1,1.7h9.4c-0.6-0.5-1.2-1-1.8-1.5c-0.6-0.4-1.1-0.9-1.7-1.3
			c-0.6-0.5-1.2-0.9-1.8-1.3c0,0,0,0-0.1,0v0C155.5,19.8,153.7,20.2,152.8,20.8z"/>
		<path class="st2" d="M188.6,101.1c-0.9,0-1.7,0.7-1.8,1.6l-1.1,10.6l-1.9,7.9c0,0,0,0,0,0c0,0,0,0.1,0,0.1l0,0c0,0,0,0,0,0.1
			c-0.1,0.5-0.2,0.9-0.2,1.4c-0.2,1.4,0,2.7,0.6,3.9c0.1,0.2,0.3,0.4,0.4,0.6c0,0,0.1,0.1,0.2,0c0,0,0.1-0.1,0.1-0.1
			c0-0.2-0.1-0.4-0.1-0.6c0.2,0.1,0.3,0.2,0.5,0.3c0.1,0.1,0.2,0,0.2-0.1c0-0.1-0.1-0.2-0.1-0.3c0,0,0.1,0,0.2,0
			c0.1,0,0.2-0.2,0.1-0.3c-0.3-0.3-0.8-0.9-0.8-1.1c0-0.1,0.1-0.3,0.1-0.4c0.1-0.1,0.2-0.1,0.3-0.1c0.1,0.1,0.3,0.2,0.3,0.3
			c0,0.2,0.1,0.3,0.1,0.5c0,0.2,0.1,0.3,0.2,0.4c0,0-0.2-0.1,0,0c0.3,0.3,1.2-1.8,1.4-2.7c0.1-0.3,0.1-0.5,0.2-0.8c0,0,0-0.1,0-0.1
			l-1.9,19.4c-0.4,1.7-2.2,2.4-3.3,3c-1.1,0.6-1.1,1.7-1.1,1.7h3.7c0.5-0.9,1-1.9,1.5-2.8c0,0,0-0.1,0-0.1c0.2-0.4,0.5-0.9,0.7-1.4
			c0.5-0.9,0.9-1.9,1.4-2.9c0.8-1.8,1.6-3.6,2.3-5.5c0.1-0.4,0.3-0.8,0.4-1.2c0.3-0.8,0.6-1.6,0.9-2.4c0.2-0.7,0.5-1.4,0.7-2.1
			c0.8-2.5,1.4-5,2-7.6c0.5-2,0.9-4.1,1.2-6.2c0.2-1.5,0.5-3.1,0.6-4.6c0,0,0,0,0,0c0.2-2.1,0.4-4.2,0.5-6.4c0-0.1,0-0.3,0-0.4
			c0-0.5,0-1,0.1-1.5L188.6,101.1L188.6,101.1z"/>
		<path class="st2" d="M185.3,79.6c-0.4,1.7-2.2,2.4-3.3,3c-1.1,0.6-1.1,1.7-1.1,1.7h9.4v-1l0.1-1.5l0,0l1.5-14.5v0
			c-0.3-0.9-0.6-1.8-0.9-2.7c-0.6-1.5-1.1-3-1.8-4.5c-0.5-1.2-1.1-2.4-1.6-3.7v0L185.3,79.6z"/>
		<path class="st2" d="M184,51.3l-2,9.9c0,0.1,0,0.1,0,0.2c0,0,0,0,0,0c-0.1,0.5-0.1,1.1-0.2,1.6c-0.2,1.4,0.1,2.7,0.8,3.9
			c0.1,0.2,0.3,0.4,0.5,0.6c0,0,0.1,0.1,0.2,0c0,0,0.1-0.1,0-0.1c0-0.2-0.1-0.4-0.1-0.6c0.2,0.1,0.3,0.2,0.5,0.3
			c0.1,0.1,0.2,0,0.2-0.2c0-0.1-0.1-0.2-0.1-0.3c0,0,0.1,0,0.2,0c0.1,0,0.2-0.2,0.1-0.3c-0.3-0.3-0.8-0.9-0.9-1.1
			c0-0.1,0-0.3,0.1-0.4c0-0.1,0.2-0.1,0.3-0.1c0.1,0.1,0.3,0.1,0.3,0.3c0.1,0.2,0.1,0.3,0.1,0.5c0,0.2,0.1,0.3,0.2,0.4c0,0,0,0,0,0
			c0.3,0.2,1.1-1.8,1.3-2.8c0.1-0.4,0.1-0.7,0.2-1.1c0,0,0-0.1,0-0.1l1.4-6.9v0c-0.2-0.5-0.5-0.9-0.7-1.4c-0.6-1.2-1.3-2.4-1.9-3.6
			l-0.3,1.1C184,51.2,184,51.3,184,51.3z"/>
		<path class="st3" d="M76.8,125.3C76.8,125.3,76.8,125.3,76.8,125.3C76.8,125.3,77,125.2,76.8,125.3z"/>
		<path class="st3" d="M142.3,121.4c0-0.1,0-0.1,0-0.2l-1.6-8.1c0,0,0-0.1,0-0.1l-2.9-10.7c-0.2-0.8-1-1.3-1.8-1.3v0h-4v-3
			c0,0,0.3-0.3,0.4-0.6c0.1-0.3-0.2-0.5-0.2-0.5c0.3-0.2,0.5-1.4-0.2-2c-0.7-0.6-1.7-0.3-1.7-0.3c-0.4-0.3-1-0.1-1.4,0.5
			c-0.4,0.6,0.2,1.1,0.2,1.1v0.7c0,0-0.2-0.1-0.2,0.4c0,0.5,0.4,0.8,0.4,0.8v2.9h-3.5v0c-0.9,0-1.7,0.7-1.8,1.7l-0.9,10.4l-3,7.5
			c0,0,0,0,0,0.1c-0.2,0.5-0.4,1-0.5,1.5c-0.5,1.3-0.5,2.6-0.1,4c0.1,0.2,0.2,0.4,0.3,0.6c0,0.1,0.1,0.1,0.2,0.1
			c0,0,0.1-0.1,0.1-0.1c0-0.2,0-0.4,0-0.6c0.1,0.1,0.3,0.3,0.4,0.4c0.1,0.1,0.2,0,0.2-0.1c0-0.1,0-0.2,0-0.3c0,0,0.1,0,0.2,0
			c0.1,0,0.2-0.1,0.2-0.3c-0.2-0.4-0.6-1-0.6-1.2c0-0.1,0.1-0.2,0.2-0.4c0.1-0.1,0.2-0.1,0.3,0c0.1,0.1,0.3,0.2,0.3,0.3
			c0,0.2,0,0.3,0,0.5c0,0.2,0,0.3,0.1,0.4c0,0,0,0,0-0.1c0,0,0,0,0,0.1c0.2,0.3,1.5-1.5,1.8-2.4c0.1-0.3,0.3-0.6,0.4-1
			c0,0,0.1-0.1,0.1-0.1l2.1-5.1l-0.5,24.7c-0.4,1.7-2.2,2.4-3.3,3c-1.1,0.6-1.1,1.7-1.1,1.7h9.9l-0.2-3.7L131,116l1.1,27.3l0.1,1.9
			v1h9.9c0,0,0-1.1-1.1-1.7c-1.1-0.6-3.2-1.3-3.6-3l-1.3-30.7l0.9,3.2l1.6,8c0,0,0,0.1,0,0.1c0.1,0.4,0.2,0.7,0.2,1.1
			c0.2,0.9,1.1,3,1.4,2.7c0.2-0.1,0,0,0,0c0.1-0.1,0.2-0.3,0.2-0.4c0-0.2,0-0.3,0.1-0.5c0-0.1,0.2-0.2,0.3-0.3
			c0.1-0.1,0.2,0,0.3,0.1c0.1,0.1,0.2,0.3,0.1,0.4c-0.1,0.2-0.5,0.8-0.8,1.1c-0.1,0.1,0,0.3,0.1,0.3c0.1,0,0.1,0,0.2,0
			c0,0.1,0,0.2-0.1,0.3c0,0.1,0.1,0.2,0.2,0.1c0.2-0.1,0.3-0.2,0.5-0.3c0,0.2-0.1,0.4-0.1,0.6c0,0,0,0.1,0.1,0.1c0.1,0,0.1,0,0.2,0
			c0.2-0.2,0.3-0.4,0.4-0.6c0.6-1.2,0.8-2.6,0.6-3.9C142.4,122.4,142.3,121.9,142.3,121.4z"/>
		<path class="st4" d="M123.6,185C123.6,185,123.5,185,123.6,185"/>
		<path class="st4" d="M140.3,185C140.3,185,140.3,185,140.3,185"/>
		<path class="st2" d="M77.1,182.8C77.1,182.8,77.1,182.8,77.1,182.8C77.1,182.8,77.2,182.7,77.1,182.8z"/>
		<path class="st4" d="M15,64.4C15,64.4,15,64.4,15,64.4"/>
		<path class="st2" d="M110.3,121.7c0-0.1,0-0.2,0-0.2l-1.7-8.3c0,0,0-0.1,0-0.1l-2.9-10.7c0-0.2-0.1-0.3-0.2-0.4
			c-0.3-0.7-0.7-1.2-1.5-1.5c-1-0.4-2.1-0.7-3.1-1.1c-0.5-0.2-0.6-0.6-0.2-1c0.2-0.2,0.5-0.4,0.7-0.7c0.2-0.2,0.3-0.4,0.3-0.7
			c0.1-0.8,0.4-1.7-0.4-2.3c-0.1,0-0.1-0.2-0.1-0.2c-0.2-0.9-1-1.3-1.9-1.1c-0.2,0.1-0.5,0.1-0.7,0c-1.1-0.3-2,0.3-2.1,1.4
			c0,0.1,0,0.3-0.1,0.4c-0.3,0.5-0.4,1-0.2,1.6c0.2,0.5,0.4,1,0.7,1.5c0,0.1,0.1,0.1,0.2,0.1c0.1,0.2,0.4,0.4,0.3,0.5
			c-0.1,0.2-0.3,0.3-0.5,0.4c-1.2,0.4-2.3,0.8-3.5,1.3c-0.6,0.2-1,0.7-1.2,1.4c-0.1,0.2-0.1,0.4-0.1,0.5l-2.9,10.5c0,0,0,0.1,0,0.1
			l-1.6,7.9c0,0,0,0,0,0c0,0,0,0.1,0,0.1l-0.2,1c0,0.1,0,0.3,0,0.4c0,0,0,0.1,0,0.1c-0.2,1.4,0,2.7,0.6,3.9c0.1,0.2,0.3,0.4,0.4,0.6
			c0,0,0.1,0.1,0.2,0c0,0,0.1-0.1,0.1-0.1c0-0.2-0.1-0.4-0.1-0.6c0.2,0.1,0.3,0.2,0.5,0.3c0.1,0.1,0.2,0,0.2-0.1
			c0-0.1-0.1-0.2-0.1-0.3c0,0,0.1,0,0.2,0c0.1,0,0.2-0.2,0.1-0.3c-0.3-0.3-0.8-0.9-0.8-1.1c0-0.1,0.1-0.3,0.1-0.4
			c0.1-0.1,0.2-0.1,0.3-0.1c0.1,0.1,0.3,0.2,0.3,0.3c0,0.2,0.1,0.3,0.1,0.5c0,0.2,0.1,0.3,0.2,0.4c0,0-0.2-0.1,0,0
			c0.3,0.2,1-1.3,1.3-2.3c0.1-0.1,0.1-0.3,0.2-0.4l1.8-9l1-3.6l-1,18.4l0,0.1l0.3,12.7l0,0c0.1,2-2,2.4-3,3
			c-1.1,0.6-1.1,1.7-1.1,1.7h9.7l-0.2-4.5l0,0l-0.3-12.8L99,114h0.2l1.2,15.2l-0.3,14l-0.1,3h9.7c0,0,0-1.1-1.1-1.7
			c-1.1-0.6-3-1.1-3-3l0,0l0.3-12.4l-1.4-18l0.8,2.9l1.5,7.6c0,0,0,0,0,0c0,0.1,0,0.1,0,0.2l0.1,0.5c0,0,0,0,0,0.1
			c0.1,0.3,0.1,0.5,0.2,0.8c0.2,0.9,1.1,3,1.4,2.7c0.2-0.1,0,0,0,0c0.1-0.1,0.2-0.3,0.2-0.4c0-0.2,0-0.3,0.1-0.5
			c0-0.1,0.2-0.2,0.3-0.3c0.1-0.1,0.2,0,0.3,0.1c0.1,0.1,0.2,0.3,0.1,0.4c-0.1,0.2-0.5,0.8-0.8,1.1c-0.1,0.1,0,0.3,0.1,0.3
			c0.1,0,0.1,0,0.2,0c0,0.1,0,0.2-0.1,0.3c0,0.1,0.1,0.2,0.2,0.1c0.2-0.1,0.3-0.2,0.5-0.3c0,0.2-0.1,0.4-0.1,0.6c0,0,0,0.1,0.1,0.1
			c0.1,0,0.1,0,0.2,0c0.2-0.2,0.3-0.4,0.4-0.6c0.6-1.2,0.8-2.6,0.6-3.9C110.5,122.4,110.4,122,110.3,121.7z"/>
		<path class="st2" d="M195.7,99.4c-0.5-0.2-0.6-0.6-0.2-1c0.2-0.2,0.5-0.4,0.7-0.7c0.2-0.2,0.3-0.4,0.3-0.7
			c0.1-0.8,0.4-1.7-0.4-2.3c-0.1,0-0.1-0.2-0.1-0.2c-0.2-0.9-1-1.3-1.9-1.1c-0.2,0.1-0.5,0.1-0.7,0c-1.1-0.3-2,0.3-2.1,1.4
			c0,0.1,0,0.3-0.1,0.4c-0.3,0.5-0.4,1-0.2,1.6c0.2,0.5,0.4,1,0.7,1.5c0,0.1,0.1,0.1,0.2,0.1c0.1,0.2,0.4,0.4,0.3,0.5
			c-0.1,0.2-0.3,0.3-0.5,0.4c-1.2,0.4-2.3,0.8-3.5,1.3c-0.6,0.2-1,0.7-1.2,1.4c-0.1,0.2-0.1,0.4-0.1,0.5l0,0.1
			c2.9,2.1,10.1-1.6,10.1-1.6l-0.1-1.3C196.9,99.7,195.8,99.4,195.7,99.4z"/>
		<path class="st4" d="M184,65.9C184,65.9,184,65.8,184,65.9"/>
		<path class="st2" d="M184.1,65.9C184.1,65.9,184.1,65.9,184.1,65.9C184,65.9,184,65.9,184.1,65.9C184,65.9,184.1,65.9,184.1,65.9z
			"/>
		<path class="st4" d="M124.5,63.5C124.5,63.5,124.5,63.5,124.5,63.5"/>
		<path class="st4" d="M77.4,63.5C77.4,63.5,77.4,63.5,77.4,63.5"/>
		<path class="st2" d="M77.4,63.5C77.4,63.5,77.4,63.5,77.4,63.5C77.4,63.5,77.4,63.5,77.4,63.5C77.4,63.5,77.4,63.5,77.4,63.5z"/>
		<path class="st2" d="M138.1,63.5C138.2,63.4,138.1,63.5,138.1,63.5L138.1,63.5z"/>
	</g>
</g>
</svg>
