<?xml version="1.0" encoding="utf-8"?>
<!-- Generator: Adobe Illustrator 22.1.0, SVG Export Plug-In . SVG Version: 6.00 Build 0)  -->
<svg version="1.1" id="illustration" xmlns="http://www.w3.org/2000/svg" xmlns:xlink="http://www.w3.org/1999/xlink" x="0px"
	 y="0px" viewBox="0 0 360 134" style="enable-background:new 0 0 360 134;" xml:space="preserve">
<style type="text/css">
	.st0{fill:#FFFFFF;}
	.st1{fill:none;}
	.st2{fill:#3678E6;}
	.st3{fill:#98B6F2;}
	.st4{fill:#5D93FF;}
	.st5{fill:#3884FE;}
	.st6{fill:#C6D9FF;}
	.st7{fill:#F6E0CB;}
	.st8{fill:#4683FD;}
</style>
<g>
	<g>
		<g>
			<title>7-3</title>
			<rect y="-0.2" class="st0" width="360" height="134.4"/>
		</g>
	</g>
	<g>
		<path class="st1" d="M200.7,48.7c0-11.8-9.9-22.5-20.7-22.5S159.3,37,159.3,48.7v6.5h20.5h20.9V48.7z"/>
		<path class="st2" d="M159.3,55.2v-6.5c0-11.8,9.9-22.5,20.7-22.5s20.7,10.7,20.7,22.5v6.5h8.8v-6.5c0-16.6-13.8-31.3-29.5-31.3
			s-29.5,14.6-29.5,31.3v6.5H159.3z"/>
		<path class="st3" d="M222.4,56.6c0-0.8-0.6-1.4-1.4-1.4h-11.5h-8.8h-20.9v11.1c0.1,0,0.2,0,0.3,0c5.8,0,10.6,4.7,10.6,10.6
			c0,3.7-1.9,6.9-4.7,8.8v17.4c0,1.3-1,2.3-2.3,2.3h-3.9v11.1H221c0.8,0,1.4-0.6,1.4-1.4V56.6z"/>
		<path class="st4" d="M179.8,105.4h-3.1c-1.3,0-2.3-1-2.3-2.3V85.7c-2.9-1.9-4.8-5.1-4.8-8.8c0-5.7,4.5-10.4,10.2-10.5V55.2h-20.5
			h-8.8H139c-0.8,0-1.4,0.6-1.4,1.4v11.3h10.3c0.5,0,0.9,0.4,0.9,0.9c0,0.5-0.4,0.9-0.9,0.9h-10.3v10.7h10.3c0.5,0,0.9,0.4,0.9,0.9
			s-0.4,0.9-0.9,0.9h-10.3v10.7h10.3c0.5,0,0.9,0.4,0.9,0.9s-0.4,0.9-0.9,0.9h-10.3v10.7h10.3c0.5,0,0.9,0.4,0.9,0.9
			s-0.4,0.9-0.9,0.9h-10.3v8.2c0,0.8,0.6,1.4,1.4,1.4h40.8V105.4z"/>
		<rect x="137.6" y="67" class="st4" width="12.9" height="40.9"/>
		<path class="st5" d="M149,106c0-0.5-0.4-0.9-0.9-0.9h-10.3h-0.2v1.8h0.2h10.3C148.6,106.9,149,106.5,149,106z"/>
		<path class="st5" d="M149,68.8c0-0.5-0.4-0.9-0.9-0.9h-10.3h-0.2v1.8h0.2h10.3C148.6,69.7,149,69.3,149,68.8z"/>
		<path class="st5" d="M149,81.2c0-0.5-0.4-0.9-0.9-0.9h-10.3h-0.2v1.8h0.2h10.3C148.6,82.1,149,81.7,149,81.2z"/>
		<path class="st5" d="M149,93.6c0-0.5-0.4-0.9-0.9-0.9h-10.3h-0.2v1.8h0.2h10.3C148.6,94.5,149,94.1,149,93.6z"/>
		<path class="st6" d="M212.7,106.9h9.7v-1.8h-9.7c-0.5,0-0.9,0.4-0.9,0.9S212.2,106.9,212.7,106.9z"/>
		<path class="st6" d="M212.7,69.7h9.7v-1.8h-9.7c-0.5,0-0.9,0.4-0.9,0.9C211.8,69.3,212.2,69.7,212.7,69.7z"/>
		<path class="st6" d="M212.7,82.1h9.7v-1.8h-9.7c-0.5,0-0.9,0.4-0.9,0.9S212.2,82.1,212.7,82.1z"/>
		<path class="st6" d="M212.7,94.5h9.7v-1.8h-9.7c-0.5,0-0.9,0.4-0.9,0.9S212.2,94.5,212.7,94.5z"/>
		<path class="st7" d="M169.6,76.9c0,3.7,1.9,7,4.8,8.8v17.4c0,1.3,1,2.3,2.3,2.3h3.1h3.9c1.3,0,2.3-1,2.3-2.3V85.7
			c2.8-1.9,4.7-5.1,4.7-8.8c0-5.8-4.7-10.6-10.6-10.6c-0.1,0-0.2,0-0.3,0C174.2,66.5,169.6,71.2,169.6,76.9z M180.2,70.1
			c3.7,0,6.7,3,6.7,6.7c0,2.8-1.8,5.3-4.2,6.3v17.5c0,0.6-0.5,1-1,1h-2.9c-0.6,0-1-0.5-1-1V83.2c-2.5-1-4.3-3.4-4.3-6.3
			C173.4,73.2,176.4,70.1,180.2,70.1z"/>
		<path class="st8" d="M177.7,83.2v17.5c0,0.6,0.5,1,1,1h2.9c0.6,0,1-0.5,1-1V83.1c2.5-1,4.2-3.4,4.2-6.3c0-3.7-3-6.7-6.7-6.7
			c-3.7,0-6.7,3-6.7,6.7C173.4,79.7,175.2,82.2,177.7,83.2z"/>
	</g>
</g>
</svg>
