<?xml version="1.0" encoding="utf-8"?>
<!-- Generator: Adobe Illustrator 22.1.0, SVG Export Plug-In . SVG Version: 6.00 Build 0)  -->
<svg version="1.1" id="illustration" xmlns="http://www.w3.org/2000/svg" xmlns:xlink="http://www.w3.org/1999/xlink" x="0px"
	 y="0px" viewBox="0 0 360 134" style="enable-background:new 0 0 360 134;" xml:space="preserve">
<style type="text/css">
	.st0{fill:#FFFFFF;}
	.st1{fill:#F6E0CB;}
	.st2{fill:#4683FD;}
	.st3{fill:#F58796;}
	.st4{fill:#E1A43A;}
</style>
<g>
	<g>
		<g>
			<title>7-3</title>
			<rect y="-0.4" class="st0" width="360" height="134.4"/>
		</g>
		<g>
			<path class="st0" d="M221,89c0,2.2,0.7,4.3,1.9,6.1l6.1-6.1H221z"/>
			<path class="st0" d="M235.3,89l-9.3,9.3c1.8,1.2,3.9,1.9,6.2,1.9c6.2,0,11.2-5,11.3-11.1H235.3z"/>
			<path class="st1" d="M238.6,79.3c-1.8-1.2-3.9-1.9-6.2-1.9c-6.3,0-11.3,5.1-11.3,11.3c0,0.1,0,0.1,0,0.2h7.9L238.6,79.3z"/>
			<path class="st1" d="M82.1,68.6c0,11.2,9.1,20.3,20.3,20.3h114.1c0-0.1,0-0.1,0-0.2c0-8.8,7.1-15.8,15.8-15.8
				c8.8,0,15.8,7.1,15.8,15.8c0,0.1,0,0.1,0,0.2h10.1c11.2,0,20.3-9.1,20.3-20.3V13.9V-0.3h-6.4v42.5c0,2.1-1.7,3.9-3.9,3.9H90.9
				c-2.1,0-3.9-1.7-3.9-3.9V-0.3h-5v14.2V68.6z M179.5,52.8c7.8,0,14.1,6.3,14.1,14.1s-6.3,14.1-14.1,14.1s-14.1-6.3-14.1-14.1
				S171.7,52.8,179.5,52.8z"/>
			<path class="st1" d="M243.6,89c0-0.1,0-0.1,0-0.2c0-2.3-0.7-4.5-1.9-6.2l-6.4,6.4H243.6z"/>
			<circle class="st0" cx="179.5" cy="67" r="14.1"/>
			<path class="st2" d="M241.8,82.5c-0.8-1.3-1.9-2.4-3.2-3.2l-9.6,9.6l-6.1,6.1c0.8,1.3,1.9,2.4,3.2,3.2l9.3-9.3L241.8,82.5z"/>
			<path class="st3" d="M238.8,111.1c-0.2-0.8-1-1.3-1.8-1.1l-0.1,0c-0.8,0.2-1.3,0.9-1.2,1.7l1.8,11c0.2,1.2,1.4,2,2.6,1.8v0
				c1.2-0.3,1.9-1.5,1.6-2.7L238.8,111.1z"/>
			<path class="st3" d="M249,104.9c-0.6-0.6-1.5-0.6-2.1-0.1l-0.1,0.1c-0.6,0.5-0.7,1.5-0.2,2.1l7,8.7c0.8,1,2.2,1.1,3.1,0.2h0
				c0.9-0.8,0.9-2.2,0.1-3.1L249,104.9z"/>
			<path class="st3" d="M226.8,109.8l-0.1,0c-0.8-0.2-1.6,0.2-1.8,1l-3.4,10.6c-0.4,1.2,0.3,2.4,1.5,2.7c1.2,0.3,2.4-0.4,2.7-1.6
				l2.3-10.9C228.1,110.7,227.6,110,226.8,109.8z"/>
			<path class="st3" d="M219.7,106.4L219.7,106.4c-0.7-0.5-1.7-0.4-2.2,0.2l-7,8.7c-0.8,1-0.6,2.4,0.4,3.1c1,0.7,2.4,0.4,3.1-0.6
				l6-9.4C220.5,107.8,220.4,106.9,219.7,106.4z"/>
			<g>
				<g>
					<path class="st2" d="M232.3,72.9c-8.8,0-15.8,7.1-15.8,15.8c0,0.1,0,0.1,0,0.2c0.1,8.7,7.1,15.7,15.8,15.7
						c8.7,0,15.7-7,15.8-15.7c0-0.1,0-0.1,0-0.2C248.2,80,241.1,72.9,232.3,72.9z M232.3,100.1c-2.3,0-4.5-0.7-6.2-1.9
						c-1.3-0.8-2.4-1.9-3.2-3.2c-1.2-1.7-1.8-3.8-1.9-6.1c0-0.1,0-0.1,0-0.2c0-6.3,5.1-11.3,11.3-11.3c2.3,0,4.5,0.7,6.2,1.9
						c1.3,0.8,2.4,1.9,3.2,3.2c1.2,1.8,1.9,3.9,1.9,6.2c0,0.1,0,0.1,0,0.2C243.5,95.1,238.5,100.1,232.3,100.1z"/>
				</g>
			</g>
			<path class="st4" d="M87,42.2c0,2.1,1.7,3.9,3.9,3.9h177.5c2.1,0,3.9-1.7,3.9-3.9V-0.3h-9.1v40.7h-167V-0.3H87V42.2z"/>
			<path class="st0" d="M96.1,40.4h167V-0.3H259v16.6c0,1.6-1.3,2.8-2.8,2.8H103.1c-1.6,0-2.8-1.3-2.8-2.8V-0.3h-4.1V40.4z
				 M203.8,26.8c0-0.9,0.7-1.6,1.6-1.6h27.8c0.9,0,1.6,0.7,1.6,1.6v3.9c0,0.9-0.7,1.6-1.6,1.6h-27.8c-0.9,0-1.6-0.7-1.6-1.6V26.8z
				 M163.9,26.8c0-0.9,0.7-1.6,1.6-1.6h27.8c0.9,0,1.6,0.7,1.6,1.6v3.9c0,0.9-0.7,1.6-1.6,1.6h-27.8c-0.9,0-1.6-0.7-1.6-1.6V26.8z
				 M123.9,26.8c0-0.9,0.7-1.6,1.6-1.6h27.8c0.9,0,1.6,0.7,1.6,1.6v3.9c0,0.9-0.7,1.6-1.6,1.6h-27.8c-0.9,0-1.6-0.7-1.6-1.6V26.8z"
				/>
			<path class="st1" d="M100.3,16.2c0,1.6,1.3,2.8,2.8,2.8h153.1c1.6,0,2.8-1.3,2.8-2.8V-0.3H100.3V16.2z"/>
			<path class="st1" d="M125.6,32.4h27.8c0.9,0,1.6-0.7,1.6-1.6v-3.9c0-0.9-0.7-1.6-1.6-1.6h-27.8c-0.9,0-1.6,0.7-1.6,1.6v3.9
				C123.9,31.6,124.7,32.4,125.6,32.4z"/>
			<path class="st1" d="M165.5,32.4h27.8c0.9,0,1.6-0.7,1.6-1.6v-3.9c0-0.9-0.7-1.6-1.6-1.6h-27.8c-0.9,0-1.6,0.7-1.6,1.6v3.9
				C163.9,31.6,164.6,32.4,165.5,32.4z"/>
			<path class="st1" d="M205.5,32.4h27.8c0.9,0,1.6-0.7,1.6-1.6v-3.9c0-0.9-0.7-1.6-1.6-1.6h-27.8c-0.9,0-1.6,0.7-1.6,1.6v3.9
				C203.8,31.6,204.6,32.4,205.5,32.4z"/>
		</g>
	</g>
</g>
</svg>
