<?xml version="1.0" encoding="utf-8"?>
<!-- Generator: Adobe Illustrator 22.1.0, SVG Export Plug-In . SVG Version: 6.00 Build 0)  -->
<svg version="1.1" id="illustration" xmlns="http://www.w3.org/2000/svg" xmlns:xlink="http://www.w3.org/1999/xlink" x="0px"
	 y="0px" viewBox="0 0 360 134" style="enable-background:new 0 0 360 134;" xml:space="preserve">
<style type="text/css">
	.st0{fill:#FFFFFF;}
	.st1{fill:#FFFFFF;stroke:#77A9FB;stroke-width:0.9855;stroke-miterlimit:10;}
	.st2{fill:#4683FD;}
	.st3{fill:#CADCFE;}
	.st4{fill:#FBD874;}
	.st5{fill:none;stroke:#FFFFFF;stroke-width:3.1855;stroke-miterlimit:10;}
	.st6{fill:none;stroke:#1C2546;stroke-width:2.3819;stroke-miterlimit:10;}
	.st7{fill:#1C2546;}
	.st8{fill:none;stroke:#F58790;stroke-width:2.4433;stroke-linecap:round;stroke-linejoin:round;stroke-miterlimit:10;}
	.st9{fill:none;stroke:#FFFFFF;stroke-width:1.9849;stroke-linecap:round;stroke-linejoin:round;stroke-miterlimit:10;}
	.st10{fill:none;stroke:#F58790;stroke-width:2.4433;stroke-linejoin:round;stroke-miterlimit:10;}
	.st11{fill:#1C2546;stroke:#1C2546;stroke-width:2.5313;stroke-linecap:round;stroke-linejoin:round;stroke-miterlimit:10;}
	.st12{fill:#1C2546;stroke:#1C2546;stroke-width:1.2656;stroke-linecap:round;stroke-linejoin:round;stroke-miterlimit:10;}
	.st13{fill:#F58790;}
	.st14{fill:none;stroke:#F58790;stroke-width:3.2578;stroke-miterlimit:10;}
	.st15{fill:#FFDA17;stroke:#1C2546;stroke-width:3.7317;stroke-miterlimit:10;}
	.st16{fill:#FFDA17;stroke:#1C2546;stroke-width:3.5729;stroke-miterlimit:10;}
	.st17{fill:#FEE9B0;}
	.st18{fill:#98B6F2;}
	.st19{fill:#F6E0CB;}
	.st20{fill:#E1A43A;}
	.st21{fill:#F8EADD;}
	.st22{fill:#71CEBE;}
	.st23{fill:none;stroke:#FFFFFF;stroke-width:0.8745;stroke-miterlimit:10;}
	.st24{fill:none;stroke:#1C2546;stroke-width:0.6539;stroke-miterlimit:10;}
	.st25{fill:none;stroke:#F58790;stroke-width:0.6707;stroke-linecap:round;stroke-linejoin:round;stroke-miterlimit:10;}
	.st26{fill:none;stroke:#FFFFFF;stroke-width:0.5449;stroke-linecap:round;stroke-linejoin:round;stroke-miterlimit:10;}
	.st27{fill:none;stroke:#F58790;stroke-width:0.6707;stroke-linejoin:round;stroke-miterlimit:10;}
	.st28{fill:#1C2546;stroke:#1C2546;stroke-width:0.6949;stroke-linecap:round;stroke-linejoin:round;stroke-miterlimit:10;}
	.st29{fill:#1C2546;stroke:#1C2546;stroke-width:0.3474;stroke-linecap:round;stroke-linejoin:round;stroke-miterlimit:10;}
	.st30{fill:none;stroke:#F58790;stroke-width:0.8943;stroke-miterlimit:10;}
	.st31{fill:#FFDA17;stroke:#1C2546;stroke-width:1.0244;stroke-miterlimit:10;}
	.st32{fill:#FFDA17;stroke:#1C2546;stroke-width:0.9808;stroke-miterlimit:10;}
	.st33{fill:#3A7BE3;}
</style>
<g>
	<g>
		<rect x="0.1" class="st0" width="359.7" height="133.7"/>
		<g>
			<path class="st1" d="M158.7,121h0.6c1.4,0,2.4-1.1,2.7-2.4l2.2-11.6h-13.6"/>
			<path class="st1" d="M201,121h-0.6c-1.4,0-2.4-1.1-2.7-2.4l-2.2-11.6h20.4"/>
			<path class="st2" d="M260.5,108.5h-160c-2,0-3.6-1.6-3.6-3.6V14.8c0-2,1.6-3.6,3.6-3.6h160c2,0,3.6,1.6,3.6,3.6v90.1
				C264.2,106.9,262.5,108.5,260.5,108.5z"/>
			<path class="st1" d="M203.7,129.9h-46.5c-1.5,0-2.8-1.2-2.8-2.8v-3.4c0-1.5,1.2-2.8,2.8-2.8h46.5c1.5,0,2.8,1.2,2.8,2.8v3.4
				C206.5,128.7,205.2,129.9,203.7,129.9z"/>
			<rect x="102.2" y="16.2" class="st3" width="156.6" height="82.4"/>
			<rect x="0.1" y="126" class="st3" width="359.7" height="8"/>
			<g>
				<rect x="128.6" y="18" class="st0" width="104" height="77.8"/>
				<g>
					<path class="st4" d="M227.5,91.4h-93.8c-0.9,0-1.7-0.8-1.7-1.7V30.2c0-0.9,0.8-1.7,1.7-1.7h93.8c0.9,0,1.7,0.8,1.7,1.7v59.5
						C229.2,90.7,228.4,91.4,227.5,91.4z"/>
					<g>
						<g>
							<circle class="st5" cx="208.4" cy="69.4" r="17"/>
							<circle class="st6" cx="208.4" cy="69.4" r="17.6"/>
						</g>
						<g>
							<circle class="st7" cx="208.4" cy="69.4" r="2.4"/>
						</g>
						<g>
							<polyline class="st8" points="199.7,47 200,47.9 208.4,69.4 							"/>
							<path class="st9" d="M195.7,34.9h5c0.9,0,1.6,0.7,1.6,1.6v0.1c0,0.9-0.7,1.6-1.6,1.6H198c-0.8,0-1.3,0.8-1,1.5l2.7,7.4"/>
							<g>
								<g>
									<circle class="st5" cx="153.4" cy="69.4" r="17"/>
									<circle class="st6" cx="153.4" cy="69.4" r="17.6"/>
								</g>
								<polyline class="st8" points="199.3,47.2 178.1,71.4 169.6,45.6 199,45.6 								"/>
								<circle class="st7" cx="153.4" cy="69.4" r="2.4"/>
								<polyline class="st8" points="169.6,45.6 153.4,69.4 178.1,71.4 								"/>
								<line class="st9" x1="168.9" y1="43.4" x2="167.6" y2="39.2"/>
								<line class="st10" x1="169.3" y1="44.7" x2="169" y2="43.7"/>
								<line class="st8" x1="178.1" y1="71.4" x2="169.3" y2="44.7"/>
								<line class="st9" x1="175.9" y1="80.8" x2="178.2" y2="71.5"/>
								<circle class="st7" cx="178.1" cy="71.4" r="4.7"/>
								<line class="st11" x1="195.7" y1="34.9" x2="190.6" y2="34.9"/>
								<path class="st12" d="M174.5,37.7H162l2.6,1.3c0.8,0.4,1.8,0.5,2.7,0.3L174.5,37.7z"/>
								<circle class="st13" cx="178.1" cy="71.4" r="1.7"/>
								<line class="st9" x1="178.1" y1="71.4" x2="180.4" y2="62.1"/>
								<g>
									<path class="st7" d="M182.2,62.3h-3.6c-0.2,0-0.3-0.2-0.3-0.4l0.2-0.7c0-0.1,0.1-0.2,0.3-0.2h3.6c0.2,0,0.3,0.2,0.3,0.4
										l-0.2,0.7C182.4,62.2,182.3,62.3,182.2,62.3z"/>
								</g>
								<g>
									<path class="st7" d="M177.6,81.7H174c-0.2,0-0.3-0.2-0.3-0.4l0.2-0.7c0-0.1,0.1-0.2,0.3-0.2h3.6c0.2,0,0.3,0.2,0.3,0.4
										l-0.2,0.7C177.9,81.7,177.8,81.7,177.6,81.7z"/>
								</g>
								<line class="st14" x1="198.1" y1="42.7" x2="200.8" y2="49.9"/>
								<line class="st15" x1="197.9" y1="42.1" x2="198.2" y2="42.8"/>
								<line class="st15" x1="200.7" y1="49.6" x2="201" y2="50.4"/>
								<line class="st16" x1="169" y1="43.8" x2="168.7" y2="42.9"/>
							</g>
						</g>
					</g>
				</g>
				<path class="st4" d="M160.3,26.1h-27.2c-0.6,0-1-0.5-1-1v-2.2c0-0.6,0.5-1,1-1h27.2c0.6,0,1,0.5,1,1V25
					C161.3,25.6,160.9,26.1,160.3,26.1z"/>
				<path class="st4" d="M228,26.1h-7.6c-0.6,0-1-0.5-1-1v-2.2c0-0.6,0.5-1,1-1h7.6c0.6,0,1,0.5,1,1V25
					C229,25.6,228.5,26.1,228,26.1z"/>
				<path class="st4" d="M215.9,26.1h-7.6c-0.6,0-1-0.5-1-1v-2.2c0-0.6,0.5-1,1-1h7.6c0.6,0,1,0.5,1,1V25
					C216.9,25.6,216.5,26.1,215.9,26.1z"/>
				<g>
					<path class="st7" d="M199.2,46l0.3,0.7c0.4,1,1.3,1.5,2.3,1.4l-1.8-4.7C199.3,43.9,198.9,45,199.2,46z"/>
				</g>
				<g>
					<path class="st17" d="M147.4,41.3h-9.9c0,0,0.7-1.9,4.2-2.4c3.5-0.5,5.1-1.8,8.2-1.8s4.2,2,4.2,3.5v0.7H147.4z"/>
					<g>
						<defs>
							<path id="SVGID_1_" d="M147.4,41.3h-9.9c0,0,0.7-1.9,4.2-2.4c3.5-0.5,5.1-1.8,8.2-1.8s4.2,2,4.2,3.5v0.7H147.4z"/>
						</defs>
						<clipPath id="SVGID_2_">
							<use xlink:href="#SVGID_1_"  style="overflow:visible;"/>
						</clipPath>
					</g>
					<path class="st0" d="M143.1,42.2h15.3c0,0-0.7-2.7-3.3-2.7c-2.6,0-2.5,0.7-5.3,0.7c-3.3,0-1.8,0-1.8,0S144.2,40.1,143.1,42.2z"
						/>
				</g>
				<g>
					<defs>
						<path id="SVGID_3_" d="M144.1,41.9h13.4c0,0-0.6-2.3-2.9-2.3s-2.1,0.6-4.6,0.6c-2.8,0-1.5,0-1.5,0S145.1,40,144.1,41.9z"/>
					</defs>
					<clipPath id="SVGID_4_">
						<use xlink:href="#SVGID_3_"  style="overflow:visible;"/>
					</clipPath>
				</g>
			</g>
		</g>
	</g>
	<g>
		<g>
			<path class="st18" d="M101,134H63.4c0,0,10.1-27.2,13.5-34.4l4.8-11.1"/>
			<path class="st18" d="M101.3,62.8l5.1-6.7c0.6-0.8,1.9-0.9,2.6-0.2v0c0.6,0.6,0.7,1.4,0.3,2.1l-3.6,6.7"/>
			<path class="st18" d="M111.4,71.2l8.1-6.1c0.8-0.6,2.1-0.4,2.6,0.5l0,0c0.4,0.7,0.3,1.6-0.3,2.1L112.6,78"/>
			<path class="st18" d="M85.3,76.8l-1.1,3c-0.8,2.2-1.5,4.5-2.1,6.8l-4.3,12c-0.8,2.4-1.5,4.8-1.8,7.3c0,0,0,0,0,0L72.7,134h30.5
				l4.8-16.8"/>
			<polyline class="st2" points="90.4,122.4 107.5,119 89.3,119 			"/>
			<g>
				<g>
					<path class="st19" d="M110.6,119H82.3c-1.3,0-2.3-1-2.3-2.3V61.8c0-1.3,1-2.3,2.3-2.3h28.4c1.3,0,2.3,1,2.3,2.3v54.9
						C112.9,118,111.9,119,110.6,119z"/>
					<rect x="81.5" y="65.6" class="st20" width="29.8" height="45.5"/>
					<g>
						<path class="st0" d="M109.6,103.8H83.1c-0.4,0-0.8-0.3-0.8-0.8V72.5c0-0.4,0.3-0.8,0.8-0.8h26.5c0.4,0,0.8,0.3,0.8,0.8v30.6
							C110.3,103.5,110,103.8,109.6,103.8z"/>
						<path class="st0" d="M108.7,74.5h-1.8c-0.2,0-0.3-0.1-0.3-0.3v-0.7c0-0.2,0.1-0.3,0.3-0.3h1.8c0.2,0,0.3,0.1,0.3,0.3v0.7
							C108.9,74.4,108.8,74.5,108.7,74.5z"/>
						<g>
							<g>
								<circle class="st21" cx="85.7" cy="74.9" r="2.1"/>
								<circle class="st21" cx="108.6" cy="73.9" r="0.3"/>
								<circle class="st21" cx="107.8" cy="73.9" r="0.3"/>
								<circle class="st21" cx="106.9" cy="73.9" r="0.3"/>
							</g>
							<path class="st22" d="M91.5,76"/>
						</g>
						<path class="st21" d="M89.2,76.6h9.4c0.2,0,0.3-0.1,0.3-0.3v-0.7c0-0.2-0.1-0.3-0.3-0.3h-9.4c-0.2,0-0.3,0.1-0.3,0.3v0.7
							C88.9,76.4,89,76.6,89.2,76.6z"/>
						<path class="st21" d="M83.8,98.1h10.8c0.2,0,0.3-0.1,0.3-0.3v-0.7c0-0.2-0.1-0.3-0.3-0.3H83.8c-0.2,0-0.3,0.1-0.3,0.3v0.7
							C83.6,98,83.7,98.1,83.8,98.1z"/>
						<path class="st21" d="M83.8,100.2h13.1c0.2,0,0.3-0.1,0.3-0.3v-0.7c0-0.2-0.1-0.3-0.3-0.3H83.8c-0.2,0-0.3,0.1-0.3,0.3v0.7
							C83.6,100,83.7,100.2,83.8,100.2z"/>
						<path class="st21" d="M83.8,102.2h17.6c0.2,0,0.3-0.1,0.3-0.3v-0.7c0-0.2-0.1-0.3-0.3-0.3H83.8c-0.2,0-0.3,0.1-0.3,0.3v0.7
							C83.6,102.1,83.7,102.2,83.8,102.2z"/>
						<path class="st21" d="M89.2,74.5h12c0.2,0,0.3-0.1,0.3-0.3v-0.7c0-0.2-0.1-0.3-0.3-0.3h-12c-0.2,0-0.3,0.1-0.3,0.3v0.7
							C88.9,74.4,89,74.5,89.2,74.5z"/>
						<path class="st21" d="M108.5,99.1h-4.6c-0.2,0-0.4-0.2-0.4-0.4v-1.2c0-0.2,0.2-0.4,0.4-0.4h4.6c0.2,0,0.4,0.2,0.4,0.4v1.2
							C108.9,98.9,108.7,99.1,108.5,99.1z"/>
						<g>
							<g>
								<path class="st4" d="M109.1,95.5H83.4c-0.3,0-0.5-0.2-0.5-0.5V78.7c0-0.3,0.2-0.5,0.5-0.5h25.8c0.3,0,0.5,0.2,0.5,0.5V95
									C109.6,95.3,109.4,95.5,109.1,95.5z"/>
								<g>
									<g>
										<circle class="st23" cx="103.9" cy="89.4" r="4.7"/>
										<circle class="st24" cx="103.9" cy="89.4" r="4.8"/>
									</g>
									<g>
										<circle class="st7" cx="103.9" cy="89.4" r="0.7"/>
									</g>
									<g>
										<polyline class="st25" points="101.5,83.3 101.6,83.5 103.9,89.4 										"/>
										<path class="st26" d="M100.4,79.9h1.4c0.2,0,0.4,0.2,0.4,0.4v0c0,0.2-0.2,0.4-0.4,0.4h-0.7c-0.2,0-0.4,0.2-0.3,0.4l0.7,2"
											/>
										<g>
											<g>
												<circle class="st23" cx="88.8" cy="89.4" r="4.7"/>
												<circle class="st24" cx="88.8" cy="89.4" r="4.8"/>
											</g>
											<polyline class="st25" points="101.4,83.3 95.6,90 93.2,82.9 101.3,82.9 											"/>
											<circle class="st7" cx="88.8" cy="89.4" r="0.7"/>
											<polyline class="st25" points="93.2,82.9 88.8,89.4 95.6,90 											"/>
											<line class="st26" x1="93.1" y1="82.3" x2="92.7" y2="81.1"/>
											<line class="st27" x1="93.2" y1="82.6" x2="93.1" y2="82.4"/>
											<line class="st25" x1="95.6" y1="90" x2="93.2" y2="82.6"/>
											<line class="st26" x1="95" y1="92.6" x2="95.6" y2="90"/>
											<circle class="st7" cx="95.6" cy="90" r="1.3"/>
											<line class="st28" x1="100.4" y1="79.9" x2="99" y2="79.9"/>
											<path class="st29" d="M94.6,80.7h-3.4l0.7,0.4c0.2,0.1,0.5,0.1,0.7,0.1L94.6,80.7z"/>
											<circle class="st13" cx="95.6" cy="90" r="0.5"/>
											<line class="st26" x1="95.6" y1="90" x2="96.2" y2="87.4"/>
											<g>
												<path class="st7" d="M96.7,87.5h-1c-0.1,0-0.1,0-0.1-0.1l0-0.2c0,0,0-0.1,0.1-0.1h1c0.1,0,0.1,0,0.1,0.1L96.7,87.5
													C96.8,87.4,96.7,87.5,96.7,87.5z"/>
											</g>
											<g>
												<path class="st7" d="M95.5,92.8h-1c-0.1,0-0.1,0-0.1-0.1l0-0.2c0,0,0-0.1,0.1-0.1h1c0.1,0,0.1,0,0.1,0.1L95.5,92.8
													C95.5,92.8,95.5,92.8,95.5,92.8z"/>
											</g>
											<line class="st30" x1="101.1" y1="82.1" x2="101.8" y2="84.1"/>
											<line class="st31" x1="101" y1="81.9" x2="101.1" y2="82.1"/>
											<line class="st31" x1="101.8" y1="84" x2="101.9" y2="84.2"/>
											<line class="st32" x1="93.1" y1="82.4" x2="93" y2="82.1"/>
										</g>
									</g>
								</g>
							</g>
							<g>
								<path class="st7" d="M101.4,83l0.1,0.2c0.1,0.3,0.4,0.4,0.6,0.4l-0.5-1.3C101.4,82.4,101.3,82.7,101.4,83z"/>
							</g>
							<g>
								<path class="st17" d="M87.2,81.7h-2.7c0,0,0.2-0.5,1.2-0.6c1-0.1,1.4-0.5,2.2-0.5c0.9,0,1.1,0.5,1.1,1v0.2H87.2z"/>
								<g>
									<defs>
										<path id="SVGID_5_" d="M87.2,81.7h-2.7c0,0,0.2-0.5,1.2-0.6c1-0.1,1.4-0.5,2.2-0.5c0.9,0,1.1,0.5,1.1,1v0.2H87.2z"/>
									</defs>
									<clipPath id="SVGID_6_">
										<use xlink:href="#SVGID_5_"  style="overflow:visible;"/>
									</clipPath>
								</g>
								<path class="st0" d="M86,82h4.2c0,0-0.2-0.7-0.9-0.7s-0.7,0.2-1.5,0.2c-0.9,0-0.5,0-0.5,0S86.3,81.4,86,82z"/>
							</g>
							<g>
								<defs>
									<path id="SVGID_7_" d="M86.2,81.9h3.7c0,0-0.2-0.6-0.8-0.6c-0.6,0-0.6,0.2-1.3,0.2c-0.8,0-0.4,0-0.4,0S86.5,81.4,86.2,81.9
										z"/>
								</defs>
								<clipPath id="SVGID_8_">
									<use xlink:href="#SVGID_7_"  style="overflow:visible;"/>
								</clipPath>
							</g>
						</g>
					</g>
					<g>
						<path class="st21" d="M110.3,111.1h-28v-4.6c0-0.4,0.3-0.8,0.8-0.8h26.4c0.4,0,0.8,0.3,0.8,0.8V111.1z"/>
						<path class="st21" d="M110.3,110.6h-28v-4.6c0-0.4,0.3-0.8,0.8-0.8h26.4c0.4,0,0.8,0.3,0.8,0.8V110.6z"/>
						<path class="st21" d="M110.3,67.1h-28V69c0,0.4,0.3,0.8,0.8,0.8h26.4c0.4,0,0.8-0.3,0.8-0.8V67.1z"/>
						<path class="st21" d="M110.3,67.7h-28v1.9c0,0.4,0.3,0.8,0.8,0.8h26.4c0.4,0,0.8-0.3,0.8-0.8V67.7z"/>
						<path class="st21" d="M110.3,66.6h-28v1.9c0,0.4,0.3,0.8,0.8,0.8h26.4c0.4,0,0.8-0.3,0.8-0.8V66.6z"/>
						<g>
							<path class="st22" d="M91.5,104.9"/>
						</g>
					</g>
					<circle class="st0" cx="96.3" cy="114.8" r="2.4"/>
					<path class="st0" d="M99.9,63.5h-7.1c-0.2,0-0.4-0.2-0.4-0.4v-0.6c0-0.2,0.2-0.4,0.4-0.4h7.1c0.2,0,0.4,0.2,0.4,0.4V63
						C100.3,63.3,100.1,63.5,99.9,63.5z"/>
					<circle class="st0" cx="85.7" cy="108.5" r="2.1"/>
					<path class="st0" d="M89.2,110.1h9.4c0.2,0,0.3-0.1,0.3-0.3v-0.7c0-0.2-0.1-0.3-0.3-0.3h-9.4c-0.2,0-0.3,0.1-0.3,0.3v0.7
						C88.9,110,89,110.1,89.2,110.1z"/>
					<path class="st0" d="M89.2,108h12c0.2,0,0.3-0.1,0.3-0.3v-0.7c0-0.2-0.1-0.3-0.3-0.3h-12c-0.2,0-0.3,0.1-0.3,0.3v0.7
						C88.9,107.9,89,108,89.2,108z"/>
				</g>
				<rect x="81.6" y="110" class="st20" width="29.6" height="1.1"/>
			</g>
			<path class="st18" d="M91.1,123.9l0.2-2.5c0.1-1.3-0.1-2.5-0.6-3.7l-6.4-13.7c-0.6-1.2-0.7-2.5-0.6-3.8l1.9-10.9
				c0.1-1-0.4-1.9-1.4-2.2h0c-1-0.3-2.1,0.2-2.6,1L78.2,97l-0.6,3.3l-0.8,9.7l-0.9,13.8h15.2l0.2-3.4l-2.5-6l-6-13.3"/>
			<g>
				<path class="st18" d="M112.9,88.2c0,0,1.3-0.5,2.6-0.5c2.4,0,3.4,2,3.4,3.1c0,0.9-0.3,2.4-0.9,3.7c-0.6,1.3-3.5,7.6-3.5,7.6
					c-0.4,1-1.6,1.3-2.5,0.8l0,0c-0.7-0.4-1-1.2-0.8-2l1.8-6.4L112.9,88.2z"/>
				<path class="st33" d="M112.9,88.2c0,0,2-2.3,3.2-2.3c0.2,5.4-3.1,8.6-3.1,8.6L112.9,88.2z"/>
				<path class="st18" d="M112.9,83.5l-1.8,6.4c-0.2,0.8,0.1,1.6,0.8,2l0,0c0.9,0.5,2.1,0.2,2.5-0.8c0,0,2.9-6.3,3.5-7.6
					c0.6-1.3,0.9-2.8,0.9-3.7c0-0.9-1-3.1-3.4-3.1c-1.2,0-2.5,0.5-2.5,0.5"/>
			</g>
			<line class="st18" x1="103.3" y1="134" x2="107.8" y2="118.2"/>
			<line class="st18" x1="67.3" y1="134" x2="71.8" y2="118.2"/>
			<polygon class="st2" points="112.9,70.1 113.8,69.4 112.9,83.3 			"/>
		</g>
	</g>
</g>
</svg>
